<svg width="98" height="98" viewBox="0 0 98 98" fill="none" xmlns="http://www.w3.org/2000/svg">
<g clip-path="url(#clip0_157_655)">
<path d="M16.3329 40.8293H8.16699C8.16699 72.4025 33.7597 98 65.3329 98V89.8329C38.269 89.8329 16.3329 67.8932 16.3329 40.8293Z" fill="#333333"/>
<path d="M65.3329 8.16706V0C42.7795 0 24.5 18.2795 24.5 40.8293C24.5 63.3827 42.7795 81.6671 65.3329 81.6671V73.5C47.29 73.5 32.6671 58.8735 32.6671 40.8305C32.6671 22.7936 47.2898 8.16706 65.3329 8.16706Z" fill="#333333"/>
<path d="M65.333 16.3329C51.7992 16.3329 40.833 27.2991 40.833 40.8294C40.833 54.3632 51.7992 65.3329 65.333 65.3329V57.1671C56.3096 57.1671 49.0001 49.8527 49.0001 40.8329C49.0001 31.8132 56.3096 24.5 65.333 24.5C74.3576 24.5 81.6671 31.8132 81.6671 40.8329L89.833 40.8294C89.833 27.2991 78.8681 16.3329 65.333 16.3329Z" fill="#333333"/>
</g>
<defs>
<clipPath id="clip0_157_655">
<rect width="98" height="98" fill="white"/>
</clipPath>
</defs>
</svg>
