<svg width="140" height="131" viewBox="0 0 140 131" fill="none" xmlns="http://www.w3.org/2000/svg">
<path d="M42.0053 90.9345L41.9969 90.9179L38.5732 84.9928L11.4574 38.0242H4.61816L35.1577 90.9179L35.1494 90.9345H35.1577H41.9886H42.0053Z" fill="url(#paint0_linear_157_557)"/>
<path d="M69.3744 90.9345L69.3661 90.9179L65.9423 84.9928L62.5269 79.076L59.1031 73.1509L55.6877 67.2258L52.2639 61.3007L38.8265 38.0242H31.9873L48.8485 67.2258L52.2639 73.1509L55.6877 79.076L59.1031 84.9928L62.5269 90.9179L62.5186 90.9345H62.5352H69.3578H69.3744Z" fill="url(#paint1_linear_157_557)"/>
<path d="M79.6171 84.9928L76.2017 79.076L72.7779 73.1509L69.3625 67.2258L65.9387 61.3007L62.5233 55.3839L59.0995 49.4589L52.5013 38.0242H45.6621L55.6841 55.3756L62.5233 67.2258L65.9387 73.1509L69.3625 79.076L72.7779 84.9928L76.2017 90.9179L76.1934 90.9345H76.21H83.0326H83.0492L83.0409 90.9179L79.6171 84.9928Z" fill="url(#paint2_linear_157_557)"/>
<path d="M94.3618 0.224609H87.5143L62.5508 43.4703L65.9746 49.3954L94.3618 0.224609Z" fill="url(#paint3_linear_157_557)"/>
<path d="M48.8404 90.9345H55.663H55.6796L55.6713 90.9179L52.2475 84.9928L48.8321 79.076L45.4083 73.1509L25.1317 38.0242H18.2925L41.9929 79.076L45.4083 84.9928L48.8321 90.9179L48.8238 90.9345H48.8404Z" fill="url(#paint4_linear_157_557)"/>
<path d="M72.8119 61.2373L108.038 0.224609H101.199L69.3882 55.3122L69.4297 55.3787L72.8119 61.2373Z" fill="url(#paint5_linear_157_557)"/>
<path d="M79.6493 73.0875L121.715 0.224609H114.876L76.2256 67.1624L76.2671 67.2206L79.6493 73.0875Z" fill="url(#paint6_linear_157_557)"/>
<path d="M135.392 0.224609H128.552L83.063 79.0043L83.1046 79.0708L86.4868 84.9294L135.392 0.224609Z" fill="url(#paint7_linear_157_557)"/>
<path d="M8.99462 115.665C8.53607 116.083 7.98269 116.383 7.3823 116.539C6.78192 116.696 6.15254 116.703 5.5485 116.562C4.94445 116.42 4.3839 116.134 3.91524 115.728C3.44657 115.321 3.08388 114.807 2.85847 114.229C2.63306 113.651 2.55173 113.027 2.62145 112.41C2.69118 111.794 2.9099 111.204 3.25871 110.691C3.60752 110.178 4.07594 109.757 4.62355 109.466C5.17116 109.174 5.7815 109.02 6.40187 109.017C7.36522 109.013 8.29342 109.379 8.99462 110.039L10.7979 108.22C9.89488 107.354 8.75752 106.773 7.52711 106.549C6.29671 106.324 5.02747 106.467 3.87715 106.957C2.72682 107.448 1.74612 108.266 1.05682 109.31C0.367515 110.354 0 111.577 0 112.827C0 114.078 0.367515 115.301 1.05682 116.345C1.74612 117.388 2.72682 118.207 3.87715 118.697C5.02747 119.188 6.29671 119.33 7.52711 119.106C8.75752 118.882 9.89488 118.301 10.7979 117.435L8.99462 115.665Z" fill="url(#paint8_linear_157_557)"/>
<path d="M27.597 106.481C26.3364 106.481 25.1041 106.855 24.0559 107.555C23.0077 108.256 22.1907 109.251 21.7083 110.416C21.2259 111.58 21.0997 112.862 21.3456 114.098C21.5916 115.335 22.1986 116.47 23.09 117.362C23.9814 118.253 25.1171 118.86 26.3535 119.106C27.5899 119.352 28.8715 119.226 30.0362 118.743C31.2008 118.261 32.1963 117.444 32.8966 116.396C33.597 115.348 33.9708 114.115 33.9708 112.855C33.9686 111.165 33.2964 109.545 32.1015 108.35C30.9067 107.155 29.2868 106.483 27.597 106.481ZM27.597 116.686C26.841 116.687 26.1014 116.465 25.4719 116.046C24.8423 115.627 24.351 115.032 24.0602 114.334C23.7694 113.636 23.692 112.867 23.8379 112.125C23.9838 111.384 24.3464 110.702 24.8798 110.166C25.4132 109.63 26.0936 109.265 26.8348 109.116C27.576 108.966 28.3447 109.04 29.0439 109.328C29.743 109.616 30.3411 110.105 30.7625 110.732C31.1839 111.36 31.4097 112.099 31.4113 112.855C31.4124 113.357 31.3146 113.854 31.1235 114.318C30.9324 114.782 30.6518 115.205 30.2976 115.56C29.9434 115.916 29.5226 116.198 29.0592 116.392C28.5959 116.585 28.099 116.685 27.597 116.686Z" fill="url(#paint9_linear_157_557)"/>
<path d="M51.6996 115.797L47.9601 106.481H45.2261V119.229H47.7606V112.855L50.3202 119.229H53.0542L55.6137 112.855V119.229H58.1566V106.481H55.4142L51.6996 115.797Z" fill="url(#paint10_linear_157_557)"/>
<path d="M72.9869 106.481H69.4219V119.229H71.9648V114.135H73.0035C73.9876 114.089 74.9162 113.665 75.5964 112.953C76.2766 112.24 76.6561 111.293 76.6561 110.308C76.6561 109.323 76.2766 108.375 75.5964 107.663C74.9162 106.95 73.9876 106.527 73.0035 106.481H72.9869ZM72.9869 111.575H71.9648V109.082H72.9869C73.1715 109.045 73.3619 109.049 73.5446 109.095C73.7272 109.14 73.8974 109.226 74.043 109.345C74.1887 109.464 74.306 109.614 74.3866 109.784C74.4671 109.954 74.5089 110.14 74.5089 110.329C74.5089 110.517 74.4671 110.703 74.3866 110.873C74.306 111.043 74.1887 111.193 74.043 111.312C73.8974 111.431 73.7272 111.517 73.5446 111.562C73.3619 111.608 73.1715 111.612 72.9869 111.575Z" fill="url(#paint11_linear_157_557)"/>
<path d="M91.0062 106.481L86.4023 119.229H89.1114L90.4078 115.664H94.3219L95.6183 119.229H98.319L93.7069 106.481H91.0062ZM91.3303 113.129L92.3524 110.254L93.3995 113.129H91.3303Z" fill="url(#paint12_linear_157_557)"/>
<path d="M119.855 106.481H117.312V114.99L112.218 106.481H109.243V119.229H111.777V110.736L116.896 119.229H119.855V106.481Z" fill="url(#paint13_linear_157_557)"/>
<path d="M136.646 119.229V113.154L139.978 106.481H137.136L135.383 110.013L133.621 106.481H130.779L134.111 113.154V119.229H136.646Z" fill="url(#paint14_linear_157_557)"/>
<path d="M0.00488281 125.415H1.48405V130.086H2.30674V125.415H3.78596V124.684H0.00488281V125.415Z" fill="url(#paint15_linear_157_557)"/>
<path d="M9.76099 124.684L7.7915 130.086H8.62251L9.03802 128.872H11.0823L11.4978 130.086H12.3288L10.3676 124.684H9.76099ZM9.31226 128.149L10.0934 125.789L10.8746 128.149H9.31226Z" fill="url(#paint16_linear_157_557)"/>
<path d="M19.1593 127.881H20.2562V128.205C20.2645 128.358 20.2407 128.511 20.1863 128.654C20.1319 128.797 20.0482 128.928 19.9404 129.036C19.8404 129.145 19.7181 129.231 19.5819 129.288C19.4457 129.346 19.2987 129.373 19.151 129.369C18.9766 129.373 18.8042 129.33 18.6524 129.244C18.5185 129.181 18.4016 129.087 18.3116 128.97C18.2035 128.842 18.1318 128.687 18.1039 128.521C18.0529 128.163 18.0335 127.802 18.0458 127.441C18.0336 127.077 18.053 126.713 18.1039 126.352C18.1318 126.187 18.2035 126.032 18.3116 125.903C18.4061 125.791 18.5219 125.697 18.6524 125.629C18.8079 125.554 18.9782 125.514 19.151 125.513C19.3911 125.513 19.6245 125.592 19.8158 125.737C19.9866 125.886 20.1131 126.078 20.1814 126.294H21.0124C20.9362 125.856 20.717 125.456 20.3892 125.156C20.0645 124.89 19.6653 124.732 19.2468 124.704C18.8284 124.676 18.4115 124.778 18.054 124.998C17.7925 125.164 17.5757 125.393 17.4225 125.662C17.3347 125.823 17.2756 125.997 17.248 126.178C17.1965 126.597 17.1771 127.019 17.1898 127.441C17.1774 127.857 17.1968 128.274 17.248 128.687C17.2614 128.786 17.2836 128.883 17.3145 128.978L17.4225 129.211C17.5734 129.482 17.7907 129.711 18.054 129.876C18.3449 130.068 18.6825 130.178 19.0309 130.194C19.3792 130.209 19.7254 130.13 20.0323 129.965C20.3393 129.799 20.5957 129.554 20.7741 129.254C20.9526 128.955 21.0465 128.612 21.0457 128.264V127.167H19.1261L19.1593 127.881Z" fill="url(#paint17_linear_157_557)"/>
<path d="M27.4008 124.684H26.5864V130.086H30.0351V129.313H27.4008V124.684Z" fill="url(#paint18_linear_157_557)"/>
<path d="M36.1664 124.684H35.3438V130.086H36.1664V124.684Z" fill="url(#paint19_linear_157_557)"/>
<path d="M45.0759 128.523H45.0593L42.6161 124.684H41.8433V130.086H42.666V126.246H42.6826L45.1174 130.086H45.8903V124.684H45.0759V128.523Z" fill="url(#paint20_linear_157_557)"/>
<path d="M51.5835 130.086H55.0321V129.313H52.4062V127.726H54.6499V126.994H52.4062V125.457H55.0321V124.684H51.5835V130.086Z" fill="url(#paint21_linear_157_557)"/>
<path d="M68.491 127.883H69.5962V128.207C69.6009 128.36 69.5746 128.513 69.5189 128.656C69.4632 128.798 69.3793 128.928 69.2721 129.038C69.1737 129.147 69.0529 129.233 68.918 129.29C68.7832 129.347 68.6374 129.375 68.491 129.37C68.3163 129.377 68.1434 129.334 67.9924 129.246C67.8563 129.186 67.7387 129.092 67.6516 128.972C67.5375 128.846 67.4625 128.69 67.4356 128.523C67.389 128.165 67.3696 127.804 67.3774 127.443C67.3697 127.079 67.3891 126.715 67.4356 126.354C67.4625 126.186 67.5375 126.031 67.6516 125.905C67.7443 125.79 67.8605 125.697 67.9924 125.631C68.1472 125.554 68.3179 125.514 68.491 125.515C68.7308 125.516 68.9638 125.595 69.1557 125.739C69.3241 125.888 69.4479 126.081 69.5131 126.296H70.3441C70.2606 125.86 70.0426 125.462 69.7209 125.157C69.3705 124.849 68.9159 124.685 68.4494 124.7C68.0721 124.685 67.6998 124.79 67.3857 124.999C67.1242 125.166 66.9074 125.394 66.7542 125.664C66.6633 125.824 66.6013 125.998 66.5713 126.179C66.5241 126.599 66.5047 127.021 66.5131 127.443C66.5051 127.859 66.5245 128.275 66.5713 128.689C66.5832 128.789 66.6084 128.887 66.6461 128.98C66.6461 129.055 66.7126 129.138 66.7542 129.213C66.9051 129.484 67.1224 129.713 67.3857 129.877C67.7594 130.114 68.202 130.219 68.6423 130.174C69.0825 130.128 69.4946 129.936 69.8123 129.628C69.9913 129.45 70.1328 129.237 70.2284 129.003C70.3241 128.769 70.3719 128.518 70.369 128.265V127.168H68.4494L68.491 127.883Z" fill="url(#paint22_linear_157_557)"/>
<path d="M79.3554 125.611C79.2088 125.342 78.9975 125.113 78.7404 124.946C78.4187 124.75 78.0493 124.647 77.6726 124.647C77.2959 124.647 76.9264 124.75 76.6047 124.946C76.3432 125.113 76.1263 125.341 75.9732 125.611C75.8822 125.771 75.8204 125.945 75.7904 126.126C75.7474 126.546 75.7307 126.968 75.7405 127.39C75.7311 127.806 75.7477 128.222 75.7904 128.636C75.8102 128.734 75.8351 128.831 75.8651 128.927L75.9732 129.16C76.1241 129.431 76.3414 129.66 76.6047 129.824C76.9248 130.025 77.2949 130.131 77.6726 130.131C78.0503 130.131 78.4204 130.025 78.7404 129.824C78.9991 129.659 79.2109 129.43 79.3554 129.16C79.4603 129.003 79.5258 128.823 79.5465 128.636C79.5891 128.222 79.6058 127.806 79.5963 127.39C79.6061 126.968 79.5894 126.546 79.5465 126.126C79.5214 125.943 79.4561 125.767 79.3554 125.611ZM78.7238 128.47C78.6903 128.637 78.6129 128.792 78.4995 128.919C78.417 129.037 78.3053 129.131 78.1753 129.193C78.0204 129.279 77.8455 129.322 77.6684 129.317C77.494 129.322 77.3217 129.279 77.1698 129.193C77.0359 129.13 76.9191 129.036 76.8291 128.919C76.7159 128.794 76.6435 128.637 76.6214 128.47C76.5704 128.112 76.5509 127.751 76.5632 127.39C76.551 127.026 76.5705 126.661 76.6214 126.301C76.6435 126.134 76.7159 125.977 76.8291 125.852C76.9236 125.739 77.0393 125.646 77.1698 125.578C77.3253 125.503 77.4957 125.463 77.6684 125.462C77.8439 125.463 78.0169 125.502 78.1753 125.578C78.3008 125.646 78.4111 125.74 78.4995 125.852C78.6129 125.979 78.6903 126.134 78.7238 126.301C78.7662 126.662 78.7828 127.026 78.7737 127.39C78.7829 127.75 78.7663 128.111 78.7238 128.47Z" fill="url(#paint23_linear_157_557)"/>
<path d="M85.104 130.086H88.5527V129.313H85.9184V127.726H88.1622V126.994H85.9184V125.457H88.5527V124.684H85.104V130.086Z" fill="url(#paint24_linear_157_557)"/>
<path d="M95.8695 127.01L95.2629 126.927C95.0457 126.902 94.8419 126.809 94.6811 126.661C94.6234 126.606 94.5773 126.54 94.5459 126.468C94.5144 126.395 94.4982 126.316 94.4983 126.237C94.4923 126.126 94.5135 126.015 94.5598 125.913C94.6061 125.812 94.6762 125.723 94.7642 125.655C94.9484 125.524 95.1701 125.457 95.3958 125.464C95.8723 125.472 96.3366 125.616 96.7337 125.879L97.1907 125.206C96.679 124.842 96.0657 124.647 95.4373 124.65C94.9658 124.622 94.5018 124.777 94.141 125.082C93.9876 125.228 93.8668 125.405 93.7866 125.601C93.7064 125.797 93.6686 126.008 93.6756 126.22C93.6658 126.591 93.7998 126.951 94.0496 127.226C94.3313 127.514 94.7042 127.696 95.105 127.741L95.8196 127.841C96.2933 127.924 96.5343 128.165 96.526 128.564C96.5176 128.962 96.1603 129.303 95.4623 129.32C94.9028 129.323 94.3594 129.132 93.9249 128.78L93.3848 129.395C93.961 129.886 94.6971 130.149 95.454 130.134C96.6894 130.134 97.3209 129.611 97.3486 128.564C97.3549 128.196 97.228 127.839 96.9913 127.558C96.6993 127.241 96.2989 127.045 95.8695 127.01Z" fill="url(#paint25_linear_157_557)"/>
<path d="M112.096 126.994H109.96V124.684H109.138V130.086H109.96V127.726H112.096V130.086H112.91V124.684H112.096V126.994Z" fill="url(#paint26_linear_157_557)"/>
<path d="M118.604 130.086H122.053V129.313H119.427V127.726H121.671V126.994H119.427V125.457H122.053V124.684H118.604V130.086Z" fill="url(#paint27_linear_157_557)"/>
<path d="M131.115 126.189C131.122 125.97 131.078 125.752 130.985 125.552C130.893 125.353 130.755 125.179 130.583 125.042C130.27 124.794 129.877 124.667 129.478 124.685H127.392V130.087H128.223V127.776H129.27L130.384 130.087H131.356L130.11 127.685C130.418 127.58 130.683 127.377 130.865 127.107C131.046 126.836 131.134 126.514 131.115 126.189ZM128.19 127.02V125.358H129.478C129.691 125.342 129.902 125.401 130.076 125.524C130.168 125.595 130.24 125.688 130.287 125.794C130.333 125.9 130.352 126.016 130.342 126.131C130.346 126.241 130.328 126.35 130.29 126.453C130.251 126.555 130.193 126.649 130.118 126.729C130.027 126.819 129.919 126.889 129.801 126.934C129.682 126.98 129.555 127.001 129.428 126.995L128.19 127.02Z" fill="url(#paint28_linear_157_557)"/>
<path d="M136.551 130.086H140V129.313H137.374V127.726H139.618V126.994H137.374V125.457H140V124.684H136.551V130.086Z" fill="url(#paint29_linear_157_557)"/>
<defs>
<linearGradient id="paint0_linear_157_557" x1="4.61816" y1="64.4752" x2="42.0053" y2="64.4752" gradientUnits="userSpaceOnUse">
<stop/>
<stop offset="0.33"/>
<stop offset="0.52"/>
<stop offset="0.73"/>
<stop offset="1"/>
</linearGradient>
<linearGradient id="paint1_linear_157_557" x1="31.9873" y1="64.4752" x2="69.3744" y2="64.4752" gradientUnits="userSpaceOnUse">
<stop/>
<stop offset="0.33"/>
<stop offset="0.52"/>
<stop offset="0.73"/>
<stop offset="1"/>
</linearGradient>
<linearGradient id="paint2_linear_157_557" x1="45.6621" y1="64.4752" x2="83.0492" y2="64.4752" gradientUnits="userSpaceOnUse">
<stop/>
<stop offset="0.33"/>
<stop offset="0.52"/>
<stop offset="0.73"/>
<stop offset="1"/>
</linearGradient>
<linearGradient id="paint3_linear_157_557" x1="62.5508" y1="24.8058" x2="94.3618" y2="24.8058" gradientUnits="userSpaceOnUse">
<stop/>
<stop offset="0.33"/>
<stop offset="0.52"/>
<stop offset="0.73"/>
<stop offset="1"/>
</linearGradient>
<linearGradient id="paint4_linear_157_557" x1="18.2925" y1="64.4752" x2="55.6796" y2="64.4752" gradientUnits="userSpaceOnUse">
<stop/>
<stop offset="0.33"/>
<stop offset="0.52"/>
<stop offset="0.73"/>
<stop offset="1"/>
</linearGradient>
<linearGradient id="paint5_linear_157_557" x1="69.3882" y1="30.7309" x2="108.038" y2="30.7309" gradientUnits="userSpaceOnUse">
<stop/>
<stop offset="0.33"/>
<stop offset="0.52"/>
<stop offset="0.73"/>
<stop offset="1"/>
</linearGradient>
<linearGradient id="paint6_linear_157_557" x1="76.2256" y1="36.656" x2="121.715" y2="36.656" gradientUnits="userSpaceOnUse">
<stop/>
<stop offset="0.33"/>
<stop offset="0.52"/>
<stop offset="0.73"/>
<stop offset="1"/>
</linearGradient>
<linearGradient id="paint7_linear_157_557" x1="83.063" y1="42.5811" x2="135.392" y2="42.5811" gradientUnits="userSpaceOnUse">
<stop/>
<stop offset="0.33"/>
<stop offset="0.52"/>
<stop offset="0.73"/>
<stop offset="1"/>
</linearGradient>
<linearGradient id="paint8_linear_157_557" x1="0.0280025" y1="112.857" x2="10.7979" y2="112.857" gradientUnits="userSpaceOnUse">
<stop/>
<stop offset="0.33"/>
<stop offset="0.52"/>
<stop offset="0.73"/>
<stop offset="1"/>
</linearGradient>
<linearGradient id="paint9_linear_157_557" x1="21.2231" y1="112.855" x2="33.9708" y2="112.855" gradientUnits="userSpaceOnUse">
<stop/>
<stop offset="0.33"/>
<stop offset="0.52"/>
<stop offset="0.73"/>
<stop offset="1"/>
</linearGradient>
<linearGradient id="paint10_linear_157_557" x1="45.2261" y1="112.855" x2="58.1566" y2="112.855" gradientUnits="userSpaceOnUse">
<stop/>
<stop offset="0.33"/>
<stop offset="0.52"/>
<stop offset="0.73"/>
<stop offset="1"/>
</linearGradient>
<linearGradient id="paint11_linear_157_557" x1="69.4219" y1="112.855" x2="76.8096" y2="112.855" gradientUnits="userSpaceOnUse">
<stop/>
<stop offset="0.33"/>
<stop offset="0.52"/>
<stop offset="0.73"/>
<stop offset="1"/>
</linearGradient>
<linearGradient id="paint12_linear_157_557" x1="86.4023" y1="112.855" x2="98.3273" y2="112.855" gradientUnits="userSpaceOnUse">
<stop/>
<stop offset="0.33"/>
<stop offset="0.52"/>
<stop offset="0.73"/>
<stop offset="1"/>
</linearGradient>
<linearGradient id="paint13_linear_157_557" x1="109.243" y1="112.855" x2="119.855" y2="112.855" gradientUnits="userSpaceOnUse">
<stop/>
<stop offset="0.33"/>
<stop offset="0.52"/>
<stop offset="0.73"/>
<stop offset="1"/>
</linearGradient>
<linearGradient id="paint14_linear_157_557" x1="130.779" y1="112.855" x2="139.978" y2="112.855" gradientUnits="userSpaceOnUse">
<stop/>
<stop offset="0.33"/>
<stop offset="0.52"/>
<stop offset="0.73"/>
<stop offset="1"/>
</linearGradient>
<linearGradient id="paint15_linear_157_557" x1="0.00488281" y1="127.385" x2="3.78596" y2="127.385" gradientUnits="userSpaceOnUse">
<stop/>
<stop offset="0.33"/>
<stop offset="0.52"/>
<stop offset="0.73"/>
<stop offset="1"/>
</linearGradient>
<linearGradient id="paint16_linear_157_557" x1="7.7915" y1="127.385" x2="12.4036" y2="127.385" gradientUnits="userSpaceOnUse">
<stop/>
<stop offset="0.33"/>
<stop offset="0.52"/>
<stop offset="0.73"/>
<stop offset="1"/>
</linearGradient>
<linearGradient id="paint17_linear_157_557" x1="17.223" y1="127.383" x2="21.0789" y2="127.383" gradientUnits="userSpaceOnUse">
<stop/>
<stop offset="0.33"/>
<stop offset="0.52"/>
<stop offset="0.73"/>
<stop offset="1"/>
</linearGradient>
<linearGradient id="paint18_linear_157_557" x1="26.5864" y1="127.385" x2="30.0351" y2="127.385" gradientUnits="userSpaceOnUse">
<stop/>
<stop offset="0.33"/>
<stop offset="0.52"/>
<stop offset="0.73"/>
<stop offset="1"/>
</linearGradient>
<linearGradient id="paint19_linear_157_557" x1="35.3438" y1="127.385" x2="36.1664" y2="127.385" gradientUnits="userSpaceOnUse">
<stop/>
<stop offset="0.33"/>
<stop offset="0.52"/>
<stop offset="0.73"/>
<stop offset="1"/>
</linearGradient>
<linearGradient id="paint20_linear_157_557" x1="41.8433" y1="127.385" x2="45.8903" y2="127.385" gradientUnits="userSpaceOnUse">
<stop/>
<stop offset="0.33"/>
<stop offset="0.52"/>
<stop offset="0.73"/>
<stop offset="1"/>
</linearGradient>
<linearGradient id="paint21_linear_157_557" x1="51.5835" y1="127.385" x2="55.0321" y2="127.385" gradientUnits="userSpaceOnUse">
<stop/>
<stop offset="0.33"/>
<stop offset="0.52"/>
<stop offset="0.73"/>
<stop offset="1"/>
</linearGradient>
<linearGradient id="paint22_linear_157_557" x1="66.5547" y1="127.384" x2="70.4106" y2="127.384" gradientUnits="userSpaceOnUse">
<stop/>
<stop offset="0.33"/>
<stop offset="0.52"/>
<stop offset="0.73"/>
<stop offset="1"/>
</linearGradient>
<linearGradient id="paint23_linear_157_557" x1="75.7405" y1="127.39" x2="79.5963" y2="127.39" gradientUnits="userSpaceOnUse">
<stop/>
<stop offset="0.33"/>
<stop offset="0.52"/>
<stop offset="0.73"/>
<stop offset="1"/>
</linearGradient>
<linearGradient id="paint24_linear_157_557" x1="85.104" y1="127.385" x2="88.5527" y2="127.385" gradientUnits="userSpaceOnUse">
<stop/>
<stop offset="0.33"/>
<stop offset="0.52"/>
<stop offset="0.73"/>
<stop offset="1"/>
</linearGradient>
<linearGradient id="paint25_linear_157_557" x1="93.3848" y1="127.392" x2="97.3486" y2="127.392" gradientUnits="userSpaceOnUse">
<stop/>
<stop offset="0.33"/>
<stop offset="0.52"/>
<stop offset="0.73"/>
<stop offset="1"/>
</linearGradient>
<linearGradient id="paint26_linear_157_557" x1="109.138" y1="127.385" x2="112.91" y2="127.385" gradientUnits="userSpaceOnUse">
<stop/>
<stop offset="0.33"/>
<stop offset="0.52"/>
<stop offset="0.73"/>
<stop offset="1"/>
</linearGradient>
<linearGradient id="paint27_linear_157_557" x1="118.604" y1="127.385" x2="122.053" y2="127.385" gradientUnits="userSpaceOnUse">
<stop/>
<stop offset="0.33"/>
<stop offset="0.52"/>
<stop offset="0.73"/>
<stop offset="1"/>
</linearGradient>
<linearGradient id="paint28_linear_157_557" x1="127.375" y1="127.386" x2="131.323" y2="127.386" gradientUnits="userSpaceOnUse">
<stop/>
<stop offset="0.33"/>
<stop offset="0.52"/>
<stop offset="0.73"/>
<stop offset="1"/>
</linearGradient>
<linearGradient id="paint29_linear_157_557" x1="136.551" y1="127.385" x2="140" y2="127.385" gradientUnits="userSpaceOnUse">
<stop/>
<stop offset="0.33"/>
<stop offset="0.52"/>
<stop offset="0.73"/>
<stop offset="1"/>
</linearGradient>
</defs>
</svg>
