<svg width="140" height="147" viewBox="0 0 140 147" fill="none" xmlns="http://www.w3.org/2000/svg">
<path d="M6.42258 135.46C8.05962 135.464 9.63439 134.833 10.8154 133.699L9.01748 131.901C8.56083 132.327 8.00689 132.635 7.40398 132.798C6.80108 132.96 6.16752 132.973 5.55856 132.835C4.94961 132.696 4.38376 132.411 3.91038 132.004C3.437 131.596 3.07047 131.08 2.84276 130.498C2.61504 129.917 2.53307 129.288 2.60398 128.668C2.67489 128.047 2.89654 127.454 3.24958 126.939C3.60262 126.423 4.07634 126.003 4.62942 125.713C5.18249 125.423 5.79811 125.272 6.42258 125.275C7.38582 125.272 8.31394 125.636 9.01748 126.294L10.8154 124.441C10.0584 123.734 9.14031 123.222 8.14075 122.95C7.1412 122.678 6.09039 122.654 5.07946 122.88C4.06854 123.106 3.12805 123.576 2.3396 124.247C1.55114 124.919 0.938536 125.773 0.55493 126.736C0.171323 127.698 0.028302 128.739 0.138277 129.769C0.248253 130.799 0.607899 131.787 1.18602 132.647C1.76414 133.506 2.54326 134.212 3.4558 134.702C4.36833 135.192 5.38671 135.452 6.42258 135.46Z" fill="url(#paint0_linear_157_532)"/>
<path d="M33.9486 129.078C33.9504 127.816 33.5778 126.582 32.8779 125.532C32.178 124.482 31.1823 123.663 30.0168 123.18C28.8514 122.696 27.5686 122.569 26.3309 122.814C25.0932 123.06 23.9563 123.668 23.064 124.56C22.1718 125.452 21.5643 126.589 21.3186 127.827C21.0729 129.064 21.1999 130.347 21.6837 131.513C22.1674 132.678 22.9861 133.674 24.036 134.374C25.086 135.074 26.32 135.446 27.5818 135.444C29.2696 135.442 30.8876 134.77 32.0811 133.577C33.2746 132.383 33.9461 130.766 33.9486 129.078ZM27.5818 132.905C26.8244 132.907 26.0835 132.684 25.4529 132.265C24.8222 131.845 24.3302 131.248 24.0391 130.549C23.748 129.85 23.6709 129.08 23.8175 128.337C23.9641 127.594 24.3279 126.911 24.8628 126.375C25.3978 125.838 26.0797 125.473 26.8224 125.324C27.5651 125.176 28.3352 125.251 29.0351 125.541C29.735 125.83 30.3333 126.321 30.7543 126.95C31.1753 127.58 31.4 128.32 31.4 129.078C31.4 130.091 30.9981 131.063 30.2823 131.781C29.5665 132.498 28.5953 132.903 27.5818 132.905Z" fill="url(#paint1_linear_157_532)"/>
<path d="M58.1508 135.451V122.708H55.4169L51.7006 132.022L47.9658 122.708H45.2227V135.451H47.7619V129.084L50.3198 135.451H53.0629L55.6115 129.084V135.451H58.1508Z" fill="url(#paint2_linear_157_532)"/>
<path d="M71.9695 130.363H73.0074C74.0225 130.363 74.9961 129.96 75.7139 129.242C76.4317 128.524 76.8349 127.551 76.8349 126.535C76.8349 125.52 76.4317 124.547 75.7139 123.829C74.9961 123.111 74.0225 122.708 73.0074 122.708H69.4487V135.451H71.988L71.9695 130.363ZM71.9695 125.266H72.9982C73.3349 125.266 73.6578 125.4 73.8959 125.638C74.1341 125.876 74.2678 126.199 74.2678 126.535C74.2678 126.872 74.1341 127.195 73.8959 127.433C73.6578 127.671 73.3349 127.805 72.9982 127.805H71.9695V125.266Z" fill="url(#paint3_linear_157_532)"/>
<path d="M93.7087 122.708H91.0026L86.3689 135.451H89.075L90.3725 131.892H94.2833L95.5808 135.451H98.2869L93.7087 122.708ZM91.3177 129.334L92.3464 126.461L93.3937 129.334H91.3177Z" fill="url(#paint4_linear_157_532)"/>
<path d="M119.853 135.451V122.708H117.314V131.216L112.217 122.708H109.242V135.451H111.781V126.962L116.888 135.451H119.853Z" fill="url(#paint5_linear_157_532)"/>
<path d="M133.622 122.708H130.777L134.104 129.381V135.451H136.643V129.381L139.98 122.708H137.135L135.383 126.239L133.622 122.708Z" fill="url(#paint6_linear_157_532)"/>
<path d="M1.4828 146.313H2.3076V141.643H3.78114V140.92H0V141.643H1.4828V146.313Z" fill="url(#paint7_linear_157_532)"/>
<path d="M9.7545 140.92L7.78979 146.313H8.66094L9.06871 145.109H11.1168L11.5431 146.313H12.405L10.4403 140.92H9.7545ZM9.30966 144.386L10.0881 142.023L10.8666 144.386H9.30966Z" fill="url(#paint8_linear_157_532)"/>
<path d="M18.2833 142.077C18.3786 141.966 18.4951 141.874 18.6262 141.809C18.7819 141.732 18.9529 141.691 19.1266 141.688C19.3685 141.689 19.6032 141.771 19.7939 141.92C19.9653 142.063 20.091 142.253 20.1553 142.467H21.0172C20.9413 142.031 20.7229 141.634 20.3963 141.336C20.0734 141.067 19.6736 140.906 19.2541 140.878C18.8347 140.85 18.417 140.955 18.0609 141.178C17.7982 141.344 17.5815 141.574 17.4307 141.846C17.3388 142.002 17.279 142.175 17.2546 142.355C17.1804 143.191 17.1804 144.031 17.2546 144.867C17.2647 144.966 17.2897 145.063 17.3287 145.154C17.3588 145.233 17.3928 145.31 17.4307 145.386C17.5815 145.658 17.7982 145.887 18.0609 146.053C18.3517 146.246 18.6896 146.356 19.0383 146.372C19.387 146.388 19.7335 146.309 20.0408 146.144C20.3482 145.978 20.6048 145.732 20.7832 145.432C20.9617 145.132 21.0554 144.79 21.0543 144.441V143.338H19.1359V144.116H20.2295V144.394C20.2344 144.546 20.2091 144.697 20.155 144.838C20.1009 144.98 20.0191 145.109 19.9144 145.219C19.7485 145.384 19.5346 145.493 19.3033 145.53C19.072 145.566 18.835 145.529 18.6262 145.423C18.4947 145.354 18.3782 145.259 18.2833 145.145C18.1702 145.018 18.099 144.859 18.0794 144.691C18.0224 144.335 18.0007 143.975 18.0145 143.616C18.0012 143.253 18.023 142.89 18.0794 142.531C18.1047 142.364 18.1752 142.207 18.2833 142.077Z" fill="url(#paint9_linear_157_532)"/>
<path d="M26.5627 140.92V146.313H30.0102V145.544H27.3783V140.92H26.5627Z" fill="url(#paint10_linear_157_532)"/>
<path d="M36.1551 140.92H35.3396V146.323H36.1551V140.92Z" fill="url(#paint11_linear_157_532)"/>
<path d="M45.0676 144.756H45.0583L42.6117 140.92H41.8425V146.313H42.6581V142.477H42.6766L45.114 146.313H45.8831V140.92H45.0676V144.756Z" fill="url(#paint12_linear_157_532)"/>
<path d="M55.031 141.689V140.92H51.5835V146.313H55.031V145.544H52.399V143.959H54.6418V143.227H52.399V141.689H55.031Z" fill="url(#paint13_linear_157_532)"/>
<path d="M67.4114 141.178C67.1488 141.344 66.9321 141.574 66.7813 141.846C66.6894 142.002 66.6296 142.175 66.6052 142.355C66.531 143.191 66.531 144.031 66.6052 144.867C66.6153 144.966 66.6403 145.063 66.6793 145.154C66.7094 145.233 66.7434 145.31 66.7813 145.386C66.9321 145.658 67.1488 145.887 67.4114 146.053C67.7023 146.246 68.0401 146.356 68.3889 146.372C68.7376 146.388 69.0841 146.309 69.3914 146.144C69.6987 145.978 69.9553 145.732 70.1338 145.432C70.3123 145.132 70.406 144.79 70.4048 144.441V143.338H68.5143V144.116H69.6078V144.394C69.6128 144.546 69.5875 144.697 69.5334 144.838C69.4793 144.98 69.3975 145.109 69.2927 145.219C69.1268 145.384 68.913 145.493 68.6817 145.53C68.4504 145.566 68.2134 145.529 68.0046 145.423C67.8742 145.356 67.7602 145.261 67.6709 145.145C67.555 145.019 67.4805 144.86 67.4578 144.691C67.4057 144.335 67.384 143.975 67.3929 143.616C67.3845 143.253 67.4062 142.89 67.4578 142.531C67.4857 142.363 67.5595 142.206 67.6709 142.077C67.7596 141.963 67.8739 141.871 68.0046 141.809C68.1603 141.732 68.3313 141.691 68.505 141.688C68.7469 141.689 68.9816 141.771 69.1723 141.92C69.3437 142.063 69.4693 142.253 69.5337 142.467H70.3678C70.2848 142.032 70.0638 141.635 69.7376 141.336C69.4147 141.067 69.0149 140.906 68.5955 140.878C68.176 140.85 67.7583 140.955 67.4022 141.178H67.4114Z" fill="url(#paint14_linear_157_532)"/>
<path d="M79.3387 145.387C79.4354 145.228 79.4985 145.052 79.524 144.868C79.5858 144.032 79.5858 143.192 79.524 142.356C79.497 142.176 79.434 142.002 79.3387 141.847C79.1905 141.576 78.977 141.347 78.7178 141.179C78.401 140.966 78.0245 140.859 77.6427 140.873C77.2669 140.86 76.8967 140.967 76.5862 141.179C76.3217 141.343 76.1045 141.573 75.956 141.847C75.8607 142.002 75.7977 142.176 75.7707 142.356C75.6966 143.192 75.6966 144.032 75.7707 144.868C75.7853 144.966 75.8101 145.062 75.8448 145.155C75.8448 145.229 75.9097 145.313 75.956 145.387C76.1045 145.66 76.3217 145.89 76.5862 146.054C76.8993 146.26 77.2677 146.367 77.6427 146.36C78.0152 146.368 78.382 146.268 78.6992 146.072C78.9676 145.902 79.1878 145.666 79.3387 145.387ZM78.4768 145.146C78.3918 145.262 78.2807 145.358 78.1524 145.424C77.9948 145.505 77.8199 145.546 77.6427 145.544C77.4716 145.545 77.3028 145.504 77.1516 145.424C77.0185 145.357 76.9015 145.262 76.8087 145.146C76.6972 145.017 76.6235 144.86 76.5955 144.692C76.548 144.335 76.5294 143.976 76.5399 143.617C76.5299 143.254 76.5485 142.892 76.5955 142.532C76.6261 142.365 76.6995 142.209 76.8087 142.078C76.902 141.965 77.0191 141.873 77.1516 141.809C77.3045 141.734 77.4722 141.693 77.6427 141.689C77.8194 141.692 77.9933 141.733 78.1524 141.809C78.2813 141.87 78.3929 141.963 78.4768 142.078C78.5916 142.206 78.6686 142.363 78.6992 142.532C78.7462 142.892 78.7648 143.254 78.7548 143.617C78.7653 143.976 78.7467 144.335 78.6992 144.692C78.6733 144.862 78.5956 145.021 78.4768 145.146Z" fill="url(#paint15_linear_157_532)"/>
<path d="M88.5354 141.689V140.92H85.0786V146.313H88.5354V145.544H85.9034V143.959H88.1461V143.227H85.9034V141.689H88.5354Z" fill="url(#paint16_linear_157_532)"/>
<path d="M95.4595 145.545C94.9001 145.548 94.3566 145.358 93.9211 145.007L93.3835 145.619C93.9555 146.116 94.6929 146.38 95.4502 146.36C96.6828 146.36 97.3037 145.823 97.3037 144.794C97.3135 144.426 97.1882 144.067 96.9515 143.784C96.6602 143.467 96.2596 143.271 95.8302 143.237L95.2185 143.154C94.9998 143.13 94.7948 143.036 94.6347 142.885C94.579 142.831 94.5348 142.766 94.5045 142.694C94.4743 142.623 94.4587 142.546 94.4586 142.468C94.4523 142.356 94.4735 142.245 94.5203 142.143C94.5672 142.041 94.6382 141.952 94.7273 141.884C94.9094 141.75 95.1315 141.681 95.3575 141.69C95.8333 141.697 96.2968 141.842 96.692 142.107L97.1461 141.43C96.6365 141.063 96.0228 140.868 95.3946 140.874C94.9255 140.851 94.4651 141.007 94.1064 141.31C93.9494 141.454 93.8258 141.631 93.7441 141.827C93.6625 142.024 93.6248 142.237 93.6338 142.45C93.6242 142.818 93.7569 143.177 94.0045 143.45C94.2933 143.735 94.6677 143.918 95.0702 143.969L95.7838 144.062C96.2565 144.146 96.4882 144.386 96.4882 144.794C96.4882 145.202 96.1545 145.536 95.4595 145.545Z" fill="url(#paint17_linear_157_532)"/>
<path d="M112.917 146.313V140.92H112.092V143.227H109.961V140.92H109.136V146.313H109.961V143.959H112.092V146.313H112.917Z" fill="url(#paint18_linear_157_532)"/>
<path d="M122.053 141.689V140.92H118.606V146.313H122.053V145.544H119.421V143.959H121.664V143.227H119.421V141.689H122.053Z" fill="url(#paint19_linear_157_532)"/>
<path d="M128.187 144.006H129.225L130.346 146.314H131.319L130.068 143.923C130.381 143.82 130.652 143.618 130.839 143.346C131.027 143.075 131.12 142.751 131.106 142.421C131.114 142.201 131.069 141.982 130.976 141.782C130.882 141.582 130.743 141.407 130.568 141.272C130.259 141.024 129.87 140.899 129.475 140.92H127.362V146.314H128.187V144.006ZM128.187 141.643H129.466C129.68 141.627 129.893 141.686 130.068 141.81C130.158 141.883 130.229 141.977 130.276 142.083C130.323 142.189 130.344 142.305 130.337 142.421C130.341 142.531 130.323 142.64 130.283 142.742C130.243 142.844 130.182 142.937 130.105 143.014C130.015 143.104 129.908 143.174 129.79 143.22C129.672 143.266 129.546 143.288 129.419 143.283H128.187V141.643Z" fill="url(#paint20_linear_157_532)"/>
<path d="M140 141.689V140.92H136.552V146.313H140V145.544H137.368V143.959H139.611V143.227H137.368V141.689H140Z" fill="url(#paint21_linear_157_532)"/>
<path d="M17.794 44.7433V44.8545C17.794 44.9472 17.794 45.0399 17.794 45.1233V45.1789C17.7894 45.2344 17.7894 45.2902 17.794 45.3457V45.4847V45.5496V45.633C17.794 45.7998 17.7476 45.9759 17.7291 46.152L17.6735 46.6339V46.81L17.6179 47.3845C17.6179 47.5236 17.6179 47.6718 17.5716 47.8109V47.9684C17.5716 48.024 17.5716 48.0889 17.5716 48.1445C17.5716 48.2001 17.5716 48.265 17.5716 48.3206C17.567 48.3513 17.567 48.3825 17.5716 48.4132C17.5716 48.4132 17.5716 48.5059 17.5716 48.5522V48.8025C17.5716 48.9971 17.5716 49.201 17.5716 49.4419C17.5716 49.5439 17.5716 49.6458 17.5716 49.7478C17.5716 49.8497 17.5716 49.9516 17.5716 50.0629C17.5755 50.0874 17.5755 50.1124 17.5716 50.137C17.5716 50.2575 17.5716 50.3779 17.5716 50.4984C17.5667 50.5477 17.5667 50.5974 17.5716 50.6467C17.5716 50.8599 17.5716 51.0637 17.5716 51.2676V51.4437C17.5716 51.6105 17.5716 51.7773 17.5716 51.9534V52.0924V52.2685C17.5666 52.3209 17.5666 52.3737 17.5716 52.4261V52.6392C17.5671 52.6916 17.5671 52.7443 17.5716 52.7968V53.3992C17.7248 63.3915 21.8009 72.9228 28.92 79.9362C36.0391 86.9496 45.6304 90.8825 55.6239 90.8862C57.2132 90.8855 58.801 90.7865 60.3781 90.5896C61.0917 90.497 61.796 90.395 62.5004 90.2653C57.2575 87.0976 52.7417 82.8597 49.2479 77.8283C47.9677 76.0053 46.8335 74.0841 45.856 72.0824C45.6335 71.6376 45.4297 71.1557 45.2258 70.7294C45.1975 70.685 45.1727 70.6386 45.1516 70.5904C42.1041 63.7113 40.8801 56.1632 41.5976 48.6736C42.315 41.184 44.9498 34.0055 49.2479 27.8301C50.3057 26.1473 51.4793 24.5401 52.7602 23.0203C57.2682 18.1544 62.828 14.3824 69.0154 11.992C70.892 11.2622 72.8184 10.6676 74.7798 10.2126C85.7705 7.63511 97.3319 9.39437 107.058 15.1244L106.873 14.939L106.623 14.6981L106.54 14.6239L106.308 14.4108L106.058 14.1791L105.78 13.9196L105.659 13.8084L105.594 13.762L105.196 13.3913L104.742 13.0021L104.603 12.8816L104.297 12.6221L104.093 12.4461L103.982 12.3534L103.898 12.2792L103.537 11.992L103.268 11.7788L102.341 11.093L102.1 10.9077L101.998 10.8335L101.943 10.7872H101.887L101.72 10.6574H101.665L101.433 10.4906H101.359C101.32 10.4546 101.276 10.4235 101.229 10.3979L101.146 10.3331L100.877 10.1477H100.812L100.145 9.68435L99.8391 9.48046L99.7742 9.43412L99.3201 9.13756L99.2275 9.07269L98.9031 8.8688L98.4212 8.56298L97.9207 8.25715L97.652 8.0996L97.5222 8.02546L97.374 7.93279L97.2813 7.87718L96.9106 7.6733L96.8272 7.61769L96.6974 7.54355L96.3638 7.34893C95.6224 6.93189 94.8532 6.53339 94.084 6.15342H94.0377L93.528 5.9032L93.0738 5.69005C92.5363 5.43983 92.0452 5.21741 91.5725 5.02279L91.2296 4.87451H91.174L90.9701 4.79111L90.7477 4.69843H90.6458L88.5606 3.35464L88.3289 3.26197L88.0879 3.16929C87.4485 2.93761 86.7719 2.70592 86.1047 2.49276H86.0491L85.6691 2.37229L85.2706 2.25181L85.0389 2.17767L84.1956 1.93671H84.0844H83.9083H83.8527C83.3059 1.78843 82.7313 1.65868 82.166 1.51967L81.1651 1.29725C80.5905 1.17678 80.0252 1.0563 79.4599 0.954361L78.8204 0.843148L78.0605 0.57439H77.7825L77.4118 0.518787C76.7939 0.43229 76.1761 0.358145 75.5583 0.296362C74.372 0.175885 73.1858 0.0924801 71.9903 0.0461426C71.3323 0.0461426 70.6651 0.0461426 69.9978 0.0461426C68.8857 0.0461426 67.7643 0.0461451 66.6429 0.157355H66.2908C65.0582 0.240763 63.8256 0.370504 62.5838 0.537319L61.9258 0.639262L17.8032 44.7248L17.794 44.7433Z" fill="url(#paint22_linear_157_532)"/>
<path d="M122.266 60.8126V60.7292C122.271 60.6551 122.271 60.5808 122.266 60.5068V60.4234C122.266 60.3307 122.266 60.2287 122.266 60.1361V60.0063C122.266 60.0063 122.266 59.9414 122.266 59.9136V59.58V59.3576C122.266 59.1352 122.312 58.9313 122.34 58.7274L122.396 58.1621C122.396 58.0045 122.396 57.8563 122.442 57.708V57.569C122.451 57.4672 122.451 57.3649 122.442 57.2631V57.1056V56.7071V56.6515C122.442 56.4569 122.442 56.253 122.489 56.0213C122.489 55.8082 122.489 55.6043 122.489 55.4096V55.1872C122.489 55.0204 122.489 54.8443 122.489 54.6775C122.489 54.5107 122.489 54.2234 122.489 54.0103V53.1947C122.489 53.065 122.489 52.926 122.489 52.7869C122.489 52.6479 122.489 52.4997 122.489 52.3606V52.2309C122.354 42.2325 118.284 32.69 111.161 25.6726C104.038 18.6551 94.4355 14.7284 84.4362 14.7439C82.1304 14.7419 79.829 14.9466 77.5598 15.3556C86.7445 21.6304 93.195 31.1675 95.5999 42.0279C98.0049 52.8883 96.1838 64.257 90.5068 73.8229C84.8299 83.3887 75.7232 90.4337 65.038 93.5256C54.3529 96.6176 42.8912 95.5245 32.9832 90.4685C33.0125 90.5041 33.0468 90.5354 33.0851 90.5612L33.187 90.6631C33.2689 90.7512 33.3555 90.8347 33.4465 90.9134L33.9192 91.3675C34.0204 91.4765 34.1287 91.5787 34.2435 91.6733L34.8274 92.2015L35.2166 92.5444L35.3 92.6186L35.6707 92.9429L35.7541 93.0078L36.06 93.258L36.3565 93.5083L36.5882 93.6936C36.8755 93.9253 37.1628 94.157 37.4593 94.3794L37.654 94.5277L37.8671 94.6945L37.9876 94.7779L38.0617 94.8335L38.4139 95.093L38.5251 95.1764L38.7105 95.3062L38.97 95.5008L39.0719 95.5656L39.7299 96.029L40.0264 96.2236L40.1006 96.27L40.3415 96.4368L40.601 96.6129L41.0088 96.8724L41.4166 97.1318H41.7502L42.3526 97.7064L42.6306 97.8732L43.1867 98.1883L43.6222 98.4293C44.4131 98.8741 45.2008 99.2912 45.9854 99.6804L46.5044 99.9399H46.5878L47.079 100.172C47.5702 100.403 48.0799 100.635 48.5803 100.848L48.9603 101.006L49.0808 101.052L49.572 101.256C49.9797 101.423 50.4246 101.599 50.8787 101.766L51.3142 101.923C51.9815 102.173 52.6488 102.396 53.2975 102.6L53.6867 102.729L54.2798 102.905L54.4467 102.961L55.1417 103.156L55.5124 103.258C56.9674 103.647 58.4409 103.971 59.9052 104.184L60.5076 104.296C60.7393 104.296 60.9339 104.37 61.1193 104.388H62.0275L62.6391 104.481C67.5573 105.177 72.549 105.177 77.4671 104.481H77.5227C77.7173 104.481 77.9119 104.435 78.0973 104.398H78.1529L122.285 60.2658C122.357 60.2683 122.426 60.2994 122.475 60.3524C122.525 60.4054 122.551 60.476 122.549 60.5485C122.546 60.621 122.515 60.6895 122.462 60.7391C122.409 60.7886 122.339 60.815 122.266 60.8126Z" fill="url(#paint23_linear_157_532)"/>
<defs>
<linearGradient id="paint0_linear_157_532" x1="0.0280145" y1="129.093" x2="10.7876" y2="129.093" gradientUnits="userSpaceOnUse">
<stop/>
<stop offset="0.33"/>
<stop offset="0.52"/>
<stop offset="0.73"/>
<stop offset="1"/>
</linearGradient>
<linearGradient id="paint1_linear_157_532" x1="21.2058" y1="129.078" x2="33.9486" y2="129.078" gradientUnits="userSpaceOnUse">
<stop/>
<stop offset="0.33"/>
<stop offset="0.52"/>
<stop offset="0.73"/>
<stop offset="1"/>
</linearGradient>
<linearGradient id="paint2_linear_157_532" x1="45.2227" y1="129.084" x2="58.1508" y2="129.084" gradientUnits="userSpaceOnUse">
<stop/>
<stop offset="0.33"/>
<stop offset="0.52"/>
<stop offset="0.73"/>
<stop offset="1"/>
</linearGradient>
<linearGradient id="paint3_linear_157_532" x1="69.4302" y1="129.084" x2="76.8164" y2="129.084" gradientUnits="userSpaceOnUse">
<stop/>
<stop offset="0.33"/>
<stop offset="0.52"/>
<stop offset="0.73"/>
<stop offset="1"/>
</linearGradient>
<linearGradient id="paint4_linear_157_532" x1="86.3967" y1="129.084" x2="98.3147" y2="129.084" gradientUnits="userSpaceOnUse">
<stop/>
<stop offset="0.33"/>
<stop offset="0.52"/>
<stop offset="0.73"/>
<stop offset="1"/>
</linearGradient>
<linearGradient id="paint5_linear_157_532" x1="109.242" y1="129.084" x2="119.853" y2="129.084" gradientUnits="userSpaceOnUse">
<stop/>
<stop offset="0.33"/>
<stop offset="0.52"/>
<stop offset="0.73"/>
<stop offset="1"/>
</linearGradient>
<linearGradient id="paint6_linear_157_532" x1="130.777" y1="129.084" x2="139.98" y2="129.084" gradientUnits="userSpaceOnUse">
<stop/>
<stop offset="0.33"/>
<stop offset="0.52"/>
<stop offset="0.73"/>
<stop offset="1"/>
</linearGradient>
<linearGradient id="paint7_linear_157_532" x1="0" y1="143.617" x2="3.78114" y2="143.617" gradientUnits="userSpaceOnUse">
<stop/>
<stop offset="0.33"/>
<stop offset="0.52"/>
<stop offset="0.73"/>
<stop offset="1"/>
</linearGradient>
<linearGradient id="paint8_linear_157_532" x1="7.78979" y1="143.617" x2="12.405" y2="143.617" gradientUnits="userSpaceOnUse">
<stop/>
<stop offset="0.33"/>
<stop offset="0.52"/>
<stop offset="0.73"/>
<stop offset="1"/>
</linearGradient>
<linearGradient id="paint9_linear_157_532" x1="17.199" y1="143.616" x2="21.0543" y2="143.616" gradientUnits="userSpaceOnUse">
<stop/>
<stop offset="0.33"/>
<stop offset="0.52"/>
<stop offset="0.73"/>
<stop offset="1"/>
</linearGradient>
<linearGradient id="paint10_linear_157_532" x1="26.5627" y1="143.617" x2="30.0102" y2="143.617" gradientUnits="userSpaceOnUse">
<stop/>
<stop offset="0.33"/>
<stop offset="0.52"/>
<stop offset="0.73"/>
<stop offset="1"/>
</linearGradient>
<linearGradient id="paint11_linear_157_532" x1="35.3396" y1="143.617" x2="36.1644" y2="143.617" gradientUnits="userSpaceOnUse">
<stop/>
<stop offset="0.33"/>
<stop offset="0.52"/>
<stop offset="0.73"/>
<stop offset="1"/>
</linearGradient>
<linearGradient id="paint12_linear_157_532" x1="41.8425" y1="143.617" x2="45.8924" y2="143.617" gradientUnits="userSpaceOnUse">
<stop/>
<stop offset="0.33"/>
<stop offset="0.52"/>
<stop offset="0.73"/>
<stop offset="1"/>
</linearGradient>
<linearGradient id="paint13_linear_157_532" x1="51.5835" y1="143.617" x2="55.031" y2="143.617" gradientUnits="userSpaceOnUse">
<stop/>
<stop offset="0.33"/>
<stop offset="0.52"/>
<stop offset="0.73"/>
<stop offset="1"/>
</linearGradient>
<linearGradient id="paint14_linear_157_532" x1="66.5496" y1="143.616" x2="70.4048" y2="143.616" gradientUnits="userSpaceOnUse">
<stop/>
<stop offset="0.33"/>
<stop offset="0.52"/>
<stop offset="0.73"/>
<stop offset="1"/>
</linearGradient>
<linearGradient id="paint15_linear_157_532" x1="75.7151" y1="143.617" x2="79.5704" y2="143.617" gradientUnits="userSpaceOnUse">
<stop/>
<stop offset="0.33"/>
<stop offset="0.52"/>
<stop offset="0.73"/>
<stop offset="1"/>
</linearGradient>
<linearGradient id="paint16_linear_157_532" x1="85.0879" y1="143.617" x2="88.5354" y2="143.617" gradientUnits="userSpaceOnUse">
<stop/>
<stop offset="0.33"/>
<stop offset="0.52"/>
<stop offset="0.73"/>
<stop offset="1"/>
</linearGradient>
<linearGradient id="paint17_linear_157_532" x1="93.3835" y1="143.617" x2="97.3408" y2="143.617" gradientUnits="userSpaceOnUse">
<stop/>
<stop offset="0.33"/>
<stop offset="0.52"/>
<stop offset="0.73"/>
<stop offset="1"/>
</linearGradient>
<linearGradient id="paint18_linear_157_532" x1="109.136" y1="143.617" x2="112.917" y2="143.617" gradientUnits="userSpaceOnUse">
<stop/>
<stop offset="0.33"/>
<stop offset="0.52"/>
<stop offset="0.73"/>
<stop offset="1"/>
</linearGradient>
<linearGradient id="paint19_linear_157_532" x1="118.606" y1="143.617" x2="122.053" y2="143.617" gradientUnits="userSpaceOnUse">
<stop/>
<stop offset="0.33"/>
<stop offset="0.52"/>
<stop offset="0.73"/>
<stop offset="1"/>
</linearGradient>
<linearGradient id="paint20_linear_157_532" x1="127.362" y1="143.617" x2="131.319" y2="143.617" gradientUnits="userSpaceOnUse">
<stop/>
<stop offset="0.33"/>
<stop offset="0.52"/>
<stop offset="0.73"/>
<stop offset="1"/>
</linearGradient>
<linearGradient id="paint21_linear_157_532" x1="136.552" y1="143.617" x2="140" y2="143.617" gradientUnits="userSpaceOnUse">
<stop/>
<stop offset="0.33"/>
<stop offset="0.52"/>
<stop offset="0.73"/>
<stop offset="1"/>
</linearGradient>
<linearGradient id="paint22_linear_157_532" x1="17.1823" y1="45.4198" x2="107.021" y2="45.4198" gradientUnits="userSpaceOnUse">
<stop/>
<stop offset="0.33"/>
<stop offset="0.52"/>
<stop offset="0.73"/>
<stop offset="1"/>
</linearGradient>
<linearGradient id="paint23_linear_157_532" x1="32.9832" y1="60.1824" x2="122.822" y2="60.1824" gradientUnits="userSpaceOnUse">
<stop/>
<stop offset="0.33"/>
<stop offset="0.52"/>
<stop offset="0.73"/>
<stop offset="1"/>
</linearGradient>
</defs>
</svg>
