<svg width="140" height="154" viewBox="0 0 140 154" fill="none" xmlns="http://www.w3.org/2000/svg">
<path d="M42.3012 38.8607H44.3246V40.8841V72.1618L53.5134 62.9729V29.6719H21.3771L21.3672 95.1191L30.5561 85.9302V40.8841V38.8607H32.5893H42.3012Z" fill="url(#paint0_linear_157_588)"/>
<path d="M78.5094 75.0595H80.5426V77.0927V86.7948V88.8279H78.5094H38.1415L28.9526 98.0168L89.7216 98.007V65.8706H61.0989L51.91 75.0595H78.5094Z" fill="url(#paint1_linear_157_588)"/>
<path d="M109.418 37.3576V39.3908H107.395H87.5857L78.4067 48.5698H118.597V8.37964L109.418 17.5586V37.3576Z" fill="url(#paint2_linear_157_588)"/>
<path d="M106.511 9.9737L115.69 0.794678H70.8218V45.6534L80.0106 36.4744V12.0069V9.9737H82.034H106.511Z" fill="url(#paint3_linear_157_588)"/>
<path d="M0 148.182H1.69762V153.561H2.64513V148.182H4.34274V147.343H0V148.182Z" fill="url(#paint4_linear_157_588)"/>
<path d="M13.0381 152.17H15.397L15.8806 153.561H16.8676L14.6074 147.343H13.8178L11.5576 153.561H12.5446L13.0381 152.17ZM14.2126 148.616L15.1108 151.341H13.3145L14.2126 148.616Z" fill="url(#paint5_linear_157_588)"/>
<path d="M26.2995 148.689C26.4021 148.555 26.5338 148.447 26.6844 148.373C26.8624 148.284 27.0581 148.237 27.2569 148.235C27.5272 148.232 27.7905 148.321 28.0051 148.485C28.2196 148.65 28.3731 148.881 28.4413 149.143H29.4282C29.3317 148.64 29.0797 148.181 28.7077 147.83C28.3023 147.473 27.777 147.283 27.2371 147.297C26.8373 147.283 26.4413 147.38 26.093 147.577C25.7447 147.773 25.4575 148.063 25.2632 148.412C25.1528 148.593 25.0822 148.795 25.0559 149.004C24.9638 149.966 24.9638 150.935 25.0559 151.896C25.0718 152.01 25.0983 152.123 25.1348 152.232C25.1348 152.321 25.2138 152.41 25.2632 152.498C25.4354 152.808 25.6832 153.07 25.9836 153.258C26.3185 153.48 26.7071 153.606 27.1081 153.624C27.509 153.642 27.9074 153.551 28.2607 153.36C28.614 153.17 28.9092 152.888 29.1148 152.543C29.3204 152.198 29.4287 151.804 29.4282 151.403V150.139H27.2667V151.028H28.5301V151.353C28.5444 151.535 28.5191 151.717 28.4561 151.887C28.393 152.058 28.2937 152.212 28.1649 152.34C28.048 152.463 27.9069 152.559 27.7505 152.624C27.5941 152.689 27.426 152.72 27.2569 152.716C27.0575 152.718 26.8607 152.67 26.6844 152.577C26.5358 152.5 26.4048 152.392 26.2995 152.262C26.1668 152.116 26.0809 151.934 26.0527 151.738C25.9607 150.912 25.9607 150.078 26.0527 149.251C26.073 149.042 26.1595 148.845 26.2995 148.689Z" fill="url(#paint6_linear_157_588)"/>
<path d="M40.6406 147.343V153.561H44.6083V152.673H41.5783V147.343H40.6406Z" fill="url(#paint7_linear_157_588)"/>
<path d="M54.2921 147.343H53.3545V153.561H54.2921V147.343Z" fill="url(#paint8_linear_157_588)"/>
<path d="M67.1729 151.765L64.36 147.343H63.4717V153.561H64.4093V149.149H64.4291L67.242 153.561H68.1303V147.343H67.1926V151.765H67.1729Z" fill="url(#paint9_linear_157_588)"/>
<path d="M81.2802 148.241V147.343H77.3125V153.561H81.2802V152.673H78.2501V150.847H80.836V150.008H78.2501V148.241H81.2802Z" fill="url(#paint10_linear_157_588)"/>
<path d="M100.873 153.561V147.343H99.9256V150.008H97.468V147.343H96.5205V153.561H97.468V150.847H99.9256V153.561H100.873Z" fill="url(#paint11_linear_157_588)"/>
<path d="M114.019 148.241V147.343H110.051V153.561H114.019V152.673H110.999V150.847H113.575V150.008H110.999V148.241H114.019Z" fill="url(#paint12_linear_157_588)"/>
<path d="M125.877 150.799C126.238 150.683 126.55 150.452 126.768 150.142C126.985 149.832 127.095 149.46 127.081 149.082C127.085 148.828 127.032 148.577 126.924 148.348C126.816 148.119 126.657 147.917 126.459 147.759C126.099 147.471 125.647 147.324 125.186 147.344H122.768V153.562H123.755V150.907H124.959L126.242 153.562H127.367L125.877 150.799ZM123.686 150.029V148.154H125.166C125.411 148.136 125.655 148.202 125.857 148.341C125.961 148.425 126.043 148.532 126.096 148.654C126.149 148.776 126.172 148.909 126.163 149.042C126.168 149.293 126.076 149.537 125.907 149.723C125.806 149.829 125.683 149.912 125.546 149.965C125.41 150.018 125.263 150.04 125.117 150.029H123.686Z" fill="url(#paint13_linear_157_588)"/>
<path d="M135.959 153.561H139.927V152.673H136.897V150.847H139.483V150.008H136.897V148.241H139.927V147.343H135.959V153.561Z" fill="url(#paint14_linear_157_588)"/>
<path d="M8.96125 135.743C8.7624 136.19 8.43423 136.567 8.01905 136.826C7.60387 137.084 7.12074 137.213 6.63196 137.194C6.16313 137.221 5.69399 137.147 5.25635 136.976C4.81871 136.806 4.42278 136.544 4.09539 136.207C3.49995 135.439 3.17681 134.494 3.17681 133.522C3.17681 132.55 3.49995 131.606 4.09539 130.838C4.42278 130.501 4.81871 130.239 5.25635 130.069C5.69399 129.898 6.16313 129.824 6.63196 129.851C7.1155 129.827 7.59525 129.947 8.01009 130.197C8.42492 130.446 8.75604 130.814 8.96125 131.252H12.6921C12.2958 129.974 11.4782 128.868 10.3726 128.114C9.25141 127.357 7.92549 126.961 6.57274 126.979C5.71013 126.961 4.85268 127.116 4.0509 127.434C3.24912 127.753 2.51925 128.229 1.90428 128.834C0.683213 130.095 0.000488281 131.782 0.000488281 133.537C0.000488281 135.293 0.683213 136.979 1.90428 138.24C2.51925 138.845 3.24912 139.321 4.0509 139.64C4.85268 139.959 5.71013 140.114 6.57274 140.096C7.9262 140.119 9.25363 139.722 10.3726 138.961C11.4815 138.21 12.3001 137.102 12.6921 135.822L8.96125 135.743Z" fill="url(#paint15_linear_157_588)"/>
<path d="M34.3964 133.469C34.4244 132.596 34.2704 131.726 33.9442 130.915C33.6179 130.105 33.1266 129.371 32.5014 128.761C31.2391 127.569 29.5689 126.905 27.8329 126.905C26.097 126.905 24.4267 127.569 23.1645 128.761C21.9428 130.024 21.2598 131.712 21.2598 133.469C21.2598 135.226 21.9428 136.914 23.1645 138.177C24.4217 139.375 26.0916 140.043 27.828 140.043C29.5644 140.043 31.2343 139.375 32.4915 138.177C33.1166 137.566 33.6085 136.832 33.9363 136.022C34.2641 135.212 34.4208 134.343 34.3964 133.469ZM30.2905 136.153C29.6318 136.8 28.7458 137.162 27.8231 137.162C26.9003 137.162 26.0143 136.8 25.3556 136.153C24.7601 135.385 24.437 134.441 24.437 133.469C24.437 132.497 24.7601 131.552 25.3556 130.784C26.0143 130.138 26.9003 129.776 27.8231 129.776C28.7458 129.776 29.6318 130.138 30.2905 130.784C30.8908 131.55 31.2171 132.496 31.2171 133.469C31.2171 134.442 30.8908 135.387 30.2905 136.153Z" fill="url(#paint16_linear_157_588)"/>
<path d="M58.2399 127.089H54.6571L50.9855 135.923L47.2942 127.089H43.7114V139.91H46.8402V132.676L49.8209 139.91H52.1403L55.1111 132.676V139.91H58.2399V127.089Z" fill="url(#paint17_linear_157_588)"/>
<path d="M71.3592 134.928H73.3331C74.1209 134.943 74.9044 134.809 75.6427 134.533C76.2093 134.336 76.7157 133.996 77.1133 133.546C77.7176 132.851 78.0659 131.97 78.1003 131.049C78.1051 130.523 77.9965 130.002 77.7819 129.522C77.5673 129.042 77.2518 128.613 76.8567 128.266C75.8881 127.453 74.6445 127.044 73.3825 127.121H68.3291V139.952H71.3592V134.928ZM71.3592 129.46H73.3331C73.5399 129.451 73.7462 129.486 73.9385 129.562C74.1308 129.639 74.3046 129.756 74.4484 129.904C74.6768 130.118 74.8342 130.397 74.8993 130.703C74.9644 131.009 74.9342 131.327 74.8126 131.616C74.6911 131.904 74.4841 132.148 74.2196 132.315C73.955 132.482 73.6457 132.564 73.3331 132.55H71.3592V129.46Z" fill="url(#paint18_linear_157_588)"/>
<path d="M94.2889 127.046H90.489L86.0278 139.877H89.354L90.0646 137.715H94.6738L95.3845 139.877H98.7304L94.2889 127.046ZM90.8542 135.376L92.3643 130.806L93.8843 135.376H90.8542Z" fill="url(#paint19_linear_157_588)"/>
<path d="M119.034 139.906V127.046H115.905V135.139L110.684 127.046H107.565V139.906H110.684V131.813L115.905 139.906H119.034Z" fill="url(#paint20_linear_157_588)"/>
<path d="M133.999 132.883L131.541 127.089H127.998L132.43 135.785V139.91H135.558V135.785L140 127.089H136.447L133.999 132.883Z" fill="url(#paint21_linear_157_588)"/>
<defs>
<linearGradient id="paint0_linear_157_588" x1="5.01277" y1="78.7548" x2="53.7996" y2="29.9679" gradientUnits="userSpaceOnUse">
<stop/>
<stop offset="0.33"/>
<stop offset="0.52"/>
<stop offset="0.73"/>
<stop offset="1"/>
</linearGradient>
<linearGradient id="paint1_linear_157_588" x1="44.1424" y1="113.207" x2="90.5999" y2="66.749" gradientUnits="userSpaceOnUse">
<stop/>
<stop offset="0.33"/>
<stop offset="0.52"/>
<stop offset="0.73"/>
<stop offset="1"/>
</linearGradient>
<linearGradient id="paint2_linear_157_588" x1="88.4543" y1="58.6174" x2="128.644" y2="18.4272" gradientUnits="userSpaceOnUse">
<stop/>
<stop offset="0.33"/>
<stop offset="0.52"/>
<stop offset="0.73"/>
<stop offset="1"/>
</linearGradient>
<linearGradient id="paint3_linear_157_588" x1="59.6096" y1="34.4412" x2="104.478" y2="-10.4274" gradientUnits="userSpaceOnUse">
<stop/>
<stop offset="0.33"/>
<stop offset="0.52"/>
<stop offset="0.73"/>
<stop offset="1"/>
</linearGradient>
<linearGradient id="paint4_linear_157_588" x1="2.17137" y1="160.796" x2="2.17137" y2="-25.2315" gradientUnits="userSpaceOnUse">
<stop/>
<stop offset="0.33"/>
<stop offset="0.52"/>
<stop offset="0.73"/>
<stop offset="1"/>
</linearGradient>
<linearGradient id="paint5_linear_157_588" x1="14.2225" y1="171.939" x2="14.2225" y2="13.1623" gradientUnits="userSpaceOnUse">
<stop/>
<stop offset="0.33"/>
<stop offset="0.52"/>
<stop offset="0.73"/>
<stop offset="1"/>
</linearGradient>
<linearGradient id="paint6_linear_157_588" x1="27.2569" y1="191.455" x2="27.2569" y2="18.0216" gradientUnits="userSpaceOnUse">
<stop/>
<stop offset="0.33"/>
<stop offset="0.52"/>
<stop offset="0.73"/>
<stop offset="1"/>
</linearGradient>
<linearGradient id="paint7_linear_157_588" x1="42.6245" y1="223.45" x2="42.6245" y2="20.9299" gradientUnits="userSpaceOnUse">
<stop/>
<stop offset="0.33"/>
<stop offset="0.52"/>
<stop offset="0.73"/>
<stop offset="1"/>
</linearGradient>
<linearGradient id="paint8_linear_157_588" x1="53.8282" y1="315.437" x2="53.8282" y2="-53.3902" gradientUnits="userSpaceOnUse">
<stop/>
<stop offset="0.33"/>
<stop offset="0.52"/>
<stop offset="0.73"/>
<stop offset="1"/>
</linearGradient>
<linearGradient id="paint9_linear_157_588" x1="65.801" y1="225.651" x2="65.801" y2="85.2519" gradientUnits="userSpaceOnUse">
<stop/>
<stop offset="0.33"/>
<stop offset="0.52"/>
<stop offset="0.73"/>
<stop offset="1"/>
</linearGradient>
<linearGradient id="paint10_linear_157_588" x1="79.2963" y1="251.214" x2="79.2963" y2="92.5556" gradientUnits="userSpaceOnUse">
<stop/>
<stop offset="0.33"/>
<stop offset="0.52"/>
<stop offset="0.73"/>
<stop offset="1"/>
</linearGradient>
<linearGradient id="paint11_linear_157_588" x1="98.6919" y1="263.551" x2="98.6919" y2="115.365" gradientUnits="userSpaceOnUse">
<stop/>
<stop offset="0.33"/>
<stop offset="0.52"/>
<stop offset="0.73"/>
<stop offset="1"/>
</linearGradient>
<linearGradient id="paint12_linear_157_588" x1="112.035" y1="287.15" x2="112.035" y2="128.492" gradientUnits="userSpaceOnUse">
<stop/>
<stop offset="0.33"/>
<stop offset="0.52"/>
<stop offset="0.73"/>
<stop offset="1"/>
</linearGradient>
<linearGradient id="paint13_linear_157_588" x1="125.038" y1="301.808" x2="125.038" y2="143.387" gradientUnits="userSpaceOnUse">
<stop/>
<stop offset="0.33"/>
<stop offset="0.52"/>
<stop offset="0.73"/>
<stop offset="1"/>
</linearGradient>
<linearGradient id="paint14_linear_157_588" x1="137.943" y1="317.46" x2="137.943" y2="158.802" gradientUnits="userSpaceOnUse">
<stop/>
<stop offset="0.33"/>
<stop offset="0.52"/>
<stop offset="0.73"/>
<stop offset="1"/>
</linearGradient>
<linearGradient id="paint15_linear_157_588" x1="6.34573" y1="148.14" x2="6.34573" y2="15.1034" gradientUnits="userSpaceOnUse">
<stop/>
<stop offset="0.33"/>
<stop offset="0.52"/>
<stop offset="0.73"/>
<stop offset="1"/>
</linearGradient>
<linearGradient id="paint16_linear_157_588" x1="27.8231" y1="168.793" x2="27.8231" y2="36.8132" gradientUnits="userSpaceOnUse">
<stop/>
<stop offset="0.33"/>
<stop offset="0.52"/>
<stop offset="0.73"/>
<stop offset="1"/>
</linearGradient>
<linearGradient id="paint17_linear_157_588" x1="50.9757" y1="177.564" x2="50.9757" y2="77.0195" gradientUnits="userSpaceOnUse">
<stop/>
<stop offset="0.33"/>
<stop offset="0.52"/>
<stop offset="0.73"/>
<stop offset="1"/>
</linearGradient>
<linearGradient id="paint18_linear_157_588" x1="73.1555" y1="221.882" x2="73.1555" y2="74.3666" gradientUnits="userSpaceOnUse">
<stop/>
<stop offset="0.33"/>
<stop offset="0.52"/>
<stop offset="0.73"/>
<stop offset="1"/>
</linearGradient>
<linearGradient id="paint19_linear_157_588" x1="92.3742" y1="234.242" x2="92.3742" y2="96.8537" gradientUnits="userSpaceOnUse">
<stop/>
<stop offset="0.33"/>
<stop offset="0.52"/>
<stop offset="0.73"/>
<stop offset="1"/>
</linearGradient>
<linearGradient id="paint20_linear_157_588" x1="113.299" y1="243.352" x2="113.299" y2="120.995" gradientUnits="userSpaceOnUse">
<stop/>
<stop offset="0.33"/>
<stop offset="0.52"/>
<stop offset="0.73"/>
<stop offset="1"/>
</linearGradient>
<linearGradient id="paint21_linear_157_588" x1="133.999" y1="287.169" x2="133.999" y2="142.309" gradientUnits="userSpaceOnUse">
<stop/>
<stop offset="0.33"/>
<stop offset="0.52"/>
<stop offset="0.73"/>
<stop offset="1"/>
</linearGradient>
</defs>
</svg>
