<svg width="140" height="183" viewBox="0 0 140 183" fill="none" xmlns="http://www.w3.org/2000/svg">
<path d="M2.05459 181.879H3.35801V174.464H5.34529V173.236H0.0673828V174.464H2.05459V181.879Z" fill="url(#paint0_linear_157_611)"/>
<path d="M12.1701 181.877L13.1317 179.74H16.8283L17.7365 181.877H19.1681L15.0441 172.689L10.7705 181.877H12.1701ZM15.0227 175.616L16.3048 178.554H13.6766L15.0227 175.616Z" fill="url(#paint1_linear_157_611)"/>
<path d="M29.7082 174.323C30.2224 174.332 30.7267 174.466 31.1785 174.711C31.6304 174.956 32.0166 175.307 32.3044 175.733L33.234 174.846C32.7757 174.293 32.213 173.836 31.5779 173.5C30.9878 173.218 30.3408 173.076 29.6869 173.084C28.7989 173.085 27.9312 173.349 27.1926 173.842C26.454 174.335 25.8774 175.035 25.5351 175.854C25.1927 176.673 25.1 177.575 25.2684 178.447C25.4368 179.319 25.8588 180.122 26.4816 180.755C26.8809 181.173 27.362 181.505 27.8951 181.729C28.4282 181.953 29.0018 182.065 29.58 182.058C30.1598 182.073 30.7356 181.96 31.266 181.725C31.7963 181.49 32.2678 181.141 32.6463 180.701C32.9861 180.328 33.2443 179.887 33.4049 179.408C33.5619 178.849 33.6375 178.27 33.6293 177.688V177.4H30.0608V178.629H32.1976C32.1265 179.242 31.8153 179.803 31.3322 180.188C30.8602 180.613 30.2467 180.845 29.6121 180.84C28.8152 180.836 28.0503 180.526 27.4753 179.975C27.1328 179.681 26.8595 179.315 26.6748 178.903C26.4901 178.491 26.3986 178.043 26.4069 177.592C26.3973 177.161 26.4747 176.733 26.6344 176.333C26.7941 175.933 27.0328 175.569 27.3364 175.263C27.6423 174.947 28.0121 174.7 28.4211 174.537C28.83 174.375 29.2688 174.302 29.7082 174.323Z" fill="url(#paint2_linear_157_611)"/>
<path d="M42.0337 173.236V181.879H45.88V180.65H43.3372V173.236H42.0337Z" fill="url(#paint3_linear_157_611)"/>
<path d="M54.1409 173.236H52.8374V181.879H54.1409V173.236Z" fill="url(#paint4_linear_157_611)"/>
<path d="M61.9595 181.897H63.2629V175.85L69.5665 182.421V173.254H68.2631V179.258L61.9595 172.666V181.897Z" fill="url(#paint5_linear_157_611)"/>
<path d="M77.3745 181.879H82.1396V180.65H78.678V177.766H82.0434V176.537H78.678V174.464H82.1396V173.236H77.3745V181.879Z" fill="url(#paint6_linear_157_611)"/>
<path d="M101.263 176.622H97.534V173.236H96.2412V181.879H97.534V177.84H101.263V181.879H102.566V173.236H101.263V176.622Z" fill="url(#paint7_linear_157_611)"/>
<path d="M115.127 174.464V173.236H110.362V181.879H115.127V180.65H111.666V177.766H115.031V176.537H111.666V174.464H115.127Z" fill="url(#paint8_linear_157_611)"/>
<path d="M125.519 178.202C126.068 178.097 126.561 177.797 126.908 177.358C127.263 176.909 127.448 176.349 127.431 175.777C127.443 175.42 127.374 175.064 127.23 174.737C127.086 174.409 126.87 174.118 126.598 173.886C125.869 173.396 124.994 173.169 124.119 173.245H122.591V181.888H123.895V178.352H124.13L126.598 181.888H128.2L125.519 178.202ZM123.895 177.219V174.474H124.365C125.561 174.474 126.17 174.912 126.17 175.799C126.17 176.685 125.54 177.219 124.311 177.219H123.895Z" fill="url(#paint9_linear_157_611)"/>
<path d="M140 174.464V173.236H135.235V181.879H140V180.65H136.538V177.766H139.904V176.537H136.538V174.464H140Z" fill="url(#paint10_linear_157_611)"/>
<path d="M28.9136 80.3011L86.2761 22.9386V0L28.9136 57.3625V80.3011Z" fill="url(#paint11_linear_157_611)"/>
<path d="M28.9136 130.143L86.2761 72.7809V54.2441L28.9136 111.607V130.143Z" fill="url(#paint12_linear_157_611)"/>
<path d="M53.7651 80.2959L111.128 22.9334V3.65942L53.7651 61.022V80.2959Z" fill="url(#paint13_linear_157_611)"/>
<path d="M111.128 53.5205L53.7651 110.883V130.157L111.128 72.7945V53.5205Z" fill="url(#paint14_linear_157_611)"/>
<path d="M2.42621 162.211C3.17883 162.936 4.06884 163.502 5.0438 163.878C6.11192 164.281 7.24626 164.48 8.3879 164.465C9.4901 164.464 10.5805 164.238 11.5931 163.803C12.6394 163.34 13.5403 162.601 14.2 161.666L11.8816 160.021C11.4421 160.627 10.8726 161.127 10.2149 161.485C9.63866 161.777 9.002 161.931 8.35582 161.933C7.59623 161.942 6.84316 161.793 6.14429 161.495C5.50283 161.207 4.92806 160.788 4.45619 160.267C3.98055 159.732 3.61723 159.107 3.38779 158.429C3.11662 157.683 2.9827 156.894 2.99249 156.1C2.98426 155.348 3.11838 154.601 3.38779 153.899C3.62181 153.239 3.98502 152.632 4.45619 152.115C4.9295 151.603 5.50447 151.195 6.14429 150.918C6.84316 150.62 7.59623 150.471 8.35582 150.48C8.91488 150.484 9.46863 150.589 9.9905 150.79C10.6359 151.076 11.209 151.503 11.6679 152.04L13.8047 150.437C13.1174 149.608 12.247 148.95 11.2619 148.514C10.3225 148.132 9.31661 147.939 8.30241 147.948C7.16119 147.938 6.0278 148.137 4.95831 148.535C3.98071 148.911 3.09005 149.481 2.34078 150.213C1.59625 150.964 1.01112 151.858 0.620604 152.841C0.19535 153.934 -0.0150072 155.098 0.000978574 156.271C-0.0162561 157.419 0.194316 158.559 0.620604 159.625C1.03934 160.602 1.65387 161.482 2.42621 162.211Z" fill="url(#paint15_linear_157_611)"/>
<path d="M22.0654 162.231C22.8145 162.96 23.7055 163.527 24.683 163.897C26.8459 164.709 29.2296 164.709 31.3925 163.897C32.3801 163.513 33.281 162.936 34.0422 162.199C34.7884 161.459 35.3771 160.576 35.773 159.602C36.1942 158.535 36.4046 157.395 36.3926 156.248C36.4054 155.079 36.1951 153.919 35.773 152.829C35.3799 151.848 34.791 150.957 34.0422 150.211C33.2854 149.479 32.3825 148.914 31.3925 148.555C29.2197 147.8 26.8558 147.8 24.683 148.555C23.7026 148.925 22.8108 149.496 22.0654 150.232C21.3173 150.981 20.7318 151.876 20.3453 152.861C19.92 153.953 19.7096 155.118 19.7256 156.29C19.7084 157.439 19.919 158.579 20.3453 159.645C20.735 160.616 21.3206 161.496 22.0654 162.231ZM23.0697 153.972C23.3077 153.314 23.6705 152.708 24.1381 152.188C24.6132 151.673 25.1923 151.265 25.8369 150.991C27.2534 150.407 28.8435 150.407 30.26 150.991C30.9092 151.262 31.4923 151.67 31.9695 152.188C32.4407 152.705 32.8039 153.312 33.0379 153.972C33.302 154.675 33.436 155.421 33.4332 156.173C33.4378 156.966 33.304 157.754 33.0379 158.502C32.8085 159.18 32.4451 159.805 31.9695 160.34C31.494 160.866 30.9111 161.285 30.26 161.568C28.8435 162.152 27.2534 162.152 25.8369 161.568C25.1906 161.282 24.6118 160.864 24.1381 160.34C23.6652 159.803 23.3022 159.178 23.0697 158.502C22.8072 157.754 22.6771 156.966 22.6851 156.173C22.6786 155.422 22.809 154.676 23.0697 153.972Z" fill="url(#paint16_linear_157_611)"/>
<path d="M47.8381 148.356H43.5752V164.072H46.2355V151.017H46.2783L51.054 164.072H53.0092L57.7742 151.017H57.817V164.072H60.488V148.356H56.2678L52.0263 159.361L47.8381 148.356Z" fill="url(#paint17_linear_157_611)"/>
<path d="M71.3034 157.577H73.3013C74.099 157.577 74.8955 157.517 75.6838 157.395C76.3891 157.296 77.07 157.068 77.6924 156.722C78.2728 156.388 78.7497 155.9 79.0707 155.312C79.4332 154.568 79.6057 153.746 79.5728 152.919C79.5935 152.179 79.4321 151.445 79.1027 150.782C78.7986 150.216 78.3579 149.735 77.8206 149.382C77.2552 149.022 76.6288 148.769 75.9723 148.634C75.2685 148.495 74.553 148.424 73.8355 148.421H68.5576V164.137H71.3568L71.3034 157.577ZM71.3034 150.76H73.3013C73.6868 150.762 74.072 150.783 74.4552 150.825C74.8253 150.865 75.1861 150.966 75.5236 151.124C75.8444 151.275 76.1205 151.507 76.3249 151.797C76.5517 152.141 76.6604 152.55 76.6347 152.961C76.6596 153.401 76.5395 153.836 76.2928 154.201C76.0668 154.502 75.759 154.732 75.406 154.863C75.0289 155.019 74.6278 155.11 74.2201 155.13C73.7928 155.13 73.3761 155.184 72.9701 155.184H71.2927L71.3034 150.76Z" fill="url(#paint18_linear_157_611)"/>
<path d="M87.6589 160.472H94.4646L95.939 164.072H99.1442L92.3705 148.356H89.956L83.1182 164.072H86.2486L87.6589 160.472ZM91.0778 151.679L93.4924 158.089H88.6098L91.0778 151.679Z" fill="url(#paint19_linear_157_611)"/>
<path d="M105.33 148.356V164.072H108.129V152.021H108.172L115.939 164.072H119.497V148.356H116.697V160.034H116.655L109.037 148.356H105.33Z" fill="url(#paint20_linear_157_611)"/>
<path d="M131.271 164.072H134.07V157.341L139.967 148.356H136.645L132.734 154.617L128.867 148.356H125.362L131.271 157.341V164.072Z" fill="url(#paint21_linear_157_611)"/>
<defs>
<linearGradient id="paint0_linear_157_611" x1="2.70634" y1="179.464" x2="2.70634" y2="-51.418" gradientUnits="userSpaceOnUse">
<stop/>
<stop offset="0.33"/>
<stop offset="0.52"/>
<stop offset="0.73"/>
<stop offset="1"/>
</linearGradient>
<linearGradient id="paint1_linear_157_611" x1="14.9693" y1="191.065" x2="14.9693" y2="33.2087" gradientUnits="userSpaceOnUse">
<stop/>
<stop offset="0.33"/>
<stop offset="0.52"/>
<stop offset="0.73"/>
<stop offset="1"/>
</linearGradient>
<linearGradient id="paint2_linear_157_611" x1="29.3984" y1="206.589" x2="29.3984" y2="54.1064" gradientUnits="userSpaceOnUse">
<stop/>
<stop offset="0.33"/>
<stop offset="0.52"/>
<stop offset="0.73"/>
<stop offset="1"/>
</linearGradient>
<linearGradient id="paint3_linear_157_611" x1="43.9568" y1="274.392" x2="43.9568" y2="-39.345" gradientUnits="userSpaceOnUse">
<stop/>
<stop offset="0.33"/>
<stop offset="0.52"/>
<stop offset="0.73"/>
<stop offset="1"/>
</linearGradient>
<linearGradient id="paint4_linear_157_611" x1="53.4892" y1="388.22" x2="53.4892" y2="-169.808" gradientUnits="userSpaceOnUse">
<stop/>
<stop offset="0.33"/>
<stop offset="0.52"/>
<stop offset="0.73"/>
<stop offset="1"/>
</linearGradient>
<linearGradient id="paint5_linear_157_611" x1="65.763" y1="253.833" x2="65.763" y2="88.8711" gradientUnits="userSpaceOnUse">
<stop/>
<stop offset="0.33"/>
<stop offset="0.52"/>
<stop offset="0.73"/>
<stop offset="1"/>
</linearGradient>
<linearGradient id="paint6_linear_157_611" x1="79.7571" y1="299.991" x2="79.7571" y2="81.107" gradientUnits="userSpaceOnUse">
<stop/>
<stop offset="0.33"/>
<stop offset="0.52"/>
<stop offset="0.73"/>
<stop offset="1"/>
</linearGradient>
<linearGradient id="paint7_linear_157_611" x1="99.4037" y1="293.474" x2="99.4037" y2="121.781" gradientUnits="userSpaceOnUse">
<stop/>
<stop offset="0.33"/>
<stop offset="0.52"/>
<stop offset="0.73"/>
<stop offset="1"/>
</linearGradient>
<linearGradient id="paint8_linear_157_611" x1="112.745" y1="345.58" x2="112.745" y2="126.696" gradientUnits="userSpaceOnUse">
<stop/>
<stop offset="0.33"/>
<stop offset="0.52"/>
<stop offset="0.73"/>
<stop offset="1"/>
</linearGradient>
<linearGradient id="paint9_linear_157_611" x1="125.391" y1="367.128" x2="125.391" y2="144.612" gradientUnits="userSpaceOnUse">
<stop/>
<stop offset="0.33"/>
<stop offset="0.52"/>
<stop offset="0.73"/>
<stop offset="1"/>
</linearGradient>
<linearGradient id="paint10_linear_157_611" x1="137.617" y1="383.252" x2="137.617" y2="164.368" gradientUnits="userSpaceOnUse">
<stop/>
<stop offset="0.33"/>
<stop offset="0.52"/>
<stop offset="0.73"/>
<stop offset="1"/>
</linearGradient>
<linearGradient id="paint11_linear_157_611" x1="28.9136" y1="40.1506" x2="86.2761" y2="40.1506" gradientUnits="userSpaceOnUse">
<stop/>
<stop offset="0.33"/>
<stop offset="0.52"/>
<stop offset="0.73"/>
<stop offset="1"/>
</linearGradient>
<linearGradient id="paint12_linear_157_611" x1="28.9136" y1="92.1937" x2="86.2761" y2="92.1937" gradientUnits="userSpaceOnUse">
<stop/>
<stop offset="0.33"/>
<stop offset="0.52"/>
<stop offset="0.73"/>
<stop offset="1"/>
</linearGradient>
<linearGradient id="paint13_linear_157_611" x1="53.7545" y1="41.9723" x2="111.128" y2="41.9723" gradientUnits="userSpaceOnUse">
<stop/>
<stop offset="0.33"/>
<stop offset="0.52"/>
<stop offset="0.73"/>
<stop offset="1"/>
</linearGradient>
<linearGradient id="paint14_linear_157_611" x1="53.7545" y1="91.8441" x2="111.128" y2="91.8441" gradientUnits="userSpaceOnUse">
<stop/>
<stop offset="0.33"/>
<stop offset="0.52"/>
<stop offset="0.73"/>
<stop offset="1"/>
</linearGradient>
<linearGradient id="paint15_linear_157_611" x1="7.16994" y1="163.611" x2="7.16994" y2="9.31197" gradientUnits="userSpaceOnUse">
<stop/>
<stop offset="0.33"/>
<stop offset="0.52"/>
<stop offset="0.73"/>
<stop offset="1"/>
</linearGradient>
<linearGradient id="paint16_linear_157_611" x1="28.0591" y1="183.107" x2="28.0591" y2="50.8281" gradientUnits="userSpaceOnUse">
<stop/>
<stop offset="0.33"/>
<stop offset="0.52"/>
<stop offset="0.73"/>
<stop offset="1"/>
</linearGradient>
<linearGradient id="paint17_linear_157_611" x1="52.0263" y1="200.174" x2="52.0263" y2="84.9894" gradientUnits="userSpaceOnUse">
<stop/>
<stop offset="0.33"/>
<stop offset="0.52"/>
<stop offset="0.73"/>
<stop offset="1"/>
</linearGradient>
<linearGradient id="paint18_linear_157_611" x1="74.0385" y1="251.105" x2="74.0385" y2="76.7417" gradientUnits="userSpaceOnUse">
<stop/>
<stop offset="0.33"/>
<stop offset="0.52"/>
<stop offset="0.73"/>
<stop offset="1"/>
</linearGradient>
<linearGradient id="paint19_linear_157_611" x1="91.1205" y1="244.096" x2="91.1205" y2="112.437" gradientUnits="userSpaceOnUse">
<stop/>
<stop offset="0.33"/>
<stop offset="0.52"/>
<stop offset="0.73"/>
<stop offset="1"/>
</linearGradient>
<linearGradient id="paint20_linear_157_611" x1="112.413" y1="268.893" x2="112.413" y2="133.345" gradientUnits="userSpaceOnUse">
<stop/>
<stop offset="0.33"/>
<stop offset="0.52"/>
<stop offset="0.73"/>
<stop offset="1"/>
</linearGradient>
<linearGradient id="paint21_linear_157_611" x1="132.67" y1="298.862" x2="132.67" y2="154.403" gradientUnits="userSpaceOnUse">
<stop/>
<stop offset="0.33"/>
<stop offset="0.52"/>
<stop offset="0.73"/>
<stop offset="1"/>
</linearGradient>
</defs>
</svg>
