<svg width="140" height="162" viewBox="0 0 140 162" fill="none" xmlns="http://www.w3.org/2000/svg">
<path d="M1.7011 161.61H2.65498V156.232H4.35315V155.394H0.00292969V156.232H1.7011V161.61Z" fill="url(#paint0_linear_157_634)"/>
<path d="M14.6388 155.394H13.8421L11.5884 161.61H12.6366L13.1084 160.226H15.3726L15.8548 161.61H16.903L14.6388 155.394ZM13.3285 159.387L14.2299 156.672L15.1315 159.387H13.3285Z" fill="url(#paint1_linear_157_634)"/>
<path d="M26.313 156.751C26.418 156.619 26.5503 156.512 26.7008 156.436C26.8812 156.351 27.0777 156.304 27.2774 156.3C27.5545 156.3 27.8237 156.392 28.0426 156.562C28.2406 156.731 28.386 156.953 28.4619 157.201H29.4577C29.3711 156.698 29.1205 156.237 28.7449 155.891C28.373 155.579 27.9114 155.394 27.4271 155.362C26.9427 155.33 26.4607 155.453 26.0509 155.713C25.7459 155.899 25.4961 156.163 25.3276 156.478C25.22 156.658 25.1488 156.858 25.1179 157.065C25.064 157.549 25.043 158.036 25.0551 158.522C25.0431 159.002 25.0641 159.482 25.1179 159.958C25.1346 160.073 25.1627 160.185 25.2018 160.294L25.3276 160.566C25.5011 160.875 25.75 161.135 26.0509 161.321C26.481 161.596 26.9915 161.718 27.4996 161.667C28.0077 161.616 28.4835 161.394 28.8497 161.038C29.056 160.832 29.2189 160.587 29.3288 160.317C29.4386 160.047 29.4932 159.757 29.4892 159.466V158.208H27.2878V159.099H28.5563V159.424C28.5613 159.771 28.4295 160.106 28.1893 160.357C28.0725 160.48 27.931 160.578 27.7738 160.643C27.6166 160.708 27.4474 160.739 27.2774 160.734C27.0765 160.74 26.8777 160.693 26.7008 160.598C26.5503 160.522 26.418 160.415 26.313 160.283C26.1852 160.135 26.1017 159.953 26.0719 159.759C25.9741 158.934 25.9741 158.1 26.0719 157.275C26.1017 157.081 26.1852 156.899 26.313 156.751Z" fill="url(#paint2_linear_157_634)"/>
<path d="M41.249 155.394V161.61H45.2219V160.719H42.1925V155.394H41.249Z" fill="url(#paint3_linear_157_634)"/>
<path d="M54.9103 155.394H53.9668V161.61H54.9103V155.394Z" fill="url(#paint4_linear_157_634)"/>
<path d="M64.0806 155.394V161.61H65.024V157.197H65.0449L67.8543 161.61H68.7453V155.394H67.8019V159.817H67.7809L64.9716 155.394H64.0806Z" fill="url(#paint5_linear_157_634)"/>
<path d="M81.8703 156.285V155.394H77.8975V161.61H81.8703V160.719H78.8409V158.895H81.4196V158.056H78.8409V156.285H81.8703Z" fill="url(#paint6_linear_157_634)"/>
<path d="M100.872 161.61V155.394H99.9288V158.056H97.4654V155.394H96.522V161.61H97.4654V158.895H99.9288V161.61H100.872Z" fill="url(#paint7_linear_157_634)"/>
<path d="M114.026 156.285V155.394H110.053V161.61H114.026V160.719H110.997V158.895H113.575V158.056H110.997V156.285H114.026Z" fill="url(#paint8_linear_157_634)"/>
<path d="M125.87 158.854C126.232 158.738 126.546 158.508 126.766 158.197C126.985 157.887 127.098 157.514 127.086 157.135C127.09 156.881 127.037 156.629 126.93 156.398C126.822 156.168 126.665 155.964 126.468 155.803C126.103 155.52 125.65 155.375 125.189 155.395H122.768V161.611H123.711V158.959H124.916L126.195 161.611H127.317L125.87 158.854ZM123.711 158.12V156.233H125.189C125.432 156.218 125.673 156.289 125.87 156.432C125.979 156.513 126.066 156.619 126.123 156.742C126.179 156.865 126.204 157 126.195 157.135C126.198 157.389 126.1 157.634 125.923 157.816C125.822 157.922 125.7 158.004 125.564 158.056C125.428 158.109 125.282 158.131 125.137 158.12H123.711Z" fill="url(#paint9_linear_157_634)"/>
<path d="M139.932 156.285V155.394H135.959V161.61H139.932V160.719H136.903V158.895H139.482V158.056H136.903V156.285H139.932Z" fill="url(#paint10_linear_157_634)"/>
<path d="M6.58211 148.079C7.93829 148.102 9.26804 147.703 10.3873 146.937C11.4929 146.18 12.3096 145.072 12.704 143.792H8.98266C8.77464 144.23 8.44182 144.597 8.02596 144.847C7.6101 145.097 7.12967 145.219 6.64501 145.196C6.17147 145.216 5.69938 145.132 5.26137 144.951C4.82335 144.77 4.42988 144.496 4.10825 144.148C3.50981 143.382 3.18475 142.437 3.18475 141.465C3.18475 140.492 3.50981 139.548 4.10825 138.781C4.42988 138.433 4.82335 138.159 5.26137 137.978C5.69938 137.797 6.17147 137.713 6.64501 137.733C7.12967 137.711 7.6101 137.832 8.02596 138.082C8.44182 138.332 8.77464 138.699 8.98266 139.138H12.704C12.3051 137.86 11.4894 136.753 10.3873 135.993C9.26474 135.235 7.9365 134.84 6.58211 134.861C5.71993 134.842 4.86274 134.996 4.06141 135.315C3.26008 135.634 2.53094 136.11 1.91737 136.716C0.687947 137.979 0 139.671 0 141.433C0 143.195 0.687947 144.888 1.91737 146.15C2.5248 146.77 3.25116 147.26 4.05278 147.591C4.85439 147.923 5.71473 148.089 6.58211 148.079Z" fill="url(#paint11_linear_157_634)"/>
<path d="M34.4004 141.518C34.4297 140.646 34.2771 139.777 33.9522 138.967C33.6274 138.156 33.1374 137.422 32.5134 136.812C31.2507 135.62 29.58 134.956 27.8435 134.956C26.107 134.956 24.4363 135.62 23.1735 136.812C21.9466 138.076 21.2603 139.768 21.2603 141.529C21.2603 143.29 21.9466 144.982 23.1735 146.246C24.4345 147.437 26.1035 148.101 27.8383 148.101C29.573 148.101 31.242 147.437 32.503 146.246C33.1315 145.634 33.625 144.897 33.9517 144.083C34.2785 143.269 34.4313 142.395 34.4004 141.518ZM30.3016 144.202C29.6417 144.847 28.7557 145.208 27.833 145.208C26.9104 145.208 26.0244 144.847 25.3644 144.202C24.766 143.435 24.4409 142.491 24.4409 141.518C24.4409 140.546 24.766 139.601 25.3644 138.835C26.0244 138.19 26.9104 137.829 27.833 137.829C28.7557 137.829 29.6417 138.19 30.3016 138.835C30.9001 139.601 31.2251 140.546 31.2251 141.518C31.2251 142.491 30.9001 143.435 30.3016 144.202Z" fill="url(#paint12_linear_157_634)"/>
<path d="M58.2357 135.157H54.6506L50.9817 143.994L47.2919 135.157H43.7173V147.977H46.8306V140.744L49.8181 147.977H52.1348L55.1118 140.744V147.977H58.2357V135.157Z" fill="url(#paint13_linear_157_634)"/>
<path d="M71.4114 142.98H73.3507C74.1372 143 74.9201 142.868 75.6569 142.593C76.2311 142.381 76.738 142.019 77.1244 141.544C77.7132 140.845 78.0427 139.964 78.0573 139.049C78.0638 138.525 77.9566 138.005 77.7431 137.525C77.5296 137.046 77.2148 136.618 76.8204 136.272C75.8567 135.453 74.6129 135.039 73.3507 135.119H68.2876V147.939H71.4324L71.4114 142.98ZM71.4114 137.519H73.3507C73.5564 137.51 73.7617 137.545 73.9531 137.621C74.1446 137.697 74.3179 137.812 74.4618 137.959C74.6026 138.109 74.7121 138.285 74.7841 138.478C74.8561 138.671 74.8891 138.875 74.8812 139.081C74.8902 139.284 74.8587 139.487 74.7885 139.678C74.7183 139.868 74.6109 140.043 74.4723 140.192C74.3246 140.336 74.1486 140.447 73.9556 140.519C73.7625 140.592 73.5565 140.623 73.3507 140.611H71.4114V137.519Z" fill="url(#paint14_linear_157_634)"/>
<path d="M90.4868 135.135L86.0317 147.997H89.3548L90.0676 145.838H94.6694L95.3822 147.997H98.7262L94.2816 135.135H90.4868ZM90.8538 143.469L92.3632 138.898L93.8832 143.469H90.8538Z" fill="url(#paint15_linear_157_634)"/>
<path d="M119.032 147.97V135.108H115.909V143.201L110.688 135.108H107.564V147.97H110.688V139.878L115.909 147.97H119.032Z" fill="url(#paint16_linear_157_634)"/>
<path d="M132.432 143.847V147.977H135.556V143.847L140 135.157H136.457L134.004 140.943L131.541 135.157H127.998L132.432 143.847Z" fill="url(#paint17_linear_157_634)"/>
<path d="M78.5328 16.2583C80.5202 19.0498 82.108 22.1053 83.2499 25.3362C84.6756 25.5249 86.0802 25.7869 87.443 26.1119L88.1243 26.2796H88.3025L89.1726 26.5207L90.0112 26.7723L90.7345 27.0029L91.4787 27.2545C91.7093 27.3314 91.94 27.4152 92.1706 27.5061L92.8519 27.7577C94.1756 28.2704 95.4704 28.8548 96.7305 29.5083C97.0345 29.6655 97.3385 29.8122 97.632 29.98C98.1351 30.2525 98.6278 30.5355 99.11 30.829L99.739 31.2064C99.833 31.2719 99.931 31.3314 100.033 31.3846L100.682 31.8144L101.301 32.2337C103.71 33.8807 105.937 35.7782 107.947 37.8943C108.188 38.1249 108.419 38.3765 108.639 38.6176L109.184 39.2361C109.477 39.5715 109.76 39.9069 110.043 40.2843C110.326 40.6617 110.379 40.6931 110.536 40.9028L111.186 41.7519C111.396 42.0139 111.595 42.2865 111.783 42.559C111.972 42.8316 112.171 43.1146 112.36 43.3871C112.737 43.9427 113.094 44.5088 113.408 45.0748C113.586 45.3683 113.765 45.6514 113.922 45.9449C114.079 46.2384 114.257 46.5319 114.415 46.8254C114.76 47.4649 115.096 48.1148 115.463 48.7647C115.589 49.0268 115.704 49.2888 115.819 49.5509C115.935 49.8129 116.05 50.0645 116.165 50.3266C116.28 50.5886 116.364 50.7878 116.459 51.0289C116.553 51.27 116.637 51.4587 116.721 51.6788C116.93 52.2239 117.13 52.7271 117.318 53.3351C117.43 53.6635 117.535 53.9885 117.633 54.31C117.727 54.6244 117.821 54.9389 117.905 55.2534C118.167 56.1549 118.398 57.0669 118.587 57.9893C118.587 58.22 118.681 58.461 118.733 58.6917C118.786 58.9223 118.786 58.9642 118.807 59.09C118.828 59.2158 118.88 59.4569 118.901 59.6351C118.922 59.8133 118.985 60.1487 119.027 60.4003C119.069 60.6519 119.111 60.9244 119.142 61.1865C119.174 61.4486 119.142 61.4171 119.142 61.5324L119.205 62.1195C119.205 62.2977 119.205 62.4864 119.205 62.675C119.205 62.8637 119.268 63.2411 119.289 63.5241L119.352 64.5724C119.352 64.9288 119.352 65.2852 119.352 65.6206C119.352 65.9561 119.352 66.3334 119.352 66.6689C119.338 77.7389 114.935 88.3517 107.108 96.1804C99.2816 104.009 88.6698 108.415 77.5998 108.431H76.5516C76.1952 108.431 75.8387 108.431 75.5033 108.431C75.1679 108.431 74.801 108.431 74.4551 108.368L73.4802 108.274L72.6416 108.19L72.1175 108.117L71.3837 108.012H71.3208L70.5765 107.897L69.9581 107.781L69.0566 107.603C67.4344 107.261 65.8346 106.819 64.266 106.282L63.3541 105.957C63.0501 105.853 62.7565 105.748 62.463 105.622L61.268 105.129L60.5238 104.804L59.7166 104.427C59.3811 104.259 59.0352 104.102 58.6683 103.924C58.3014 103.746 58.1128 103.641 57.8402 103.484L56.8968 102.959C56.6033 102.792 56.3098 102.624 56.0268 102.446C55.4922 102.121 54.9785 101.796 54.4648 101.45L54.3495 101.366L53.5319 100.79C53.2594 100.601 52.9868 100.412 52.7142 100.203L51.9176 99.5946L51.2781 99.0809C50.9427 98.8084 50.6073 98.5253 50.2299 98.2318L49.5695 97.6553C49.3179 97.4352 49.0768 97.215 48.8357 96.9739C48.5946 96.7328 48.3535 96.5127 48.1229 96.2716C47.6547 95.8243 47.2039 95.3526 46.7707 94.8565C46.54 94.6049 46.299 94.3428 46.0683 94.0703C45.6386 93.5776 45.2088 93.022 44.8104 92.5503L44.0766 91.5859L43.6573 91.0094L43.521 90.8207C43.3428 90.5796 43.1751 90.3385 43.0179 90.0869C42.8606 89.8353 42.7034 89.6152 42.5462 89.3741C42.3889 89.133 42.1059 88.6927 41.8962 88.3258C41.5608 87.7738 41.2358 87.2077 40.9214 86.6277C40.3239 85.527 39.7683 84.3844 39.2651 83.2208C39.1498 82.9483 39.0345 82.6757 38.9297 82.4032C38.8458 82.204 38.762 81.9944 38.6886 81.7952C38.6152 81.596 38.5418 81.4178 38.4789 81.2292L38.437 80.6316L38.1435 79.7826C38.0596 79.489 37.9653 79.206 37.8814 78.9125C37.877 78.8812 37.877 78.8495 37.8814 78.8182C37.7975 78.5456 37.7137 78.2521 37.6403 77.9691C37.5669 77.6861 37.4621 77.3716 37.3888 77.0571C37.1581 76.1346 36.9485 75.2122 36.7808 74.2687L36.6236 73.3253C36.5711 73.0108 36.5292 72.6859 36.4873 72.3714C33.2477 71.2406 30.1817 69.6635 27.3779 67.6857C27.5499 77.6022 30.6384 87.2485 36.258 95.4208C41.8777 103.593 49.7796 109.93 58.9777 113.639C68.1758 117.349 78.2626 118.268 87.9796 116.281C97.6966 114.294 106.613 109.49 113.617 102.468C120.621 95.4453 125.402 86.5158 127.363 76.7936C129.323 67.0714 128.378 56.9869 124.644 47.7987C120.909 38.6105 114.552 30.7255 106.365 25.1276C98.1776 19.5297 88.5231 16.4668 78.6062 16.3212L78.5328 16.2583ZM36.2252 62.8113L36.3195 61.8888L36.4453 60.9664C36.4453 60.6624 36.5292 60.3584 36.5816 60.0544C36.634 59.7504 36.6864 59.4464 36.7388 59.1424C36.9554 57.9448 37.2318 56.7588 37.5669 55.5888C37.6403 55.2953 37.7242 55.0018 37.8185 54.7188C37.8814 54.4986 37.9548 54.2785 38.0282 54.0479C38.1016 53.8173 38.0282 53.8487 38.1121 53.7544L38.3741 52.9996C38.4435 52.7791 38.524 52.5622 38.6152 52.3497C38.6152 52.203 38.7096 52.0772 38.762 51.9304C38.9507 51.4482 39.1498 50.966 39.349 50.4943C39.5482 50.0226 39.8312 49.3727 40.0933 48.8276L40.4811 48.0519C40.5566 47.8835 40.6406 47.7191 40.7327 47.5592L41.0367 46.9827C41.0675 46.9142 41.1025 46.8477 41.1415 46.7835C41.2883 46.5214 41.4245 46.2698 41.5818 46.0078C41.739 45.7457 41.8438 45.5465 41.9801 45.3264L42.347 44.7289C42.4518 44.5507 42.5671 44.3725 42.6824 44.1943C43.1646 43.45 43.6678 42.7163 44.2024 42.0034C44.3701 41.7624 44.5484 41.5317 44.737 41.3011C44.9257 41.0705 45.0095 40.9342 45.1563 40.7665C45.5756 40.2424 46.0054 39.7182 46.4562 39.2151C46.6344 39.0054 46.823 38.7958 47.0117 38.5966C47.4101 38.1564 47.8084 37.7266 48.2382 37.3177C48.4059 37.1395 48.5737 36.9718 48.7519 36.8041C48.9301 36.6364 49.2864 36.2905 49.559 36.0389L50.167 35.4938C50.5234 35.1688 50.9008 34.8543 51.2781 34.5399L51.8547 34.0786C52.7038 33.4078 53.5633 32.7683 54.4648 32.1708L55.2301 31.6572L55.8485 31.2693L56.3202 30.9758C56.5509 30.8395 56.7815 30.6928 57.0226 30.567C57.2637 30.4412 57.6096 30.2315 57.9031 30.0743C58.1966 29.9171 58.5006 29.7493 58.7941 29.6026C59.0876 29.4558 59.3917 29.2881 59.6957 29.1518H59.7481C60.2827 28.9003 60.7963 28.6487 61.3833 28.4181C61.9704 28.1874 62.201 28.0721 62.6203 27.9149C63.0396 27.7577 63.1653 27.6948 63.4484 27.6004L64.1822 27.3384L64.5595 27.2021L65.3877 26.94L66.3626 26.6465L67.4108 26.374L68.2913 26.1538L68.9622 26.0071L69.2662 25.9442L69.7694 25.8394L70.6709 25.6716L71.3103 25.5668L71.9917 25.4725C72.5682 25.3886 73.1657 25.3152 73.7527 25.2628C72.2904 22.2789 70.3058 19.5808 67.893 17.2961C58.1096 19.2683 49.129 24.0926 42.0832 31.1608C35.0373 38.2291 30.2416 47.2249 28.3004 57.0145C30.5822 59.3958 33.2646 61.3579 36.2252 62.8113Z" fill="url(#paint18_linear_157_634)"/>
<path d="M84.6981 30.785C82.4223 30.3418 80.1087 30.1207 77.7901 30.1246C77.0563 30.1246 76.3226 30.1246 75.5993 30.1875C76.2558 32.5781 76.5872 35.0462 76.5846 37.5253C76.5864 41.8321 75.5965 46.0815 73.6915 49.9441C71.7866 53.8067 69.0178 57.1788 65.5998 59.7991C62.1818 62.4194 58.2063 64.2174 53.9815 65.0539C49.7567 65.8904 45.396 65.7428 41.2374 64.6227C41.1955 65.3215 41.1745 66.0204 41.1745 66.7192C41.1718 69.0769 41.4 71.4293 41.8559 73.7425C47.7313 74.825 53.7819 74.4609 59.485 72.6817C65.1882 70.9025 70.3725 67.7617 74.5902 63.5306C78.808 59.2995 81.9323 54.1052 83.6933 48.3964C85.4544 42.6876 85.7992 36.636 84.6981 30.7641V30.785ZM48.5228 0.742052C41.2735 0.745109 34.1864 2.88836 28.1502 6.90307C22.1141 10.9178 17.3976 16.6252 14.5922 23.3097C11.7867 29.9942 11.0172 37.3582 12.3802 44.4782C13.7431 51.5983 17.1778 58.1575 22.2536 63.3333C22.493 59.3611 23.1536 55.4256 24.2243 51.5929C21.1188 46.2435 19.8678 40.0179 20.6658 33.8841C21.4638 27.7503 24.2661 22.052 28.6369 17.6752C33.0077 13.2985 38.7021 10.4884 44.8348 9.68206C50.9675 8.87568 57.1948 10.1182 62.5485 13.2163C66.3754 12.1302 70.308 11.459 74.2785 11.2141C67.3996 4.47966 58.1494 0.718616 48.5228 0.742052Z" fill="url(#paint19_linear_157_634)"/>
<defs>
<linearGradient id="paint0_linear_157_634" x1="2.1728" y1="184.304" x2="2.1728" y2="-34.1831" gradientUnits="userSpaceOnUse">
<stop/>
<stop offset="0.33"/>
<stop offset="0.52"/>
<stop offset="0.73"/>
<stop offset="1"/>
</linearGradient>
<linearGradient id="paint1_linear_157_634" x1="14.2405" y1="193.319" x2="14.2405" y2="8.51228" gradientUnits="userSpaceOnUse">
<stop/>
<stop offset="0.33"/>
<stop offset="0.52"/>
<stop offset="0.73"/>
<stop offset="1"/>
</linearGradient>
<linearGradient id="paint2_linear_157_634" x1="27.2774" y1="215.485" x2="27.2774" y2="7.78313" gradientUnits="userSpaceOnUse">
<stop/>
<stop offset="0.33"/>
<stop offset="0.52"/>
<stop offset="0.73"/>
<stop offset="1"/>
</linearGradient>
<linearGradient id="paint3_linear_157_634" x1="43.2407" y1="249.422" x2="43.2407" y2="11.2377" gradientUnits="userSpaceOnUse">
<stop/>
<stop offset="0.33"/>
<stop offset="0.52"/>
<stop offset="0.73"/>
<stop offset="1"/>
</linearGradient>
<linearGradient id="paint4_linear_157_634" x1="54.4385" y1="384.605" x2="54.4385" y2="-111.743" gradientUnits="userSpaceOnUse">
<stop/>
<stop offset="0.33"/>
<stop offset="0.52"/>
<stop offset="0.73"/>
<stop offset="1"/>
</linearGradient>
<linearGradient id="paint5_linear_157_634" x1="66.4182" y1="250.04" x2="66.4182" y2="77.7914" gradientUnits="userSpaceOnUse">
<stop/>
<stop offset="0.33"/>
<stop offset="0.52"/>
<stop offset="0.73"/>
<stop offset="1"/>
</linearGradient>
<linearGradient id="paint6_linear_157_634" x1="79.8787" y1="279.433" x2="79.8787" y2="83.41" gradientUnits="userSpaceOnUse">
<stop/>
<stop offset="0.33"/>
<stop offset="0.52"/>
<stop offset="0.73"/>
<stop offset="1"/>
</linearGradient>
<linearGradient id="paint7_linear_157_634" x1="98.7024" y1="291.069" x2="98.7024" y2="108.725" gradientUnits="userSpaceOnUse">
<stop/>
<stop offset="0.33"/>
<stop offset="0.52"/>
<stop offset="0.73"/>
<stop offset="1"/>
</linearGradient>
<linearGradient id="paint8_linear_157_634" x1="112.034" y1="317.569" x2="112.034" y2="121.556" gradientUnits="userSpaceOnUse">
<stop/>
<stop offset="0.33"/>
<stop offset="0.52"/>
<stop offset="0.73"/>
<stop offset="1"/>
</linearGradient>
<linearGradient id="paint9_linear_157_634" x1="125.042" y1="330.925" x2="125.042" y2="137.711" gradientUnits="userSpaceOnUse">
<stop/>
<stop offset="0.33"/>
<stop offset="0.52"/>
<stop offset="0.73"/>
<stop offset="1"/>
</linearGradient>
<linearGradient id="paint10_linear_157_634" x1="137.941" y1="349.761" x2="137.941" y2="153.737" gradientUnits="userSpaceOnUse">
<stop/>
<stop offset="0.33"/>
<stop offset="0.52"/>
<stop offset="0.73"/>
<stop offset="1"/>
</linearGradient>
<linearGradient id="paint11_linear_157_634" x1="6.362" y1="166.696" x2="6.362" y2="9.75146" gradientUnits="userSpaceOnUse">
<stop/>
<stop offset="0.33"/>
<stop offset="0.52"/>
<stop offset="0.73"/>
<stop offset="1"/>
</linearGradient>
<linearGradient id="paint12_linear_157_634" x1="27.8383" y1="187.422" x2="27.8383" y2="32.238" gradientUnits="userSpaceOnUse">
<stop/>
<stop offset="0.33"/>
<stop offset="0.52"/>
<stop offset="0.73"/>
<stop offset="1"/>
</linearGradient>
<linearGradient id="paint13_linear_157_634" x1="50.9712" y1="195.306" x2="50.9712" y2="73.834" gradientUnits="userSpaceOnUse">
<stop/>
<stop offset="0.33"/>
<stop offset="0.52"/>
<stop offset="0.73"/>
<stop offset="1"/>
</linearGradient>
<linearGradient id="paint14_linear_157_634" x1="73.1725" y1="245.542" x2="73.1725" y2="66.6255" gradientUnits="userSpaceOnUse">
<stop/>
<stop offset="0.33"/>
<stop offset="0.52"/>
<stop offset="0.73"/>
<stop offset="1"/>
</linearGradient>
<linearGradient id="paint15_linear_157_634" x1="92.3737" y1="253.095" x2="92.3737" y2="93.2887" gradientUnits="userSpaceOnUse">
<stop/>
<stop offset="0.33"/>
<stop offset="0.52"/>
<stop offset="0.73"/>
<stop offset="1"/>
</linearGradient>
<linearGradient id="paint16_linear_157_634" x1="113.298" y1="266.381" x2="113.298" y2="117.32" gradientUnits="userSpaceOnUse">
<stop/>
<stop offset="0.33"/>
<stop offset="0.52"/>
<stop offset="0.73"/>
<stop offset="1"/>
</linearGradient>
<linearGradient id="paint17_linear_157_634" x1="133.994" y1="305.981" x2="133.994" y2="137.411" gradientUnits="userSpaceOnUse">
<stop/>
<stop offset="0.33"/>
<stop offset="0.52"/>
<stop offset="0.73"/>
<stop offset="1"/>
</linearGradient>
<linearGradient id="paint18_linear_157_634" x1="27.3046" y1="66.7423" x2="128.283" y2="66.7423" gradientUnits="userSpaceOnUse">
<stop/>
<stop offset="0.33"/>
<stop offset="0.52"/>
<stop offset="0.73"/>
<stop offset="1"/>
</linearGradient>
<linearGradient id="paint19_linear_157_634" x1="11.7186" y1="37.5567" x2="85.3271" y2="37.5567" gradientUnits="userSpaceOnUse">
<stop/>
<stop offset="0.33"/>
<stop offset="0.52"/>
<stop offset="0.73"/>
<stop offset="1"/>
</linearGradient>
</defs>
</svg>
