<svg width="140" height="157" viewBox="0 0 140 157" fill="none" xmlns="http://www.w3.org/2000/svg">
<path d="M62.8386 25.7848L75.2069 47.2106C76.6055 47.2106 78.004 47.2106 79.4216 47.2106C83.037 47.2106 86.6143 47.2962 90.125 47.4484L62.8386 0.191895L32.8596 52.1199C38.0638 50.9306 43.5915 49.9411 49.3666 49.161L62.8386 25.7848ZM40.6422 46.497L62.8386 8.04103L83.1702 43.2432C81.9238 43.2432 80.668 43.2432 79.4216 43.2432H77.4713L66.2541 23.8154L62.8386 17.8976L59.423 23.8154L46.912 45.4885C44.7935 45.793 42.7036 46.1291 40.6422 46.497Z" fill="url(#paint0_linear_157_507)"/>
<path d="M44.4499 118.091C28.9895 111.288 19.5419 102.193 19.5419 92.2029C19.5959 88.7709 20.6399 85.4275 22.5484 82.5746H110.43L94.4179 54.8506C100.507 54.3463 106.786 54.08 113.275 54.08C121.667 54.0692 130.052 54.5297 138.392 55.4595L136.994 55.0314L138.402 55.4595L140 55.6498C138.592 55.2882 137.146 54.9552 135.7 54.6222C121.221 51.5101 106.449 49.9694 91.6398 50.0269H91.3544C87.7073 50.0269 84.1237 50.1126 80.6035 50.2838C79.4237 50.3409 78.2535 50.398 77.0928 50.4741C66.6505 51.0945 56.2751 52.5548 46.0673 54.8411C45.2491 55.0218 44.4499 55.2216 43.6507 55.4119C38.3953 56.6682 33.2251 58.2571 28.1712 60.169C10.808 66.8288 0 76.2192 0 86.6181C0 100.004 17.8199 111.688 44.4499 118.091ZM80.5559 56.468L88.2338 69.7877H37.495C48.2365 63.7653 63.1736 59.1034 80.5559 56.468Z" fill="url(#paint1_linear_157_507)"/>
<path d="M8.47493 144.343C8.95039 144.125 9.37988 143.818 9.74032 143.439C10.0995 143.067 10.3866 142.631 10.5871 142.154C10.7946 141.667 10.8983 141.142 10.8915 140.613V139.528H8.37028V140.423C8.37633 140.715 8.3246 141.006 8.21806 141.279C8.14271 141.488 8.01499 141.675 7.84702 141.821C7.69242 141.949 7.51478 142.046 7.32373 142.107C7.1511 142.16 6.9717 142.189 6.79094 142.192C6.56513 142.218 6.33658 142.184 6.12796 142.094C5.91935 142.004 5.73792 141.86 5.60168 141.679C5.36492 141.293 5.24893 140.846 5.26868 140.394V131.441C5.25245 130.936 5.35681 130.434 5.57314 129.976C5.70576 129.773 5.89322 129.612 6.11379 129.511C6.33437 129.41 6.57903 129.373 6.81948 129.405C7.03788 129.398 7.25479 129.444 7.45186 129.538C7.64893 129.633 7.82037 129.773 7.95166 129.948C8.23261 130.312 8.38034 130.762 8.37028 131.223V132.06H10.8725V131.108C10.8799 130.533 10.7765 129.961 10.568 129.424C10.3728 128.928 10.0856 128.473 9.7213 128.083C9.35193 127.703 8.90723 127.404 8.41572 127.206C7.92422 127.008 7.39676 126.914 6.86707 126.932C6.30077 126.925 5.73858 127.029 5.2116 127.236C4.73017 127.433 4.29096 127.721 3.91769 128.083C3.55437 128.45 3.26951 128.887 3.08045 129.367C2.8796 129.876 2.77943 130.419 2.78552 130.966V140.603C2.75936 141.287 2.88951 141.967 3.16607 142.592C3.39498 143.073 3.71856 143.504 4.11748 143.857C4.50784 144.178 4.96189 144.411 5.44945 144.542C5.92052 144.673 6.40684 144.74 6.89561 144.742C7.44473 144.724 7.98349 144.588 8.47493 144.343Z" fill="url(#paint2_linear_157_507)"/>
<path d="M31.0403 131.145C31.057 130.491 30.9303 129.841 30.6693 129.242C30.4485 128.731 30.1246 128.271 29.7179 127.891C29.3108 127.55 28.8471 127.282 28.3478 127.101C27.8628 126.925 27.351 126.835 26.8351 126.835C26.3191 126.833 25.8069 126.924 25.3224 127.101C24.8292 127.277 24.3739 127.545 23.9809 127.891C23.5729 128.27 23.2488 128.73 23.0295 129.242C22.7717 129.842 22.6483 130.492 22.6679 131.145V140.421C22.6464 141.074 22.7699 141.724 23.0295 142.324C23.2498 142.821 23.5742 143.266 23.9809 143.627C24.3681 143.985 24.8247 144.261 25.3224 144.436C25.8064 144.616 26.3185 144.71 26.8351 144.712C27.3515 144.708 27.8634 144.615 28.3478 144.436C28.8481 144.254 29.3097 143.98 29.7083 143.627C30.115 143.266 30.4394 142.821 30.6598 142.324C30.9226 141.725 31.0493 141.075 31.0308 140.421L31.0403 131.145ZM28.5286 140.421C28.5491 140.668 28.5145 140.916 28.4273 141.148C28.3401 141.38 28.2024 141.59 28.0244 141.762C27.6942 142.047 27.2707 142.199 26.8351 142.19C26.3967 142.199 25.9703 142.046 25.6363 141.762C25.4582 141.59 25.3206 141.38 25.2334 141.148C25.1462 140.916 25.1116 140.668 25.1321 140.421V131.173C25.1116 130.926 25.1462 130.678 25.2334 130.446C25.3206 130.214 25.4582 130.004 25.6363 129.832C25.9703 129.548 26.3967 129.395 26.8351 129.404C27.2707 129.395 27.6942 129.547 28.0244 129.832C28.2024 130.004 28.3401 130.214 28.4273 130.446C28.5145 130.678 28.5491 130.926 28.5286 131.173V140.421Z" fill="url(#paint3_linear_157_507)"/>
<path d="M48.7793 136.274H48.7317L45.5064 126.998H43.0994V144.514H45.6016V133.867H45.6587L48.1133 141.393H49.3692L51.8523 133.867H51.8999V144.514H54.4116V126.998H51.976L48.7793 136.274Z" fill="url(#paint4_linear_157_507)"/>
<path d="M73.6212 128.226C73.2331 127.794 72.7422 127.467 72.1941 127.275C71.6078 127.083 70.9938 126.989 70.3769 126.999H66.5713V144.514H69.083V137.683H70.3674C71.1482 137.717 71.9247 137.55 72.6222 137.198C73.1954 136.884 73.6723 136.42 74.0018 135.856C74.2918 135.391 74.4888 134.874 74.5821 134.334C74.6777 133.672 74.7223 133.004 74.7154 132.336C74.7407 131.498 74.6576 130.66 74.468 129.843C74.3268 129.241 74.0354 128.685 73.6212 128.226ZM72.3559 133.563C72.3404 133.877 72.2627 134.184 72.1275 134.467C71.9933 134.735 71.7764 134.951 71.5091 135.086C71.1393 135.253 70.7345 135.328 70.3293 135.305H69.1211V129.358H70.4245C70.8143 129.334 71.2039 129.409 71.5567 129.577C71.8172 129.72 72.0242 129.944 72.1465 130.214C72.2853 130.513 72.3598 130.837 72.3654 131.166C72.3654 131.534 72.3654 131.924 72.3654 132.336C72.3939 132.793 72.3844 133.202 72.3559 133.563Z" fill="url(#paint5_linear_157_507)"/>
<path d="M88.2943 126.998L84.384 144.514H86.8957L87.6378 140.755H91.0534L91.7955 144.514H94.2977L90.3874 126.998H88.2943ZM88.0755 138.415L89.3028 132.069H89.3599L90.5872 138.415H88.0755Z" fill="url(#paint6_linear_157_507)"/>
<path d="M114.066 144.514V126.998H111.554V137.559H111.507L107.72 126.998H105.304V144.514H107.815V133.991H107.863L111.707 144.514H114.066Z" fill="url(#paint7_linear_157_507)"/>
<path d="M131.012 144.514V137.112L134.457 126.998H131.802L129.785 133.962H129.738L127.721 126.998H125.057L128.501 137.112V144.514H131.012Z" fill="url(#paint8_linear_157_507)"/>
<path d="M4.88137 156.209V151.813H6.27994V151.128H2.72168V151.813H4.11073V156.209H4.88137Z" fill="url(#paint9_linear_157_507)"/>
<path d="M11.8936 151.112L10.0479 156.202H10.8661L11.2561 155.061H13.159L13.5586 156.202H14.3672L12.5215 151.112H11.8936ZM11.475 154.385L12.2075 152.159L12.9401 154.385H11.475Z" fill="url(#paint10_linear_157_507)"/>
<path d="M19.9416 152.212C20.0296 152.101 20.1398 152.01 20.265 151.945C20.4133 151.873 20.5757 151.834 20.7408 151.831C20.9671 151.832 21.1872 151.905 21.3687 152.04C21.5252 152.183 21.643 152.363 21.7112 152.564H22.5199C22.4479 152.155 22.2441 151.78 21.9395 151.498C21.6088 151.207 21.181 151.051 20.7408 151.06C20.3871 151.056 20.0399 151.156 19.7418 151.346C19.4911 151.5 19.2846 151.716 19.1424 151.974C19.0568 152.124 18.9988 152.288 18.9711 152.459C18.9077 153.247 18.9077 154.04 18.9711 154.828C18.9869 154.919 19.0124 155.009 19.0472 155.094C19.0472 155.161 19.1043 155.237 19.1424 155.313C19.2826 155.57 19.4898 155.783 19.7418 155.932C20.0371 156.129 20.3855 156.232 20.7408 156.227C20.9788 156.229 21.2151 156.184 21.4355 156.094C21.656 156.004 21.8563 155.871 22.0246 155.703C22.193 155.534 22.3261 155.334 22.416 155.114C22.506 154.893 22.551 154.657 22.5484 154.419V153.391H20.7408V154.114H21.7778V154.381C21.7818 154.522 21.7578 154.663 21.7072 154.796C21.6566 154.928 21.5803 155.049 21.4828 155.151C21.3888 155.253 21.2736 155.333 21.1455 155.386C21.0173 155.438 20.8792 155.462 20.7408 155.456C20.5779 155.461 20.4167 155.422 20.2746 155.342C20.148 155.283 20.0371 155.195 19.9511 155.085C19.8593 154.97 19.8031 154.831 19.7893 154.685C19.7405 154.351 19.7214 154.014 19.7323 153.677C19.7217 153.333 19.7408 152.99 19.7893 152.649C19.7927 152.491 19.846 152.338 19.9416 152.212Z" fill="url(#paint11_linear_157_507)"/>
<path d="M27.7222 151.128V156.209H30.976V155.476H28.4928V151.128H27.7222Z" fill="url(#paint12_linear_157_507)"/>
<path d="M36.7572 151.112H35.9866V156.193H36.7572V151.112Z" fill="url(#paint13_linear_157_507)"/>
<path d="M42.1089 151.128V156.209H42.8795V152.594H42.8986L45.1915 156.209H45.9241V151.128H45.1534V154.734H45.1344L42.832 151.128H42.1089Z" fill="url(#paint14_linear_157_507)"/>
<path d="M54.5204 151.851V151.128H51.2761V156.209H54.5204V155.476H52.0468V153.983H54.1589V153.307H52.0468V151.851H54.5204Z" fill="url(#paint15_linear_157_507)"/>
<path d="M65.5858 151.974C65.5001 152.124 65.4421 152.289 65.4145 152.459C65.3384 153.247 65.3384 154.04 65.4145 154.828C65.4276 154.919 65.4499 155.008 65.4811 155.095L65.5858 155.313C65.7222 155.57 65.9262 155.784 66.1756 155.932C66.471 156.129 66.8194 156.232 67.1746 156.227C67.4143 156.23 67.6522 156.186 67.8744 156.096C68.0966 156.006 68.2986 155.873 68.4685 155.704C68.805 155.361 68.993 154.899 68.9918 154.419V153.392H67.1841V154.115H68.2212V154.381C68.2257 154.668 68.1162 154.945 67.9167 155.152C67.8226 155.253 67.7075 155.333 67.5793 155.386C67.4511 155.439 67.313 155.463 67.1746 155.456C67.012 155.459 66.8515 155.419 66.7084 155.342C66.5831 155.281 66.4727 155.193 66.385 155.085C66.2812 154.963 66.2122 154.815 66.1851 154.657C66.1363 154.323 66.1172 153.986 66.1281 153.649C66.1175 153.305 66.1366 152.961 66.1851 152.621C66.2162 152.467 66.2848 152.323 66.385 152.202C66.4753 152.094 66.585 152.004 66.7084 151.936C66.8549 151.869 67.0136 151.834 67.1746 151.831C67.4009 151.832 67.6211 151.905 67.8025 152.041C67.959 152.183 68.0768 152.363 68.145 152.564H68.9633C68.8887 152.154 68.6815 151.779 68.3734 151.498C68.0441 151.205 67.6153 151.049 67.1746 151.061C66.8209 151.057 66.4738 151.156 66.1756 151.346C65.9276 151.5 65.7243 151.717 65.5858 151.974Z" fill="url(#paint16_linear_157_507)"/>
<path d="M74.2291 151.974C74.1434 152.124 74.0854 152.288 74.0578 152.459C73.9817 153.247 73.9817 154.04 74.0578 154.828C74.0709 154.919 74.0932 155.008 74.1244 155.094L74.2291 155.313C74.3682 155.567 74.5716 155.78 74.8189 155.931C75.1143 156.129 75.4627 156.232 75.8179 156.226C76.1791 156.232 76.5337 156.129 76.8359 155.931C77.0802 155.783 77.278 155.568 77.4068 155.313C77.504 155.168 77.5659 155.001 77.5875 154.828C77.6509 154.039 77.6509 153.247 77.5875 152.459C77.5659 152.285 77.504 152.119 77.4068 151.974C77.2758 151.717 77.0787 151.5 76.8359 151.346C76.5303 151.156 76.1774 151.057 75.8179 151.06C75.4642 151.056 75.117 151.155 74.8189 151.346C74.5731 151.502 74.3703 151.718 74.2291 151.974ZM74.8379 152.62C74.86 152.466 74.9261 152.32 75.0282 152.202C75.1185 152.094 75.2282 152.003 75.3517 151.935C75.4982 151.869 75.6569 151.833 75.8179 151.831C75.985 151.833 76.15 151.869 76.3031 151.935C76.421 152.004 76.5244 152.094 76.6076 152.202C76.7077 152.323 76.7763 152.467 76.8074 152.62C76.8559 152.961 76.875 153.305 76.8644 153.648C76.8753 153.985 76.8562 154.323 76.8074 154.657C76.7783 154.801 76.7181 154.936 76.631 155.055C76.5439 155.173 76.432 155.271 76.3031 155.342C76.1544 155.422 75.9869 155.461 75.8179 155.456C75.6553 155.458 75.4948 155.419 75.3517 155.342C75.2264 155.281 75.1159 155.193 75.0282 155.085C74.9239 154.964 74.8577 154.815 74.8379 154.657C74.7891 154.323 74.77 153.985 74.7809 153.648C74.7703 153.305 74.7894 152.961 74.8379 152.62Z" fill="url(#paint17_linear_157_507)"/>
<path d="M82.8198 156.209H86.0641V155.476H83.5905V153.983H85.7026V153.307H83.5905V151.851H86.0641V151.128H82.8198V156.209Z" fill="url(#paint18_linear_157_507)"/>
<path d="M92.5842 155.458C92.0577 155.466 91.5453 155.287 91.138 154.953L90.6338 155.534C91.1618 155.99 91.8388 156.237 92.5366 156.228C93.7068 156.228 94.2967 155.724 94.3253 154.753C94.3287 154.407 94.2109 154.071 93.9923 153.802C93.7158 153.501 93.3345 153.317 92.9267 153.288L92.3558 153.212C92.1521 153.187 91.9619 153.097 91.8136 152.955C91.7602 152.905 91.7174 152.845 91.688 152.778C91.6586 152.711 91.643 152.638 91.6423 152.565C91.6357 152.459 91.6557 152.353 91.7006 152.257C91.7455 152.16 91.8137 152.077 91.8992 152.013C92.0703 151.889 92.2778 151.826 92.489 151.833C92.9362 151.841 93.3717 151.976 93.7449 152.223L94.173 151.585C93.6897 151.249 93.116 151.067 92.5271 151.062C92.0843 151.041 91.6497 151.187 91.3093 151.471C91.1629 151.608 91.0473 151.775 90.9702 151.961C90.8932 152.146 90.8563 152.346 90.8621 152.546C90.8534 152.897 90.9794 153.237 91.2142 153.498C91.479 153.773 91.8331 153.945 92.2131 153.983L92.8886 154.078C93.3358 154.154 93.5546 154.382 93.5546 154.763C93.5546 155.144 93.2502 155.448 92.5842 155.458Z" fill="url(#paint19_linear_157_507)"/>
<path d="M109.009 156.209V151.128H108.238V153.307H106.221V151.128H105.45V156.209H106.221V153.983H108.238V156.209H109.009Z" fill="url(#paint20_linear_157_507)"/>
<path d="M117.613 151.851V151.128H114.369V156.209H117.613V155.476H115.139V153.983H117.251V153.307H115.139V151.851H117.613Z" fill="url(#paint21_linear_157_507)"/>
<path d="M125.171 153.948C125.46 153.847 125.709 153.656 125.881 153.402C126.052 153.148 126.137 152.846 126.122 152.54C126.126 152.332 126.082 152.125 125.992 151.937C125.903 151.749 125.772 151.584 125.609 151.455C125.32 151.219 124.954 151.097 124.581 151.113H122.593V156.203H123.363V154.034H124.315L125.371 156.203H126.322L125.171 153.948ZM123.401 153.348V151.836H124.61C124.809 151.819 125.007 151.873 125.171 151.988C125.259 152.056 125.328 152.144 125.373 152.246C125.418 152.347 125.437 152.458 125.428 152.568C125.431 152.67 125.414 152.77 125.378 152.865C125.342 152.96 125.288 153.046 125.218 153.12C125.133 153.207 125.031 153.274 124.918 153.318C124.804 153.363 124.683 153.383 124.562 153.377L123.401 153.348Z" fill="url(#paint22_linear_157_507)"/>
<path d="M134.505 151.851V151.128H131.261V156.209H134.505V155.476H132.031V153.983H134.144V153.307H132.031V151.851H134.505Z" fill="url(#paint23_linear_157_507)"/>
<defs>
<linearGradient id="paint0_linear_157_507" x1="32.8596" y1="26.1178" x2="90.125" y2="26.1178" gradientUnits="userSpaceOnUse">
<stop/>
<stop offset="0.33"/>
<stop offset="0.52"/>
<stop offset="0.73"/>
<stop offset="1"/>
</linearGradient>
<linearGradient id="paint1_linear_157_507" x1="0" y1="84.0588" x2="140" y2="84.0588" gradientUnits="userSpaceOnUse">
<stop/>
<stop offset="0.33"/>
<stop offset="0.52"/>
<stop offset="0.73"/>
<stop offset="1"/>
</linearGradient>
<linearGradient id="paint2_linear_157_507" x1="2.776" y1="135.77" x2="10.8915" y2="135.77" gradientUnits="userSpaceOnUse">
<stop/>
<stop offset="0.33"/>
<stop offset="0.52"/>
<stop offset="0.73"/>
<stop offset="1"/>
</linearGradient>
<linearGradient id="paint3_linear_157_507" x1="22.6299" y1="135.768" x2="31.0403" y2="135.768" gradientUnits="userSpaceOnUse">
<stop/>
<stop offset="0.33"/>
<stop offset="0.52"/>
<stop offset="0.73"/>
<stop offset="1"/>
</linearGradient>
<linearGradient id="paint4_linear_157_507" x1="43.0994" y1="135.761" x2="54.4116" y2="135.761" gradientUnits="userSpaceOnUse">
<stop/>
<stop offset="0.33"/>
<stop offset="0.52"/>
<stop offset="0.73"/>
<stop offset="1"/>
</linearGradient>
<linearGradient id="paint5_linear_157_507" x1="66.6093" y1="135.752" x2="74.7534" y2="135.752" gradientUnits="userSpaceOnUse">
<stop/>
<stop offset="0.33"/>
<stop offset="0.52"/>
<stop offset="0.73"/>
<stop offset="1"/>
</linearGradient>
<linearGradient id="paint6_linear_157_507" x1="84.4221" y1="135.761" x2="94.3358" y2="135.761" gradientUnits="userSpaceOnUse">
<stop/>
<stop offset="0.33"/>
<stop offset="0.52"/>
<stop offset="0.73"/>
<stop offset="1"/>
</linearGradient>
<linearGradient id="paint7_linear_157_507" x1="105.304" y1="135.761" x2="114.066" y2="135.761" gradientUnits="userSpaceOnUse">
<stop/>
<stop offset="0.33"/>
<stop offset="0.52"/>
<stop offset="0.73"/>
<stop offset="1"/>
</linearGradient>
<linearGradient id="paint8_linear_157_507" x1="125.057" y1="135.761" x2="134.457" y2="135.761" gradientUnits="userSpaceOnUse">
<stop/>
<stop offset="0.33"/>
<stop offset="0.52"/>
<stop offset="0.73"/>
<stop offset="1"/>
</linearGradient>
<linearGradient id="paint9_linear_157_507" x1="2.72168" y1="153.669" x2="6.27994" y2="153.669" gradientUnits="userSpaceOnUse">
<stop/>
<stop offset="0.33"/>
<stop offset="0.52"/>
<stop offset="0.73"/>
<stop offset="1"/>
</linearGradient>
<linearGradient id="paint10_linear_157_507" x1="10.0479" y1="153.662" x2="14.3863" y2="153.662" gradientUnits="userSpaceOnUse">
<stop/>
<stop offset="0.33"/>
<stop offset="0.52"/>
<stop offset="0.73"/>
<stop offset="1"/>
</linearGradient>
<linearGradient id="paint11_linear_157_507" x1="18.9141" y1="153.658" x2="22.5389" y2="153.658" gradientUnits="userSpaceOnUse">
<stop/>
<stop offset="0.33"/>
<stop offset="0.52"/>
<stop offset="0.73"/>
<stop offset="1"/>
</linearGradient>
<linearGradient id="paint12_linear_157_507" x1="27.7222" y1="153.669" x2="30.976" y2="153.669" gradientUnits="userSpaceOnUse">
<stop/>
<stop offset="0.33"/>
<stop offset="0.52"/>
<stop offset="0.73"/>
<stop offset="1"/>
</linearGradient>
<linearGradient id="paint13_linear_157_507" x1="35.9866" y1="153.662" x2="36.7572" y2="153.662" gradientUnits="userSpaceOnUse">
<stop/>
<stop offset="0.33"/>
<stop offset="0.52"/>
<stop offset="0.73"/>
<stop offset="1"/>
</linearGradient>
<linearGradient id="paint14_linear_157_507" x1="42.1089" y1="153.669" x2="45.9241" y2="153.669" gradientUnits="userSpaceOnUse">
<stop/>
<stop offset="0.33"/>
<stop offset="0.52"/>
<stop offset="0.73"/>
<stop offset="1"/>
</linearGradient>
<linearGradient id="paint15_linear_157_507" x1="51.2761" y1="153.669" x2="54.5204" y2="153.669" gradientUnits="userSpaceOnUse">
<stop/>
<stop offset="0.33"/>
<stop offset="0.52"/>
<stop offset="0.73"/>
<stop offset="1"/>
</linearGradient>
<linearGradient id="paint16_linear_157_507" x1="65.3574" y1="153.649" x2="68.9918" y2="153.649" gradientUnits="userSpaceOnUse">
<stop/>
<stop offset="0.33"/>
<stop offset="0.52"/>
<stop offset="0.73"/>
<stop offset="1"/>
</linearGradient>
<linearGradient id="paint17_linear_157_507" x1="74.0007" y1="153.648" x2="77.6351" y2="153.648" gradientUnits="userSpaceOnUse">
<stop/>
<stop offset="0.33"/>
<stop offset="0.52"/>
<stop offset="0.73"/>
<stop offset="1"/>
</linearGradient>
<linearGradient id="paint18_linear_157_507" x1="82.8198" y1="153.669" x2="86.0641" y2="153.669" gradientUnits="userSpaceOnUse">
<stop/>
<stop offset="0.33"/>
<stop offset="0.52"/>
<stop offset="0.73"/>
<stop offset="1"/>
</linearGradient>
<linearGradient id="paint19_linear_157_507" x1="90.6338" y1="153.65" x2="94.3633" y2="153.65" gradientUnits="userSpaceOnUse">
<stop/>
<stop offset="0.33"/>
<stop offset="0.52"/>
<stop offset="0.73"/>
<stop offset="1"/>
</linearGradient>
<linearGradient id="paint20_linear_157_507" x1="105.45" y1="153.669" x2="109.009" y2="153.669" gradientUnits="userSpaceOnUse">
<stop/>
<stop offset="0.33"/>
<stop offset="0.52"/>
<stop offset="0.73"/>
<stop offset="1"/>
</linearGradient>
<linearGradient id="paint21_linear_157_507" x1="114.369" y1="153.669" x2="117.613" y2="153.669" gradientUnits="userSpaceOnUse">
<stop/>
<stop offset="0.33"/>
<stop offset="0.52"/>
<stop offset="0.73"/>
<stop offset="1"/>
</linearGradient>
<linearGradient id="paint22_linear_157_507" x1="122.631" y1="153.662" x2="126.351" y2="153.662" gradientUnits="userSpaceOnUse">
<stop/>
<stop offset="0.33"/>
<stop offset="0.52"/>
<stop offset="0.73"/>
<stop offset="1"/>
</linearGradient>
<linearGradient id="paint23_linear_157_507" x1="131.261" y1="153.669" x2="134.505" y2="153.669" gradientUnits="userSpaceOnUse">
<stop/>
<stop offset="0.33"/>
<stop offset="0.52"/>
<stop offset="0.73"/>
<stop offset="1"/>
</linearGradient>
</defs>
</svg>
