<svg width="719" height="499" viewBox="0 0 719 499" fill="none" xmlns="http://www.w3.org/2000/svg">
<path d="M164.019 347.745L162.882 347.304C185.598 289.087 245.097 247.681 307.579 246.59C324.311 246.307 341.147 248.695 357.434 251.014C364.974 252.083 372.77 253.195 380.447 254.02C399.592 256.083 427.828 257.484 451.935 245.898C475.839 234.41 490.773 210.796 488.254 188.47L489.472 188.333C492.053 211.164 476.838 235.287 452.472 246.998C428.105 258.709 399.62 257.311 380.326 255.224C372.627 254.392 364.822 253.283 357.272 252.211C341.031 249.901 324.247 247.504 307.613 247.799C245.6 248.881 186.557 289.976 164.019 347.745Z" fill="white"/>
<path d="M634.675 328.003L633.608 327.415C642.114 312.027 650.91 296.118 653.774 278.43C656.244 263.151 653.655 242.443 638.976 230.147C627.847 220.828 612.703 218.647 598.058 216.538L594.926 216.084C579.407 213.809 562.245 209.754 552.618 196.937L553.593 196.203C562.952 208.669 579.83 212.654 595.1 214.881L598.232 215.332C613.044 217.465 628.362 219.67 639.759 229.215C654.831 241.837 657.503 263.014 654.992 278.625C652.08 296.523 643.232 312.527 634.675 328.003Z" fill="white"/>
<path d="M89.4383 383.795C80.6886 383.795 71.1193 382.364 62.0192 378.083C47.0117 371.015 36.7082 356.973 35.7668 342.31C35.3373 335.608 36.7752 328.905 38.1675 322.456C38.4173 321.295 38.6672 320.137 38.9048 318.98C40.4525 311.47 41.5706 303.509 39.2917 296.13C37.9834 297.421 36.5779 298.61 35.0874 299.686C30.2769 303.159 23.6597 304.709 18.6207 303.546C15.3609 302.793 12.8688 300.965 11.4186 298.257C9.77343 295.189 9.99583 291.463 12.0279 288.032C14.4316 283.965 18.7547 281.309 23.0443 281.263H23.1966C30.8375 281.263 37.0342 287.31 39.7609 293.848C45.2173 287.792 48.6538 279.794 49.0651 271.703C49.6044 261.207 45.0589 250.343 37.2048 243.37L38.0152 242.456C41.6928 245.726 44.6755 249.702 46.786 254.147C48.8965 258.593 50.0917 263.417 50.3006 268.334C50.5095 273.251 49.7278 278.159 48.002 282.768C46.2762 287.377 43.6414 291.591 40.2544 295.161C40.3184 295.347 40.3793 295.533 40.4403 295.722C42.8257 303.369 41.6863 311.537 40.1021 319.223C39.8614 320.387 39.6116 321.548 39.3618 322.712C37.9878 329.094 36.565 335.693 36.9855 342.231C37.8994 356.459 47.9288 370.098 62.5401 376.98C78.23 384.368 95.4432 383.101 107.121 380.737C122.116 377.69 136.368 371.454 150.154 365.412L150.644 366.531C136.797 372.596 122.494 378.881 107.37 381.928C101.469 383.14 95.4627 383.766 89.4383 383.795ZM23.2058 282.494H23.0656C19.1934 282.536 15.2755 284.958 13.0851 288.663C11.2784 291.71 11.0652 295.009 12.5032 297.693C13.7858 300.082 15.9976 301.699 18.901 302.37C23.6201 303.46 29.8382 301.989 34.3806 298.714C35.9798 297.559 37.4743 296.267 38.8469 294.851C36.4096 288.502 30.5023 282.494 23.2058 282.494Z" fill="white"/>
<path d="M306.509 494.575C311.251 492.662 313.544 487.267 311.631 482.525C309.718 477.783 304.323 475.49 299.581 477.403C294.839 479.316 292.546 484.711 294.459 489.453C296.372 494.195 301.767 496.488 306.509 494.575Z" fill="#FF5C33"/>
<path d="M36.9875 123.742C37.8192 120.185 35.6099 116.627 32.0529 115.796C28.496 114.964 24.9383 117.173 24.1067 120.73C23.275 124.287 25.4843 127.845 29.0413 128.677C32.5982 129.508 36.1558 127.299 36.9875 123.742Z" fill="#007BFF"/>
<path d="M713.5 322.959C716.537 321.7 717.98 318.218 716.722 315.181C715.464 312.143 711.981 310.701 708.944 311.959C705.906 313.217 704.464 316.699 705.722 319.737C706.98 322.774 710.462 324.217 713.5 322.959Z" fill="#007BFF"/>
<path d="M666.07 433.858L657.651 425.44L649.232 433.858L657.651 442.277L666.07 433.858Z" fill="#C7E9FF"/>
<path d="M393.767 23.1539L385.349 14.7351L376.93 23.1539L385.349 31.5728L393.767 23.1539Z" fill="#C7E9FF"/>
<path d="M550.827 224.974C550.154 237.161 543.128 279.724 534.071 309.764C531.106 319.632 527.92 328.15 524.651 333.798C524.31 334.407 523.965 334.989 523.606 335.532L497.917 333.442C499.745 328.998 501.593 324.428 503.462 319.732C506.609 311.78 509.771 303.488 512.812 294.902C521.001 271.794 528.276 246.608 531.874 220.548L550.827 224.974Z" fill="#FF5C33"/>
<path opacity="0.3" d="M534.071 309.764C531.107 319.632 527.92 328.15 524.651 333.798L503.462 319.738C506.609 311.787 509.771 303.494 512.812 294.909C521.315 298.11 528.511 302.939 534.071 309.764Z" fill="#4A191B"/>
<path d="M615.274 92.1741L585.393 253.082L420.156 222.397L430.746 165.38C425.626 167.362 420.055 167.874 414.66 166.861C398.912 163.936 388.46 149.148 391.308 133.815C394.157 118.481 409.219 108.428 424.97 111.352C430.37 112.34 435.386 114.819 439.45 118.509L450.037 61.4921L508.315 72.3135C506.386 67.4793 505.87 62.1969 506.825 57.0806C509.671 41.7594 524.751 31.6966 540.487 34.6182C556.222 37.5399 566.687 52.3463 563.842 67.6675C562.895 72.7845 560.521 77.5297 556.993 81.3558L615.274 92.1741Z" fill="#005EA2"/>
<path d="M510.856 93.7005C521.759 95.6777 532.282 90.8855 542.467 86.2516C544.676 85.2432 546.964 84.2013 549.197 83.2599C552.204 81.9895 555.202 80.9018 558.178 79.9726C558.413 79.6832 558.632 79.3785 558.855 79.0769C555.488 80.0902 552.177 81.2831 548.938 82.6506C546.699 83.595 544.405 84.64 542.19 85.6484C532.103 90.2426 521.671 94.9953 510.975 93.0485C498.575 90.7971 489.99 79.8995 486.413 68.2464L485.676 68.1093C487.094 72.9717 489.364 77.5443 492.378 81.6147C497.341 88.238 503.73 92.4057 510.856 93.7005Z" fill="white"/>
<path d="M585.253 150.138C576.793 150.927 568.046 151.741 560.247 154.824C542.239 161.944 529.818 182.018 530.04 203.645C530.183 217.781 535.234 232.237 544.475 245.478L545.416 245.655C536.002 232.371 530.844 217.839 530.701 203.639C530.482 182.28 542.732 162.459 560.488 155.439C568.201 152.393 576.899 151.582 585.314 150.799C591.946 150.19 598.701 149.544 604.961 147.783L605.089 147.095C598.917 148.865 592.184 149.492 585.253 150.138Z" fill="white"/>
<path d="M408.147 164.856C417.32 156.987 428.37 152.816 438.917 153.739C445.263 154.294 451.451 156.6 457.431 158.83C464.898 161.612 472.612 164.488 480.658 163.939C492.479 163.129 502.545 155.089 510.63 148.627L587.709 87.0559L586.85 86.8944L510.216 148.112C500.373 155.976 491.352 162.544 480.606 163.278C472.725 163.824 465.069 160.969 457.66 158.209C451.633 155.963 445.406 153.639 438.972 153.081C428.172 152.137 416.842 156.433 407.482 164.561L408.147 164.856Z" fill="white"/>
<path d="M456.846 213.452C446.847 207.411 435.298 204.096 423.638 203.633L423.517 204.288C435.094 204.733 446.573 208.017 456.505 214.016C464.46 218.873 471.342 225.3 476.731 232.905L477.673 233.078C472.171 225.159 465.078 218.474 456.846 213.452Z" fill="white"/>
<path d="M369.528 425.729L366.692 435.654L346.515 447.713L383.823 455.969L385.998 427.048L369.528 425.729Z" fill="#001F40"/>
<path d="M367.24 435.304L366.139 436.035L371.427 444.004L372.528 443.273L367.24 435.304Z" fill="white"/>
<path d="M495.508 370.586C495.508 370.586 490.599 379.396 479.394 385.599C470.587 390.474 457.885 393.761 440.611 389.864L428.824 386.848L423.694 385.538L417.6 383.978L402.672 380.167L402.593 380.472L389.444 430.883L385.727 430.445L368.743 428.434L363.438 427.8L368.794 376.898L370.488 360.776L450.994 351.688L474.663 349.025L475.881 348.879L480.259 353.72L490.234 364.764L495.508 370.586Z" fill="#FFA500"/>
<path d="M302.872 390.854L293.364 394.87L271.316 386.717L288.285 420.955L312.174 404.512L302.872 390.854Z" fill="#001F40"/>
<path d="M292.741 394.692L289.851 403.808L291.111 404.208L294.001 395.092L292.741 394.692Z" fill="white"/>
<path d="M491.312 362.981C491.312 362.981 490.971 363.642 490.243 364.751C486.169 370.85 480.898 376.057 474.751 380.057C464.673 386.604 449.672 391.525 428.824 386.857C427.158 386.486 425.451 386.05 423.694 385.547C423.017 385.361 422.329 385.151 421.643 384.938L417.606 383.987L402.608 380.469L374.034 373.766L368.809 376.901L309.654 412.366L307.141 407.988L298.397 392.755L295.99 388.563L356.175 347.173C360.022 344.528 364.452 342.855 369.087 342.298C371.279 342.03 373.495 342.021 375.689 342.271L427.819 348.01L445.678 345.326L466.51 342.191L474.663 349.025L480.272 353.72L491.312 362.981Z" fill="#FFA500"/>
<path d="M454.692 391.643C453.824 391.643 452.95 391.628 452.06 391.595C439.996 391.165 378.497 375.323 374.101 374.187L355.273 385.368L354.868 384.685L373.979 373.334L374.141 373.376C374.796 373.547 439.929 390.37 452.09 390.803C464.191 391.229 474.33 388.67 481.38 383.387L481.856 384.021C475.18 389.026 465.827 391.643 454.692 391.643Z" fill="#001F40"/>
<path opacity="0.1" d="M495.508 370.585C495.508 370.585 490.6 379.396 479.394 385.599C467.017 375.21 455.778 361.78 445.678 345.308L466.51 342.173L474.663 349.025L475.881 348.879L480.259 353.72L491.303 362.993C491.303 362.993 490.962 363.655 490.234 364.763L495.508 370.585Z" fill="#001F40"/>
<path d="M520.145 293.367L511.605 313.599L495.507 306.985L497.201 302.105L501.564 289.565L512.001 294.988L520.145 293.367Z" fill="#FFBA9A"/>
<path d="M512.001 294.988L511.712 297.276C507.483 300.328 502.422 302.014 497.207 302.108L501.57 289.568L512.001 294.988Z" fill="#001F40"/>
<path d="M503.02 270.792C503.02 270.792 492.564 288.63 497.281 293.55C501.997 298.47 514.71 298.473 514.71 298.473L526.592 284.118L517.979 274.064L503.02 270.792Z" fill="#FFBA9A"/>
<path d="M501.098 276.894C496.833 278.762 493.427 280.821 494.396 282.29C495.718 284.273 498.356 285.376 498.356 285.376L501.098 276.894Z" fill="#FFBA9A"/>
<path d="M498.593 262.006C498.797 269.217 499.9 274.816 511.16 275.124C512.379 275.895 513.902 283.283 512.702 284.605L518.104 298.162C528.026 291.649 535.63 282.399 527.365 274.244C527.365 274.244 524.559 262.871 514.247 263.885C504.104 264.872 498.593 262.006 498.593 262.006Z" fill="#001F40"/>
<path d="M517.083 288.062C518.931 286.04 519.154 283.236 517.582 281.799C516.009 280.362 513.236 280.837 511.389 282.859C509.541 284.881 509.318 287.685 510.89 289.122C512.463 290.559 515.235 290.085 517.083 288.062Z" fill="#FFBA9A"/>
<path d="M513.811 286.838L512.821 286.771C512.863 286.119 513.057 285.486 513.386 284.922C513.715 284.357 514.172 283.878 514.719 283.52C515.031 283.321 515.389 283.203 515.759 283.177C516.129 283.152 516.499 283.219 516.836 283.374L516.413 284.288C516.223 284.202 516.014 284.166 515.805 284.183C515.597 284.201 515.397 284.272 515.225 284.389C514.821 284.665 514.484 285.029 514.239 285.453C513.995 285.877 513.848 286.35 513.811 286.838Z" fill="#001F40"/>
<path opacity="0.2" d="M508.153 286.206C508.631 284.193 507.386 282.173 505.372 281.695C503.358 281.217 501.339 282.462 500.861 284.476C500.383 286.489 501.628 288.509 503.642 288.987C505.655 289.465 507.675 288.22 508.153 286.206Z" fill="#FF5C33"/>
<path d="M452.054 333.89L481.06 302.607C482.149 301.432 483.653 300.727 485.252 300.642C496.644 300.033 501.548 302.089 509.948 305.578C513.592 307.089 516.893 309.32 519.654 312.137C523.019 315.571 525.134 320.035 525.66 324.813C526.187 329.592 525.094 334.409 522.558 338.493L499.824 375.088C499.277 375.968 498.54 376.715 497.668 377.274C496.795 377.834 495.809 378.191 494.781 378.32C493.753 378.449 492.708 378.348 491.725 378.022C490.741 377.696 489.842 377.155 489.094 376.438L452.788 342.472C451.625 341.386 450.907 339.907 450.771 338.322C450.635 336.737 451.092 335.157 452.054 333.89Z" fill="#FF5C33"/>
<path d="M493.905 200.319C493.702 200.398 493.505 200.489 493.314 200.593C492.875 198.954 489.554 197.714 487.239 200.44C487.647 198.256 484.098 197.549 481.286 198.954C473.09 202.774 467.022 213.291 463.427 227.013L486.276 227.726C488.372 218.836 491.815 210.951 497.04 205.202C499.133 202.908 496.79 199.179 493.905 200.319Z" fill="#FFBA9A"/>
<path d="M468.39 317.785L495.721 309.532C488.034 301.541 479.013 258.572 486.276 227.725L465.523 219.676C454.281 250.316 457.367 288.904 468.39 317.785Z" fill="#FF5C33"/>
<path d="M88.2441 353.625L88.8626 358.893L151.988 392.323L212.727 383.713L257.771 323.044L254.727 318.139L187.709 361.062L88.2441 353.625Z" fill="#C7E9FF"/>
<path d="M208.514 330.2L206.674 332.052L152.838 386.208L151.634 387.412L88.2441 353.628L142.531 298.059L205.312 328.64L208.514 330.2Z" fill="white"/>
<path d="M208.508 330.2L254.727 318.139L210.125 378.266L151.64 387.418L208.508 330.2Z" fill="#E2EDFF"/>
<path d="M248.125 322.596L208.648 375.835L159.208 383.57L209.875 332.573L248.125 322.593M254.727 318.136L208.508 330.197L151.64 387.412L210.134 378.272L254.736 318.145L254.727 318.136Z" fill="white"/>
<path d="M255.946 119.587C250.538 134.211 258.334 150.568 273.348 156.116C278.493 158.032 284.072 158.469 289.452 157.377L269.345 211.78L111.703 153.526L132.301 97.789C126.207 99.586 119.694 99.3572 113.741 97.137C98.7152 91.5892 90.9312 75.2352 96.3358 60.6086C101.74 45.982 118.296 38.6275 133.312 44.1754C139.279 46.3608 144.375 50.4232 147.835 55.7523L168.433 0L326.075 58.2536L305.968 112.656C302.589 108.337 298.069 105.05 292.919 103.166C277.903 97.6032 261.351 104.961 255.946 119.587Z" fill="#FFA500"/>
<path d="M113.165 154.068L112.035 152.63L111.767 153.356L111.98 153.63L113.165 154.068Z" fill="white"/>
<path d="M130.966 98.1272L131.667 97.9505L113.528 74.894L113.01 75.3022L130.966 98.1272Z" fill="white"/>
<path d="M98.5995 55.9169C98.4776 56.121 98.3558 56.3221 98.24 56.5262L112.602 74.7843L113.119 74.373L98.5995 55.9169Z" fill="white"/>
<path d="M200.303 186.268L201.491 186.703L174.416 152.289L173.896 152.697L200.303 186.268Z" fill="white"/>
<path d="M132.057 98.4471L131.789 99.1752L143.043 113.482L143.564 113.071L132.057 98.4471Z" fill="white"/>
<path d="M143.968 113.566L143.448 113.975L173.487 152.148L174.007 151.739L143.968 113.566Z" fill="white"/>
<path d="M213.11 121.833L212.59 122.241L242.623 160.419L243.142 160.011L213.11 121.833Z" fill="white"/>
<path d="M243.562 160.576L243.042 160.984L273.077 199.165L273.596 198.756L243.562 160.576Z" fill="white"/>
<path d="M182.673 83.1626L182.154 83.5713L212.186 121.749L212.706 121.341L182.673 83.1626Z" fill="white"/>
<path d="M152.225 44.4496L151.921 44.6902L151.811 44.9918L181.741 83.0375L182.262 82.6292L152.225 44.4496Z" fill="white"/>
<path d="M273.72 199.954L273.976 199.261L273.479 199.652L273.72 199.954Z" fill="white"/>
<path d="M190.937 14.0297L190.417 14.4385L220.449 52.6164L220.969 52.2077L190.937 14.0297Z" fill="white"/>
<path d="M184.619 5.9926L183.431 5.55389L189.997 13.8954L190.514 13.4872L184.619 5.9926Z" fill="white"/>
<path d="M264.059 108.041C264.226 107.898 264.4 107.76 264.571 107.623L251.811 91.4034L251.291 91.8116L264.059 108.041Z" fill="white"/>
<path d="M222.945 52.4919L222.422 52.9018L252.539 91.2758L253.061 90.8659L222.945 52.4919Z" fill="white"/>
<path d="M271.754 38.1919L289.58 60.8492L290.098 60.438L272.943 38.6306L271.754 38.1919Z" fill="white"/>
<path d="M313.764 91.5862L314.032 90.8611L290.509 60.959L289.988 61.3672L313.764 91.5862Z" fill="white"/>
<path d="M260.942 208.672L261.667 208.943L273.479 199.651L273.976 199.261L274.411 198.076L273.592 198.722L273.071 199.13L260.942 208.672Z" fill="white"/>
<path d="M206.759 188.65L207.487 188.921L243.037 160.954L243.555 160.542L260.671 147.08C260.531 146.909 260.403 146.729 260.266 146.556L243.147 160.024L242.629 160.433L206.759 188.65Z" fill="white"/>
<path d="M305.355 111.925L306.613 110.938L307.049 109.753L304.932 111.419C305.078 111.584 305.215 111.758 305.355 111.925Z" fill="white"/>
<path d="M251.404 90.8824L250.883 91.2906L212.703 121.327L212.185 121.735L174.005 151.768L173.487 152.18L152.576 168.631L153.304 168.899L173.896 152.697L174.417 152.289L212.593 122.256L213.114 121.845L251.291 91.8116L251.812 91.4034L289.988 61.3672L290.509 60.9589L304.207 50.1832L303.479 49.912L290.098 60.438L289.58 60.8493L251.404 90.8824Z" fill="white"/>
<path d="M182.149 83.5584L182.67 83.1472L220.846 53.114L221.367 52.7058L250.023 30.1611L249.295 29.893L220.959 52.1848L220.438 52.593L182.262 82.6292L181.741 83.0375L143.564 113.071L143.043 113.482L119.721 131.828L119.283 133.014L143.454 114L143.972 113.592L182.149 83.5584Z" fill="white"/>
<path d="M99.4767 85.95L113.01 75.3022L113.527 74.894L143.938 50.9692C143.78 50.8138 143.634 50.6463 143.475 50.4939L113.119 74.373L112.601 74.7843L99.1172 85.3894C99.236 85.5753 99.3518 85.7641 99.4767 85.95Z" fill="white"/>
<path d="M190.405 14.4164L190.923 14.0082L195.84 10.139L195.112 9.87091L190.514 13.4872L189.997 13.8954L152.359 43.5051L151.92 44.6902L152.225 44.4495L190.405 14.4164Z" fill="white"/>
<path d="M179.786 227.569L164.428 228.178L165.436 253.612L180.794 253.004L179.786 227.569Z" fill="#974245"/>
<path d="M179.785 227.576L180.379 242.568C176.114 241.219 170.584 235.89 167.364 230.242L175.976 227.725L179.785 227.576Z" fill="#4A191B"/>
<path d="M187.291 220.255C190.338 224.98 190.384 228.786 185.936 226.769C181.488 224.752 187.291 220.255 187.291 220.255Z" fill="#974245"/>
<path d="M187.462 214.927C187.462 214.927 189.016 235.007 181.064 235.324C173.113 235.64 165.435 229.294 165.435 229.294L165.402 214.095L178.456 207.88L187.462 214.927Z" fill="#974245"/>
<path d="M173.195 219.293C174.072 216.179 176.385 213.854 180.525 212.544C180.525 212.544 186.07 219.643 190.192 216.721C196.014 212.593 190 202.287 180.766 204.172C176.074 198.749 170.937 200.495 165.569 205.915C155.708 207.594 154.562 213.279 157.164 220.688C151.232 220.636 149.243 223.628 150.138 228.819L167.437 233.834L171.224 220.764L173.195 219.293Z" fill="#4A191B"/>
<path d="M170.614 202.125C170.745 205.434 168.092 208.218 164.692 208.358C161.292 208.499 158.428 205.921 158.294 202.613C158.16 199.304 160.813 196.519 164.213 196.382C167.613 196.245 170.483 198.829 170.614 202.125Z" fill="#4A191B"/>
<path opacity="0.3" d="M182.615 228.572C184.288 227.492 184.769 225.259 183.688 223.585C182.608 221.912 180.375 221.431 178.701 222.512C177.028 223.592 176.547 225.825 177.628 227.499C178.708 229.172 180.941 229.653 182.615 228.572Z" fill="#4A191B"/>
<path d="M174.705 223.675C176.349 222.747 176.71 220.274 175.512 218.15C174.313 216.027 172.009 215.058 170.365 215.986C168.721 216.914 168.36 219.387 169.558 221.511C170.756 223.634 173.061 224.603 174.705 223.675Z" fill="#974245"/>
<path d="M173.39 221.776C173.28 220.155 172.558 219.186 171.111 218.729L171.507 217.468C173.484 218.077 174.553 219.506 174.709 221.681L173.39 221.776Z" fill="#4A191B"/>
<path d="M216.24 233.621C212.953 237.056 208.872 239.631 204.357 241.118C199.841 242.606 195.029 242.961 190.344 242.151C176.025 239.686 158.306 240.472 148.277 251.209L144.216 311.08C144.177 311.657 144.278 312.235 144.512 312.763C144.746 313.292 145.105 313.757 145.558 314.116C146.01 314.476 146.544 314.72 147.112 314.828C147.68 314.936 148.266 314.904 148.819 314.736L194.795 300.721C195.552 300.491 196.21 300.015 196.667 299.369C197.125 298.724 197.354 297.944 197.32 297.154L196.336 274.119C219.795 271.094 243.007 235.001 253.944 212.806L238.464 200.011C231.153 213.894 223.768 225.693 216.24 233.621Z" fill="#005EA2"/>
<path d="M259.203 190.143C260.309 188.735 257.478 185.92 255.72 187.767C257.335 184.964 254.097 182.7 252.369 183.523C252.166 180.362 250.665 179.558 247.866 181.11C244.741 187.709 241.606 194.058 238.456 200.032L253.935 212.828C260.086 200.352 262.496 190.627 259.203 190.143Z" fill="#974245"/>
<path d="M208.514 330.2L151.634 387.412L148.579 326.578L147.942 314.038L194.158 300.892L196.873 306.431L208.514 330.2Z" fill="#FF5C33"/>
<path opacity="0.3" d="M196.873 306.431L148.579 326.578L147.942 314.038L194.158 300.892L196.873 306.431Z" fill="#4A191B"/>
<path d="M162.389 256.714L150.483 284.928C148.959 283.012 147.466 281.068 146.025 279.109C142.135 273.899 138.544 268.471 135.271 262.852C119.051 234.9 112.029 201.976 127.045 159.077L146.741 163.616C137.123 189.265 143.777 217.915 151.86 237.255C153.078 240.125 154.297 242.785 155.497 245.191C158.008 250.212 160.442 254.179 162.389 256.714Z" fill="#005EA2"/>
<path d="M144.414 136.782C144.889 135.058 148.834 135.664 148.396 138.171C149.69 135.21 153.435 136.471 153.794 138.345C156.463 136.625 158.008 137.355 158.428 140.535C154.163 148.49 150.202 156.238 146.757 163.626L127.036 159.083C134.113 144.115 141.803 134.135 144.414 136.782Z" fill="#974245"/>
<path opacity="0.3" d="M146.025 279.115C142.135 273.905 138.544 268.477 135.271 262.859C138.973 251.19 143.935 241.679 151.844 237.267C153.063 240.137 154.282 242.797 155.482 245.204L155.549 245.588C145.124 250.846 145.986 264.248 146.025 279.115Z" fill="#001F40"/>
<path d="M217.26 480.213C207 489.204 178.962 480.055 158.623 470.876L136.036 446.293C163.625 454.214 191.307 457.373 208.328 442.942L217.26 480.213Z" fill="white"/>
<path d="M154.353 454.397L153.34 455.247L160.318 463.551L161.33 462.7L154.353 454.397Z" fill="#C7E9FF"/>
<path d="M166.908 455.548L165.786 456.247L173.156 468.084L174.279 467.385L166.908 455.548Z" fill="#C7E9FF"/>
<path d="M199.282 454.337L198.003 454.673L203.158 474.294L204.437 473.958L199.282 454.337Z" fill="#C7E9FF"/>
<path d="M714.779 142.333C715.83 149.989 712.628 158.513 705.27 166.008C695.57 175.888 680.873 178.98 667.797 174.401L646.657 166.995C671.679 159.129 685.931 141.166 688.871 118.515L714.779 142.333Z" fill="white"/>
<path d="M667.815 174.401C673.139 172.836 678.173 170.418 682.722 167.242C686.485 169.761 691.557 171.275 697.379 172.205C685.879 178.203 678.667 177.911 667.815 174.401Z" fill="#C7E9FF"/>
<path d="M633.846 388.228C633.487 388.228 633.134 388.228 632.78 388.207L632.832 386.888C634.122 386.933 635.414 386.888 636.698 386.754L636.838 388.07C635.844 388.175 634.846 388.228 633.846 388.228ZM628.746 387.759C627.413 387.512 626.1 387.168 624.816 386.729L625.249 385.477C626.469 385.898 627.718 386.227 628.987 386.461L628.746 387.759ZM640.832 387.342L640.5 386.059C641.748 385.735 642.97 385.319 644.156 384.816L644.671 386.035C643.425 386.563 642.142 386.999 640.832 387.342ZM621.084 385.13C619.881 384.504 618.724 383.791 617.623 382.997L618.397 381.922C619.443 382.678 620.544 383.355 621.691 383.948L621.084 385.13ZM648.287 384.182L647.599 383.052C648.701 382.381 649.753 381.63 650.746 380.807L651.59 381.821C650.549 382.689 649.445 383.478 648.287 384.182ZM614.501 380.405C613.529 379.462 612.627 378.45 611.801 377.376L612.849 376.569C613.636 377.591 614.496 378.555 615.421 379.454L614.501 380.405ZM654.508 379.015L653.521 378.132C654.383 377.174 655.175 376.156 655.891 375.085L656.991 375.816C656.244 376.937 655.417 378.003 654.517 379.006L654.508 379.015ZM609.565 373.985C608.905 372.802 608.332 371.572 607.85 370.305L609.09 369.839C609.547 371.044 610.092 372.214 610.72 373.34L609.565 373.985ZM658.987 372.264L657.789 371.701C658.34 370.532 658.802 369.324 659.173 368.087L660.44 368.468C660.052 369.764 659.569 371.03 658.996 372.255L658.987 372.264ZM606.704 366.39C606.417 365.066 606.227 363.723 606.135 362.372L607.451 362.281C607.54 363.569 607.724 364.849 607.999 366.11L606.704 366.39ZM661.33 364.486L660.02 364.294C660.384 361.798 660.393 359.262 660.047 356.763L661.357 356.58C661.721 359.209 661.712 361.876 661.33 364.501V364.486ZM607.463 358.414L606.144 358.314C606.248 356.962 606.452 355.62 606.753 354.299L608.042 354.603C607.757 355.862 607.563 357.14 607.463 358.427V358.414ZM659.237 352.985C658.873 351.746 658.419 350.535 657.878 349.363L659.078 348.809C659.648 350.04 660.124 351.312 660.504 352.614L659.237 352.985ZM609.163 350.889L607.929 350.411C608.421 349.152 609.003 347.93 609.672 346.755L610.82 347.407C610.184 348.53 609.63 349.698 609.163 350.902V350.889ZM656.004 345.981C655.299 344.901 654.516 343.874 653.661 342.907L654.651 342.033C655.55 343.047 656.372 344.125 657.113 345.259L656.004 345.981ZM612.977 344.19L611.935 343.377C612.769 342.309 613.68 341.303 614.659 340.366L615.573 341.323C614.64 342.215 613.773 343.173 612.977 344.19ZM650.898 340.229C649.91 339.397 648.864 338.638 647.766 337.957L648.464 336.832C649.615 337.548 650.714 338.345 651.751 339.218L650.898 340.229ZM618.556 338.871L617.791 337.792C618.896 337.009 620.057 336.308 621.264 335.693L621.873 336.869C620.719 337.452 619.608 338.117 618.55 338.858L618.556 338.871ZM644.342 336.165C643.156 335.655 641.934 335.231 640.686 334.898L641.024 333.618C642.334 333.97 643.617 334.416 644.863 334.953L644.342 336.165ZM625.429 335.373L625.005 334.121C626.291 333.689 627.606 333.353 628.941 333.116L629.173 334.417C627.901 334.639 626.648 334.955 625.423 335.361L625.429 335.373ZM636.887 334.176C635.604 334.03 634.312 333.977 633.021 334.017L632.981 332.695C634.335 332.655 635.69 332.711 637.036 332.863L636.887 334.176Z" fill="#C7E9FF"/>
<path d="M659.752 353.481C671.513 341.72 671.513 322.652 659.752 310.891C647.991 299.131 628.923 299.131 617.162 310.891C605.402 322.652 605.402 341.72 617.162 353.481C628.923 365.242 647.991 365.242 659.752 353.481Z" fill="white"/>
<path d="M638.486 362.951C631.235 362.953 624.216 360.394 618.667 355.726C613.118 351.057 609.396 344.579 608.158 337.434C606.92 330.289 608.245 322.937 611.899 316.674C615.554 310.41 621.303 305.639 628.132 303.201C634.961 300.763 642.432 300.815 649.227 303.349C656.021 305.882 661.703 310.734 665.269 317.048C668.835 323.362 670.057 330.732 668.718 337.859C667.38 344.986 663.568 351.411 657.954 356.002C652.462 360.497 645.583 362.952 638.486 362.951ZM638.404 302.729C633.686 302.737 629.038 303.878 624.853 306.057C620.667 308.236 617.066 311.388 614.353 315.248C611.64 319.109 609.894 323.565 609.262 328.241C608.63 332.917 609.13 337.676 610.721 342.118C612.312 346.561 614.947 350.556 618.404 353.767C621.861 356.979 626.039 359.313 630.586 360.573C635.133 361.834 639.916 361.983 644.533 361.01C649.15 360.036 653.465 357.967 657.116 354.978C661.813 351.123 665.203 345.91 666.823 340.054C668.443 334.197 668.212 327.983 666.164 322.263C664.115 316.542 660.348 311.595 655.379 308.098C650.409 304.601 644.48 302.726 638.404 302.729Z" fill="#C7E9FF"/>
<path d="M652.001 336.241L637.475 332.717L644.543 313.008L645.95 313.511L639.443 331.656L652.354 334.788L652.001 336.241Z" fill="#C7E9FF"/>
<path d="M362.095 253.122C362.86 250.498 363.082 247.746 362.748 245.034C362.413 242.321 361.53 239.705 360.151 237.346C358.771 234.987 356.926 232.933 354.726 231.311C352.527 229.689 350.02 228.532 347.359 227.911C337.795 225.666 327.781 230.86 324.141 239.982C322.373 244.354 322.208 249.21 323.674 253.691C325.274 258.587 325.569 263.815 324.125 268.76L321.661 277.211L344.644 283.913L347.109 275.456C348.562 270.582 351.476 266.272 355.456 263.105C358.64 260.537 360.958 257.052 362.095 253.122Z" fill="#C7E9FF"/>
<path d="M343.015 289.34L320.088 282.653L317.525 291.442L340.451 298.129L343.015 289.34Z" fill="#C7E9FF"/>
<path d="M337.262 282.019L336.001 281.488L347.925 253.1C346.926 253.142 345.939 252.87 345.101 252.324C344.564 251.981 344.106 251.528 343.758 250.995C343.409 250.462 343.179 249.861 343.081 249.231C343.068 249.17 343.04 249.114 342.998 249.068C342.956 249.022 342.903 248.988 342.844 248.969C342.783 248.947 342.717 248.941 342.654 248.952C342.59 248.964 342.53 248.991 342.481 249.033L342.137 249.362C341.671 249.802 341.117 250.137 340.512 250.347C339.907 250.557 339.265 250.637 338.627 250.581C337.75 250.518 336.906 250.214 336.19 249.703L331.011 280.035L329.664 279.804L335.349 246.66L336.303 247.915C336.594 248.293 336.961 248.605 337.381 248.831C337.801 249.058 338.264 249.193 338.74 249.228C339.186 249.268 339.635 249.213 340.059 249.067C340.482 248.92 340.869 248.685 341.195 248.378L341.537 248.049C341.767 247.835 342.051 247.686 342.359 247.62C342.667 247.554 342.987 247.573 343.285 247.674C343.583 247.775 343.848 247.956 344.052 248.195C344.256 248.435 344.391 248.726 344.443 249.036C344.513 249.472 344.675 249.887 344.918 250.255C345.161 250.623 345.48 250.934 345.854 251.169C346.258 251.434 346.715 251.611 347.193 251.686C347.671 251.761 348.159 251.733 348.626 251.605L350.228 251.157L337.262 282.019Z" fill="white"/>
<path d="M327.083 202.158L325.296 203.018L333.895 220.877L335.682 220.017L327.083 202.158Z" fill="#C7E9FF"/>
<path d="M382.635 217.058L367.532 228.059L368.702 229.666L383.805 218.665L382.635 217.058Z" fill="#C7E9FF"/>
<path d="M358.655 191.776L351.382 219.226L353.299 219.734L360.572 192.284L358.655 191.776Z" fill="#C7E9FF"/>
<path d="M90.0965 240.244L73.715 229.008C75.3424 220.463 73.6633 211.619 69.0174 204.264C64.3716 196.91 57.1058 191.595 48.6899 189.395C40.2741 187.194 31.3366 188.272 23.6856 192.411C16.0345 196.55 10.2411 203.44 7.47743 211.688C4.71374 219.936 5.1861 228.926 8.79894 236.839C12.4118 244.752 18.8954 250.998 26.9381 254.312C34.9807 257.626 43.982 257.762 52.1209 254.691C60.2597 251.621 66.9285 245.574 70.7781 237.773L90.0965 240.244Z" fill="white"/>
<path d="M39.9163 257.527C32.7162 257.52 25.6927 255.297 19.8003 251.159C13.9079 247.021 9.43231 241.17 6.98184 234.399C4.53138 227.629 4.22483 220.268 6.10383 213.318C7.98284 206.367 11.9563 200.163 17.4842 195.55C23.0121 190.936 29.8264 188.137 37.0011 187.531C44.1758 186.926 51.3628 188.544 57.5857 192.166C63.8085 195.788 68.7652 201.238 71.7824 207.776C74.7995 214.313 75.7306 221.621 74.4492 228.706L92.7287 241.249L71.1589 238.486C68.2046 244.225 63.7255 249.038 58.2138 252.398C52.7021 255.757 46.371 257.532 39.9163 257.527ZM40.0351 188.751C34.0217 188.741 28.115 190.339 22.9267 193.379C17.7384 196.42 13.4572 200.792 10.5265 206.043C7.5957 211.293 6.12194 217.232 6.2578 223.244C6.39365 229.256 8.13419 235.123 11.2992 240.236C14.4641 245.349 18.9384 249.523 24.2588 252.326C29.5791 255.129 35.5519 256.458 41.5588 256.177C47.5657 255.896 53.3881 254.014 58.4232 250.726C63.4583 247.438 67.523 242.864 70.1962 237.478L70.4034 237.057L87.4642 239.242L72.9808 229.294L73.0631 228.868C74.0106 223.993 73.8688 218.969 72.6477 214.156C71.4266 209.342 69.1565 204.858 65.9998 201.025C62.8431 197.191 58.878 194.103 54.3882 191.981C49.8984 189.859 44.995 188.756 40.029 188.751H40.0351Z" fill="#C7E9FF"/>
<path d="M21.78 226.613C24.0632 226.613 25.9142 224.763 25.9142 222.479C25.9142 220.196 24.0632 218.345 21.78 218.345C19.4967 218.345 17.6458 220.196 17.6458 222.479C17.6458 224.763 19.4967 226.613 21.78 226.613Z" fill="#C7E9FF"/>
<path d="M39.3071 226.613C41.5903 226.613 43.4413 224.763 43.4413 222.479C43.4413 220.196 41.5903 218.345 39.3071 218.345C37.0238 218.345 35.1729 220.196 35.1729 222.479C35.1729 224.763 37.0238 226.613 39.3071 226.613Z" fill="#C7E9FF"/>
<path d="M56.8339 226.613C59.1172 226.613 60.9681 224.763 60.9681 222.479C60.9681 220.196 59.1172 218.345 56.8339 218.345C54.5507 218.345 52.6997 220.196 52.6997 222.479C52.6997 224.763 54.5507 226.613 56.8339 226.613Z" fill="#C7E9FF"/>
<path d="M532.928 436.681L545.304 463.503L505.269 481.971L492.896 455.149L519.091 459.323L532.928 436.681Z" fill="white"/>
<path d="M532.928 436.681L521.373 465.316L492.896 455.149L532.928 436.681Z" fill="#C7E9FF"/>
<path d="M36.5224 410.096H1.97419C1.45271 410.095 0.953059 409.887 0.584319 409.518C0.215579 409.15 0.00771054 408.65 0.00610352 408.128C0.00610352 407.605 0.214097 407.103 0.584328 406.732C0.954559 406.362 1.4567 406.154 1.98029 406.154H36.5285C37.0523 406.154 37.5548 406.362 37.9255 406.732C38.2962 407.102 38.5049 407.605 38.5057 408.128C38.5033 408.652 38.293 409.154 37.9212 409.523C37.5493 409.892 37.0462 410.098 36.5224 410.096Z" fill="#C7E9FF"/>
<path d="M23.7267 414.663H1.60249C0.717457 414.663 0 415.381 0 416.266V417.009C0 417.894 0.717457 418.612 1.60249 418.612H23.7267C24.6118 418.612 25.3292 417.894 25.3292 417.009V416.266C25.3292 415.381 24.6118 414.663 23.7267 414.663Z" fill="#C7E9FF"/>
<path d="M30.1885 423.179H1.80053C0.806124 423.179 0 423.985 0 424.979V425.326C0 426.321 0.806124 427.127 1.80053 427.127H30.1885C31.1829 427.127 31.989 426.321 31.989 425.326V424.979C31.989 423.985 31.1829 423.179 30.1885 423.179Z" fill="#C7E9FF"/>
<path d="M31.398 418.852C32.6212 418.852 33.6128 417.861 33.6128 416.638C33.6128 415.414 32.6212 414.423 31.398 414.423C30.1747 414.423 29.1831 415.414 29.1831 416.638C29.1831 417.861 30.1747 418.852 31.398 418.852Z" fill="#C7E9FF"/>
</svg>
