<svg width="76" height="76" viewBox="0 0 76 76" fill="none" xmlns="http://www.w3.org/2000/svg">
<g clip-path="url(#clip0_157_665)">
<path d="M11.3999 67.1435V73.4768C11.3977 74.0163 11.5699 74.5421 11.8909 74.9758C12.2118 75.4095 12.6643 75.7278 13.1809 75.8835C13.4215 75.9569 13.6716 75.9944 13.9231 75.9949C14.3396 75.9947 14.7495 75.8912 15.1162 75.6938C15.4829 75.4964 15.795 75.2113 16.0245 74.8638C18.6838 70.8352 22.661 67.8565 27.2751 66.4379C27.6967 67.172 28.3503 67.745 29.1333 68.0669V69.6667C29.1333 70.6745 29.5336 71.641 30.2462 72.3537C30.9589 73.0663 31.9254 73.4667 32.9333 73.4667H34.433C34.6909 74.2071 35.1729 74.8489 35.8121 75.303C36.4512 75.7572 37.2158 76.0012 37.9999 76.0012C38.784 76.0012 39.5486 75.7572 40.1878 75.303C40.8269 74.8489 41.3089 74.2071 41.5669 73.4667H43.0666C44.0744 73.4667 45.041 73.0663 45.7536 72.3537C46.4662 71.641 46.8666 70.6745 46.8666 69.6667V68.0669C47.649 67.7467 48.3027 67.1754 48.7248 66.443C53.3394 67.8624 57.3171 70.8419 59.9766 74.8714C60.2063 75.218 60.5181 75.5023 60.8843 75.6992C61.2505 75.8962 61.6597 75.9995 62.0755 76C62.3274 75.9996 62.578 75.962 62.819 75.8885C63.3356 75.7329 63.788 75.4145 64.109 74.9808C64.4299 74.5472 64.6021 74.0214 64.5999 73.4819V67.1485C64.5864 63.9215 63.5528 60.7814 61.647 58.1772C59.7412 55.573 57.0608 53.638 53.9891 52.649C55.1502 47.8526 55.7358 42.9349 55.7332 38C55.7332 15.0607 43.6568 3.63913 39.9544 0.683994C39.3998 0.239219 38.7102 -0.00317383 37.9993 -0.00317383C37.2884 -0.00317383 36.5987 0.239219 36.0442 0.683994C32.343 3.63913 20.2666 15.0607 20.2666 38C20.2646 42.9328 20.8501 47.8483 22.0108 52.6427C18.9388 53.6317 16.2583 55.5669 14.3525 58.1713C12.4467 60.7758 11.4132 63.9162 11.3999 67.1435ZM31.6666 69.6667V68.4H34.1999V70.9333H32.9333C32.5973 70.9333 32.2751 70.7999 32.0376 70.5623C31.8 70.3248 31.6666 70.0026 31.6666 69.6667ZM39.2666 72.2C39.2666 72.5359 39.1331 72.8581 38.8956 73.0957C38.658 73.3332 38.3359 73.4667 37.9999 73.4667C37.664 73.4667 37.3418 73.3332 37.1042 73.0957C36.8667 72.8581 36.7333 72.5359 36.7333 72.2V50.6667C36.7333 50.3307 36.8667 50.0085 37.1042 49.771C37.3418 49.5335 37.664 49.4 37.9999 49.4C38.3359 49.4 38.658 49.5335 38.8956 49.771C39.1331 50.0085 39.2666 50.3307 39.2666 50.6667V72.2ZM43.0666 70.9333H41.7999V68.4H44.3333V69.6667C44.3333 70.0026 44.1998 70.3248 43.9623 70.5623C43.7247 70.7999 43.4025 70.9333 43.0666 70.9333ZM62.0666 67.1435L62.0805 73.4667C59.1847 69.0856 54.8954 65.8098 49.9066 64.1693C51.306 61.2493 52.4535 58.2152 53.3367 55.1C55.8698 55.9404 58.075 57.5549 59.6413 59.7158C61.2076 61.8766 62.0559 64.4747 62.0666 67.1435ZM37.6199 2.65999C37.7268 2.57544 37.8592 2.52944 37.9955 2.52944C38.1318 2.52944 38.2641 2.57544 38.3711 2.65999C42.8332 6.41476 46.3818 11.1363 48.7476 16.4667H27.2523C29.6155 11.1373 33.161 6.41575 37.6199 2.65999ZM26.1819 19H49.8179C52.1221 25.0665 53.2692 31.511 53.1999 38C53.2731 47.4797 50.9777 56.8277 46.5221 65.1953C46.4123 65.398 46.2498 65.5674 46.0519 65.6855C45.8539 65.8037 45.6278 65.8662 45.3973 65.8667H41.7999V50.6667C41.7999 49.6588 41.3996 48.6923 40.6869 47.9797C39.9743 47.267 39.0077 46.8667 37.9999 46.8667C36.9921 46.8667 36.0256 47.267 35.3129 47.9797C34.6003 48.6923 34.1999 49.6588 34.1999 50.6667V65.8667H30.6026C30.3725 65.8665 30.1467 65.8043 29.9489 65.6866C29.7512 65.5689 29.5889 65.4001 29.4791 65.1979C25.0216 56.8299 22.7257 47.4808 22.7999 38C22.7306 31.511 23.8778 25.0665 26.1819 19ZM22.6631 55.1C23.5466 58.2135 24.6941 61.2459 26.0933 64.1643C21.1006 65.8014 16.8127 69.087 13.9333 73.4819V67.1485C13.9429 64.4789 14.7907 61.8797 16.3571 59.7178C17.9235 57.556 20.1293 55.9407 22.6631 55.1Z" fill="#0A98FF"/>
<path d="M37.9999 39.2667C39.503 39.2667 40.9724 38.8209 42.2222 37.9858C43.472 37.1507 44.4462 35.9638 45.0214 34.575C45.5966 33.1863 45.7471 31.6582 45.4539 30.184C45.1606 28.7097 44.4368 27.3555 43.3739 26.2926C42.311 25.2298 40.9568 24.5059 39.4826 24.2127C38.0083 23.9194 36.4802 24.0699 35.0915 24.6452C33.7028 25.2204 32.5158 26.1945 31.6807 27.4443C30.8456 28.6941 30.3999 30.1635 30.3999 31.6667C30.4019 33.6817 31.2033 35.6136 32.6281 37.0384C34.053 38.4633 35.9849 39.2646 37.9999 39.2667ZM37.9999 26.6C39.002 26.6 39.9816 26.8971 40.8148 27.4539C41.648 28.0106 42.2974 28.8019 42.6809 29.7277C43.0644 30.6535 43.1647 31.6723 42.9692 32.6551C42.7737 33.6379 42.2912 34.5407 41.5826 35.2493C40.874 35.9579 39.9712 36.4405 38.9884 36.636C38.0055 36.8315 36.9868 36.7311 36.061 36.3476C35.1352 35.9642 34.3439 35.3148 33.7871 34.4815C33.2304 33.6483 32.9332 32.6687 32.9332 31.6667C32.9332 30.3229 33.467 29.0342 34.4172 28.084C35.3674 27.1338 36.6561 26.6 37.9999 26.6Z" fill="#0A98FF"/>
</g>
<defs>
<clipPath id="clip0_157_665">
<rect width="76" height="76" fill="white"/>
</clipPath>
</defs>
</svg>
