<svg width="76" height="76" viewBox="0 0 76 76" fill="none" xmlns="http://www.w3.org/2000/svg">
<path d="M75.9395 55.5186C75.7901 55.0459 75.3805 54.702 74.891 54.6324L64.8732 53.2296L60.4008 44.4961C59.9602 43.6356 58.5484 43.6356 58.1092 44.4961L53.6368 53.2296L43.6189 54.6324C43.1282 54.702 42.7198 55.0446 42.5704 55.5186C42.421 55.9927 42.5549 56.5079 42.9169 56.8467L50.1369 63.6313L48.434 73.1983C48.349 73.6788 48.5422 74.167 48.9338 74.4581C49.3267 74.7505 49.8497 74.7956 50.285 74.5727L59.2543 70.0269L68.2249 74.5715C68.4078 74.6668 68.6088 74.7119 68.8071 74.7119C69.0789 74.7119 69.3494 74.6268 69.5762 74.4581C69.9678 74.167 70.161 73.6801 70.076 73.1983L68.3743 63.6313L75.5943 56.8467C75.955 56.5079 76.089 55.9914 75.9395 55.5186ZM66.1008 62.2311C65.7839 62.5287 65.6383 62.9666 65.7143 63.3943L67.0849 71.1064L59.8353 67.4326C59.6511 67.3399 59.4527 67.2935 59.253 67.2935C59.0534 67.2935 58.8537 67.3399 58.6708 67.4326L51.4212 71.1064L52.7918 63.3943C52.869 62.9666 52.7222 62.5287 52.4053 62.2311L46.6358 56.8119L54.6544 55.6887C55.0692 55.6307 55.4311 55.3744 55.6218 55.0008L59.2543 47.9109L62.8843 55.0008C63.0749 55.3744 63.4369 55.6307 63.8517 55.6887L71.8703 56.8119L66.1008 62.2311Z" fill="#0A98FF"/>
<path d="M39.5509 41.5797C39.2546 41.2036 38.1623 39.7609 37.1022 37.6522L37.0429 37.5337C37.0365 37.5221 37.0313 37.5092 37.0249 37.4976C36.8845 37.2155 36.7466 36.9167 36.6075 36.6075L36.5431 36.462C36.471 36.2984 36.3988 36.1296 36.3267 35.9532C36.3022 35.8926 36.2778 35.8321 36.2533 35.7702C36.185 35.6002 36.1167 35.4276 36.0433 35.2292C35.9106 34.8789 35.7896 34.513 35.671 34.1382L35.5783 33.8342C35.4572 33.4349 35.3451 33.0265 35.2473 32.6053C35.2447 32.5963 35.2421 32.5886 35.2408 32.5795L35.2189 32.4855L35.1249 32.0694L34.6843 31.7848C33.9372 31.303 33.4915 30.4966 33.4915 29.6271V24.4746C33.4915 23.7519 33.7981 23.077 34.3546 22.5746L34.7797 22.1907V14.1695V13.7135L34.7449 13.6865C34.6998 12.7577 34.7565 9.90577 36.8355 7.53303C38.97 5.09845 42.6128 3.86442 47.661 3.86442C52.6912 3.86442 56.3263 5.08944 58.4633 7.50727C60.9713 10.3425 60.5578 13.9698 60.554 14.0008L60.5424 22.1907L60.9675 22.5746C61.5239 23.077 61.8305 23.7519 61.8305 24.4746V29.6271C61.8305 30.7517 61.095 31.7358 59.9988 32.0733C59.3199 32.282 58.9386 33.0046 59.1486 33.6835C59.3573 34.3623 60.0761 34.741 60.7588 34.5336C62.9409 33.8612 64.4068 31.8891 64.4068 29.6271V24.4746C64.4068 23.2341 63.9443 22.031 63.1186 21.0932V14.2416C63.1921 13.5332 63.4742 9.31581 60.4239 5.83655C57.778 2.81716 53.4847 1.28815 47.661 1.28815C41.8374 1.28815 37.544 2.81845 34.8982 5.83527C33.0497 7.94394 32.4288 10.3193 32.2395 12.0248C30.0303 10.8822 27.4296 10.3051 24.4746 10.3051C11.0921 10.3051 10.3141 21.7115 10.3051 21.8983V27.7967C9.47037 28.7074 9.01695 29.7559 9.01695 30.798V35.2473C9.01695 36.6372 9.63912 37.933 10.7057 38.809C11.7671 42.8151 14.382 45.8422 15.3997 46.9049V50.4382C15.3997 51.452 14.8471 52.382 13.8913 52.905L5.32386 58.2804C2.03912 60.0696 0 63.5051 0 67.2446V72.1356H18.0339H20.6102H34.7797C35.492 72.1356 36.0678 71.5598 36.0678 70.8475C36.0678 70.1351 35.492 69.5593 34.7797 69.5593H20.6102V66.6765C20.6102 63.3647 22.4161 60.3208 25.3222 58.7364L36.8162 52.4683C38.7381 51.4185 39.9322 49.4052 39.9322 47.2166V42.0396L39.6334 41.6815C39.6295 41.6789 39.5973 41.6377 39.5509 41.5797ZM37.3559 47.2166C37.3559 48.4635 36.6758 49.6074 35.5822 50.2051L32.1738 52.0639L31.3378 52.5199L24.0894 56.4732C20.3538 58.511 18.0339 62.4192 18.0339 66.6752V69.5593H2.57627V67.2446C2.57627 64.4493 4.10142 61.8808 6.62359 60.5037L15.191 55.1284C16.9081 54.1919 17.9746 52.3962 17.9746 50.4382L17.9734 45.8138L17.5676 45.4313C17.5328 45.4004 14.1051 42.1388 13.099 37.7591L12.9818 37.249L12.5413 36.9656C11.9475 36.5818 11.5932 35.939 11.5932 35.2473V30.798C11.5932 30.3356 11.9075 29.783 12.4576 29.2858L12.8814 28.9019L12.8788 21.973C12.9033 21.602 13.5718 12.8814 24.4746 12.8814C27.5584 12.8814 30.154 13.5937 32.2034 14.9991V21.0932C31.3777 22.031 30.9153 23.2341 30.9153 24.4746V29.6271C30.9153 30.5494 31.187 31.4215 31.6379 32.1931C31.9535 32.7328 32.3425 33.23 32.8436 33.6319C32.8526 33.6654 32.8629 33.6964 32.8719 33.7286C32.9466 34.0132 33.0239 34.294 33.1064 34.5646L33.2133 34.9149C33.2339 34.9793 33.2571 35.0463 33.2777 35.1107C33.3202 35.2421 33.3614 35.3722 33.4065 35.501C33.4838 35.729 33.5662 35.9635 33.6616 36.2185C33.7002 36.3203 33.7414 36.4092 33.7801 36.5084C33.8896 36.7892 34.0003 37.061 34.1163 37.3289C34.1382 37.3791 34.1588 37.4371 34.1807 37.4873L34.258 37.6625C34.2927 37.7411 34.3288 37.8107 34.3636 37.8879C34.4847 38.152 34.6045 38.4096 34.7268 38.6582C34.75 38.7046 34.7719 38.7574 34.7951 38.8038L34.8917 38.9919C34.9162 39.0395 34.9394 39.0769 34.9639 39.1233C35.1725 39.5252 35.3774 39.9013 35.5809 40.253C35.6079 40.3006 35.635 40.3483 35.662 40.3959C35.8823 40.7721 36.0936 41.1173 36.2945 41.4277C36.3035 41.4419 36.3138 41.4574 36.3228 41.4728C36.7479 42.1285 37.1163 42.6425 37.3559 42.9555V47.2166Z" fill="#0A98FF"/>
</svg>
