<svg width="930" height="753" viewBox="0 0 930 753" fill="none" xmlns="http://www.w3.org/2000/svg">
<path d="M384.935 420.049L384.275 419.316L388.421 415.125L389.084 415.854L384.935 420.049ZM393.249 411.638L392.574 410.917C393.928 409.512 395.282 408.062 396.609 406.604L397.299 407.309C395.969 408.767 394.607 410.225 393.249 411.638ZM401.238 402.866L400.529 402.186C401.798 400.711 403.079 399.185 404.337 397.65L405.062 398.31C403.8 399.845 402.515 401.376 401.238 402.866ZM408.775 393.653L408.034 393.013C409.231 391.474 410.439 389.878 411.62 388.278L412.387 388.902C411.187 390.502 409.975 392.101 408.775 393.644V393.653ZM415.87 384.063L415.103 383.455C416.227 381.859 417.362 380.215 418.478 378.551L419.245 379.138C418.14 380.794 417.001 382.451 415.87 384.054V384.063ZM422.555 374.112L421.761 373.545C422.835 371.871 423.892 370.186 424.933 368.491L425.738 369.042C424.687 370.753 423.626 372.444 422.555 374.112ZM475.098 367.094C473.329 367.094 471.576 366.741 469.932 366.053L470.285 365.113C471.817 365.752 473.45 366.081 475.098 366.081C475.336 366.057 475.512 366.081 475.719 366.081L475.765 367.094C475.52 367.106 475.255 367.09 475.075 367.11L475.098 367.094ZM481.464 365.364L480.985 364.486C482.583 363.509 483.907 362.102 484.82 360.407L485.653 360.914C484.649 362.771 483.196 364.313 481.441 365.381L481.464 365.364ZM428.833 363.902L428.02 363.368C429.027 361.651 430.021 359.923 431 358.184L431.825 358.702C430.827 360.455 429.823 362.193 428.81 363.919L428.833 363.902ZM465.072 362.493C463.735 360.948 462.666 359.166 461.916 357.228L462.798 356.823C463.508 358.646 464.515 360.322 465.774 361.776L465.072 362.493ZM487.229 354.879L486.27 354.855V354.588C486.278 353.107 485.989 351.641 485.422 350.287C485.28 349.951 485.119 349.619 484.947 349.299L485.783 348.801C485.967 349.149 486.14 349.505 486.297 349.87C486.919 351.356 487.236 352.963 487.229 354.588V354.879ZM435.104 353.818L434.367 353.166C435.611 351.6 436.97 350.14 438.433 348.801L439.058 349.566C437.627 350.875 436.297 352.302 435.081 353.834L435.104 353.818ZM460.416 351.247C460.307 350.274 460.252 349.294 460.252 348.315C460.253 347.231 460.318 346.149 460.447 345.075L461.398 345.2C461.275 346.237 461.212 347.281 461.21 348.327C461.21 349.266 461.264 350.205 461.371 351.137L460.416 351.247ZM443.649 346.022L443.146 345.16C444.799 344.083 446.525 343.136 448.309 342.325L448.692 343.256C446.949 344.046 445.263 344.971 443.649 346.022ZM481.234 344.977C479.73 343.799 478.085 342.838 476.34 342.118L476.697 341.179C478.524 341.938 480.248 342.951 481.821 344.192L481.234 344.977ZM454.027 341.28L453.774 340.304C455.648 339.767 457.554 339.369 459.481 339.113L459.6 340.118C457.72 340.368 455.859 340.757 454.031 341.28H454.027ZM470.902 340.442C469.042 340.072 467.156 339.863 465.264 339.818L465.287 338.806C467.232 338.852 469.17 339.066 471.082 339.445L470.902 340.442ZM462.706 339.417L461.805 339.077C462.469 337.138 463.317 335.275 464.336 333.516L465.153 334.047C464.17 335.745 463.353 337.545 462.714 339.417H462.706ZM468.57 329.292L467.865 328.604C468.145 328.288 468.432 327.976 468.724 327.668C469.818 326.528 470.991 325.475 472.233 324.518L472.801 325.328C471.596 326.255 470.459 327.276 469.399 328.381C469.123 328.685 468.846 328.989 468.578 329.292H468.57ZM477.644 322.234L477.219 321.326C478.961 320.415 480.771 319.657 482.63 319.059L482.91 320.026C481.103 320.609 479.345 321.347 477.652 322.234H477.644ZM488.46 318.516L488.222 317.536C490.098 317.03 491.962 316.495 493.764 315.956L494.025 316.932C492.222 317.475 490.351 318.006 488.468 318.516H488.46ZM499.552 315.187L499.264 314.223C501.112 313.607 502.946 312.963 504.71 312.316L505.024 313.271C503.26 313.923 501.419 314.579 499.559 315.187H499.552ZM510.44 311.165L510.095 310.222C511.89 309.485 513.673 308.715 515.399 307.93L515.782 308.857C514.049 309.651 512.254 310.424 510.447 311.165H510.44ZM521.033 306.334L520.619 305.423L525.792 302.77L526.21 303.681L521.033 306.334ZM531.388 301.025L530.97 300.113L536.144 297.457L536.562 298.368L531.388 301.025ZM541.743 295.711L541.325 294.8L546.499 292.143L546.917 293.054L541.743 295.711ZM552.098 290.398L551.68 289.491L556.854 286.834L557.272 287.745L552.098 290.398ZM562.454 285.088L562.036 284.177L567.209 281.521L567.627 282.432L562.454 285.088Z" fill="#005EA2"/>
<path d="M544.737 96.8208C544.733 97.0276 544.741 97.2345 544.76 97.4404H670.852C670.522 86.4653 661.475 77.665 650.38 77.665C646.969 77.6545 643.605 78.5057 640.569 80.1476C640.722 71.6065 636.837 63.4258 629.673 59.0357C618.934 52.4588 604.867 56.9217 598.289 69.0105C596.373 72.5134 595.24 76.432 594.975 80.4675C589.733 77.9364 583.236 76.4177 576.183 76.4177C558.817 76.4258 544.737 85.5622 544.737 96.8208Z" fill="#C7E9FF"/>
<path d="M334.974 407.96H231V407.555C231.276 398.265 238.801 390.987 248.128 390.987C250.779 390.988 253.398 391.603 255.799 392.79C255.868 385.678 259.32 379.202 264.908 375.78C266.985 374.517 269.28 373.703 271.658 373.385C274.036 373.068 276.451 373.253 278.761 373.93C281.353 374.674 283.78 375.956 285.898 377.701C288.017 379.445 289.786 381.617 291.102 384.091C292.615 386.85 293.544 389.923 293.825 393.097C298.251 391.052 303.452 389.975 308.894 389.975C323.299 389.975 335.016 397.641 335.016 407.061C335.019 407.245 335.013 407.429 334.997 407.612L334.974 407.96ZM231.748 407.203H334.314V407.077C334.314 398.075 322.92 390.749 308.91 390.749C303.375 390.749 298.106 391.882 293.672 394.029L293.197 394.256L293.162 393.709C292.954 390.459 292.042 387.303 290.496 384.483C289.226 382.097 287.519 380.002 285.474 378.319C283.43 376.635 281.089 375.398 278.588 374.679C276.37 374.029 274.051 373.851 271.767 374.155C269.483 374.46 267.279 375.241 265.283 376.453C259.761 379.838 256.409 386.334 256.535 393.409V394.045L255.998 393.758C253.562 392.444 250.864 391.759 248.128 391.761C239.334 391.761 232.208 398.512 231.748 407.203Z" fill="#005EA2"/>
<mask id="mask0_157_283" style="mask-type:luminance" maskUnits="userSpaceOnUse" x="538" y="238" width="292" height="183">
<path d="M538.272 397.016C538.273 403.23 540.611 409.188 544.772 413.581C548.932 417.975 554.575 420.444 560.459 420.445H806.901C812.786 420.444 818.428 417.975 822.589 413.581C826.75 409.188 829.087 403.23 829.089 397.016V238.668H538.272V397.016Z" fill="white"/>
</mask>
<g mask="url(#mask0_157_283)">
<path d="M538.272 397.016C538.273 403.229 540.611 409.188 544.772 413.581C548.932 417.975 554.575 420.443 560.459 420.445H806.901C812.786 420.443 818.428 417.975 822.589 413.581C826.75 409.188 829.087 403.229 829.089 397.016V238.667H538.272V397.016Z" fill="white"/>
<path d="M523.084 279.038C526.497 267.529 537.236 258.68 548.991 257.76C560.746 256.841 572.731 263.835 577.875 274.677C584.13 274.616 590.289 278.277 593.327 283.858C594.816 286.659 595.553 289.837 595.458 293.049C595.364 296.26 594.441 299.383 592.79 302.082C600.234 303.447 606.919 308.618 610.214 315.572C611.834 319.052 612.637 322.893 612.556 326.769C612.474 330.646 611.51 334.445 609.746 337.846C617.942 333.448 628.423 333.845 636.286 338.859C644.148 343.872 649.103 353.312 648.827 362.753C653.932 354.297 663.719 349.028 673.449 349.497C683.179 349.967 692.453 356.151 696.783 365.061C701.351 350.627 713.528 338.976 727.941 335.254C742.354 331.532 758.519 335.858 769.304 346.322C785.527 349.003 797.348 367.6 793.121 383.788C801.885 391.446 806.364 403.895 804.531 415.502C802.698 427.109 794.621 437.476 783.951 441.911L504.863 441.733L481.084 329.297L523.084 279.038Z" fill="#DBF1FF"/>
<g opacity="0.8">
<path d="M518.654 316.402C521.945 304.892 532.342 296.047 543.698 295.104C555.054 294.16 566.633 301.179 571.592 311.996C574.629 311.966 577.618 312.803 580.242 314.418C582.867 316.032 585.03 318.365 586.504 321.17C587.977 323.974 588.707 327.147 588.615 330.353C588.523 333.559 587.613 336.679 585.982 339.385C589.595 340.066 593.004 341.643 595.929 343.985C598.853 346.327 601.21 349.368 602.806 352.858C604.402 356.348 605.192 360.188 605.11 364.063C605.028 367.938 604.077 371.737 602.335 375.149C606.318 372.934 610.782 371.859 615.28 372.034C619.779 372.208 624.156 373.624 627.974 376.142C631.793 378.66 634.919 382.19 637.043 386.382C639.166 390.574 640.211 395.28 640.075 400.031C645.014 391.571 654.472 386.294 663.853 386.756C673.234 387.217 682.213 393.393 686.385 402.299C690.811 387.861 702.585 376.202 716.511 372.468C730.437 368.734 746.043 373.043 756.467 383.5C772.138 386.165 783.544 404.753 779.452 420.945C787.909 428.595 792.227 441.04 790.448 452.647C788.668 464.254 780.859 474.629 770.546 479.072L500.908 479.116L478.004 366.701L518.654 316.402Z" fill="white"/>
</g>
<path opacity="0.7" d="M733.014 243.763C652.24 323.974 594.945 345.604 522.799 353.335L518.005 434.332L593.752 461.668C659.91 459.644 723.434 358.511 762.672 271.751L733.014 243.763Z" fill="#FFF2E0"/>
<path d="M744.384 244.789C731.252 261.195 711.447 276.888 688.086 298.085L719.961 284.368C716.053 291.205 710.373 300.778 707.171 304.881C714.515 301.301 726.347 293.424 730.251 289.249C730.251 295.076 723.601 304.824 720.702 310.15C737.703 294.785 753.171 276.026 758.164 259.551L744.384 244.789Z" fill="#FFA500"/>
<path opacity="0.4" d="M748.107 245.63C740.337 256.504 728.712 266.985 714.97 281.103L733.571 271.788C731.239 276.304 727.849 282.626 725.958 285.344C730.25 282.914 737.176 277.649 739.485 274.866C739.428 278.677 735.481 285.129 733.732 288.636C743.731 278.402 752.875 265.957 755.931 255.131L748.092 245.626" fill="white"/>
<path d="M627.501 301.344C627.604 303.884 627.501 308.165 625.1 309.631C621.096 312.061 617.947 306.132 616.474 303.151C614.721 299.583 615.17 295.152 619.136 293.565C624.375 291.459 627.309 296.614 627.501 301.344Z" fill="#C7E9FF"/>
<path d="M817.392 378.344C817.496 380.88 817.392 385.16 814.992 386.63C810.987 389.06 807.839 383.131 806.366 380.151C804.613 376.583 805.062 372.156 809.028 370.564C814.267 368.454 817.201 373.614 817.392 378.344Z" fill="#C7E9FF"/>
<path d="M606.231 276.212C608.084 276.212 609.587 274.626 609.587 272.668C609.587 270.711 608.084 269.125 606.231 269.125C604.378 269.125 602.875 270.711 602.875 272.668C602.875 274.626 604.378 276.212 606.231 276.212Z" fill="#C7E9FF"/>
<path d="M779.151 341.406C781.677 340.08 782.708 336.842 781.452 334.174C780.196 331.506 777.13 330.419 774.603 331.745C772.077 333.071 771.046 336.309 772.302 338.977C773.558 341.644 776.624 342.732 779.151 341.406Z" fill="#C7E9FF"/>
</g>
<path d="M806.925 420.947H560.486C554.476 420.939 548.715 418.415 544.465 413.928C540.215 409.441 537.824 403.358 537.816 397.012V238.173H829.592V397.012C829.584 403.358 827.194 409.441 822.945 413.928C818.696 418.415 812.934 420.939 806.925 420.947ZM538.763 239.186V397.012C538.77 403.09 541.06 408.916 545.13 413.214C549.201 417.511 554.719 419.928 560.475 419.934H806.925C812.68 419.928 818.198 417.511 822.268 413.213C826.338 408.916 828.627 403.089 828.633 397.012V239.186H538.763Z" fill="#005EA2"/>
<path d="M806.901 177.335H560.459C557.544 177.335 554.658 177.941 551.965 179.12C549.272 180.298 546.825 182.025 544.765 184.203C542.705 186.38 541.071 188.964 539.956 191.809C538.842 194.653 538.27 197.701 538.272 200.779V238.694H829.089V200.779C829.091 197.701 828.519 194.653 827.405 191.808C826.291 188.964 824.657 186.379 822.597 184.201C820.536 182.024 818.089 180.297 815.396 179.119C812.703 177.94 809.817 177.334 806.901 177.335Z" fill="white"/>
<path d="M829.592 239.18H537.816V200.775C537.823 194.429 540.214 188.345 544.464 183.858C548.714 179.37 554.476 176.847 560.486 176.84H806.925C812.935 176.847 818.696 179.371 822.946 183.858C827.195 188.345 829.585 194.429 829.592 200.775V239.18ZM538.763 238.167H828.633V200.775C828.627 194.698 826.338 188.871 822.268 184.574C818.198 180.276 812.68 177.859 806.925 177.853H560.486C554.728 177.856 549.207 180.272 545.135 184.569C541.062 188.867 538.77 194.695 538.763 200.775V238.167Z" fill="#005EA2"/>
<path d="M579.481 210.54C580.817 203.586 576.562 196.806 569.977 195.395C563.392 193.984 556.971 198.477 555.635 205.431C554.299 212.384 558.554 219.164 565.139 220.575C571.723 221.986 578.144 217.493 579.481 210.54Z" fill="#C7E9FF"/>
<path d="M612.028 217.104C616.779 212.087 616.779 203.953 612.028 198.936C607.277 193.919 599.574 193.919 594.823 198.936C590.072 203.953 590.072 212.087 594.823 217.104C599.574 222.121 607.277 222.121 612.028 217.104Z" fill="white"/>
<path d="M603.402 221.365C600.899 221.365 598.452 220.581 596.37 219.113C594.289 217.644 592.666 215.557 591.709 213.115C590.751 210.673 590.5 207.986 590.988 205.393C591.477 202.801 592.682 200.419 594.452 198.55C596.222 196.681 598.477 195.408 600.933 194.892C603.388 194.377 605.933 194.641 608.245 195.653C610.558 196.665 612.535 198.378 613.925 200.575C615.316 202.773 616.058 205.357 616.058 208C616.058 211.545 614.725 214.944 612.351 217.451C609.978 219.957 606.759 221.365 603.402 221.365ZM603.402 195.677C601.09 195.676 598.83 196.399 596.908 197.754C594.986 199.11 593.487 201.037 592.602 203.291C591.717 205.546 591.485 208.028 591.936 210.422C592.386 212.816 593.499 215.015 595.133 216.741C596.767 218.467 598.85 219.643 601.117 220.119C603.384 220.596 605.734 220.352 607.869 219.418C610.005 218.484 611.83 216.902 613.115 214.873C614.399 212.843 615.084 210.457 615.084 208.017C615.08 204.746 613.848 201.61 611.658 199.297C609.468 196.984 606.499 195.682 603.402 195.677Z" fill="#005EA2"/>
<path d="M696 195.738H647.565C641.153 195.738 635.956 201.227 635.956 207.997V208.001C635.956 214.772 641.153 220.26 647.565 220.26H696C702.412 220.26 707.61 214.772 707.61 208.001V207.997C707.61 201.227 702.412 195.738 696 195.738Z" fill="white"/>
<path d="M696.021 220.796H647.597C644.484 220.653 641.544 219.246 639.389 216.869C637.234 214.492 636.032 211.329 636.032 208.039C636.032 204.749 637.234 201.586 639.389 199.209C641.544 196.832 644.484 195.426 647.597 195.282H696.021C699.134 195.426 702.074 196.832 704.229 199.209C706.383 201.586 707.586 204.749 707.586 208.039C707.586 211.329 706.383 214.492 704.229 216.869C702.074 219.246 699.134 220.653 696.021 220.796ZM647.585 196.274C644.636 196.274 641.807 197.512 639.721 199.714C637.635 201.917 636.463 204.904 636.463 208.019C636.463 211.134 637.635 214.121 639.721 216.324C641.807 218.526 644.636 219.763 647.585 219.763H696.021C698.971 219.763 701.8 218.526 703.886 216.324C705.971 214.121 707.143 211.134 707.143 208.019C707.143 204.904 705.971 201.917 703.886 199.714C701.8 197.512 698.971 196.274 696.021 196.274H647.585Z" fill="#005EA2"/>
<path d="M794.876 149.387C775.454 167.34 741.95 154.968 731.548 169.3L761.291 194.17L794.876 149.387Z" fill="#005EA2"/>
<path d="M731.522 169.312C730.792 171.364 730.602 173.588 730.972 175.745C731.342 177.903 732.258 179.914 733.623 181.567L754.718 207.081L761.284 194.202L731.522 169.312Z" fill="#DBF1FF"/>
<path d="M838.885 186.194C826.789 210.271 845.869 241.863 835.05 255.852L805.315 230.978L838.885 186.194Z" fill="#005EA2"/>
<path d="M835.04 255.857C833.315 257.077 831.309 257.782 829.236 257.896C827.162 258.01 825.098 257.529 823.262 256.505L794.934 240.686L805.29 230.986L835.04 255.857Z" fill="#DBF1FF"/>
<path d="M854 118.55L827.521 128.812L850.609 148.118L854 118.55Z" fill="#1B1B43"/>
<path d="M850.585 148.122C846.884 192.37 815.926 233.654 778.321 256.589L744.057 227.964C758.436 180.176 785.213 146.012 827.497 128.816L850.585 148.122Z" fill="#DBF1FF"/>
<path d="M744.057 227.945L729.191 238.811L771.706 274.361L778.322 256.57L744.057 227.945Z" fill="#005EA2"/>
<path d="M819.425 183.801C828.148 182.706 834.378 174.352 833.341 165.141C832.304 155.93 824.392 149.351 815.669 150.446C806.947 151.541 800.716 159.896 801.753 169.106C802.79 178.317 810.702 184.896 819.425 183.801Z" fill="white"/>
<path d="M818.771 179.012L818.671 178.004C819.591 177.904 820.493 177.675 821.356 177.324L821.701 178.267C820.759 178.65 819.774 178.901 818.771 179.012ZM815.779 178.932C814.789 178.767 813.824 178.462 812.91 178.024L813.294 177.101C814.129 177.496 815.012 177.768 815.917 177.911L815.779 178.932ZM824.305 176.74L823.738 175.931C824.475 175.35 825.137 174.669 825.705 173.906L826.472 174.533C825.847 175.369 825.118 176.111 824.305 176.74ZM810.368 176.335C809.592 175.667 808.906 174.89 808.327 174.027L809.094 173.44C809.626 174.229 810.255 174.94 810.966 175.554L810.368 176.335ZM827.627 172.622L826.779 172.152C827.202 171.292 827.515 170.377 827.711 169.43L828.647 169.649C828.434 170.689 828.091 171.694 827.627 172.638V172.622ZM806.916 171.229C806.57 170.235 806.351 169.197 806.264 168.142L807.219 168.053C807.297 169.022 807.497 169.975 807.813 170.888L806.916 171.229ZM827.941 166.563C827.893 165.599 827.727 164.646 827.446 163.728L828.355 163.416C828.665 164.422 828.849 165.466 828.9 166.523L827.941 166.563ZM807.361 165.178L806.417 165C806.593 163.957 806.9 162.944 807.33 161.987L808.197 162.42C807.801 163.296 807.517 164.223 807.353 165.178H807.361ZM826.254 161.1C825.75 160.29 825.146 159.554 824.459 158.913L825.095 158.155C825.845 158.857 826.504 159.661 827.055 160.545L826.254 161.1ZM809.681 159.986L808.952 159.33C809.604 158.525 810.353 157.814 811.181 157.216L811.721 158.054C810.963 158.601 810.277 159.252 809.681 159.99V159.986ZM822.188 157.293C821.367 156.861 820.495 156.546 819.595 156.357L819.779 155.365C820.763 155.57 821.716 155.914 822.614 156.386L822.188 157.293ZM814.168 156.754L813.858 155.798C814.803 155.451 815.789 155.238 816.788 155.167L816.857 156.175C815.94 156.245 815.037 156.441 814.168 156.758V156.754Z" fill="#005EA2"/>
<path d="M772.274 228.366L771.52 227.735C770.402 226.801 768.779 227 767.894 228.18L738.073 267.952C737.188 269.132 737.377 270.847 738.495 271.781L739.25 272.412C740.367 273.346 741.991 273.147 742.875 271.967L772.696 232.195C773.581 231.015 773.392 229.301 772.274 228.366Z" fill="#1B1B43"/>
<path d="M792.015 619.119H786.262V618.106H792.015V619.119ZM780.509 619.119H774.756V618.106H780.509V619.119ZM769.003 619.119H763.25V618.106H769.003V619.119ZM757.497 619.119H751.744V618.106H757.497V619.119ZM745.991 619.119H740.239V618.106H745.991V619.119ZM734.486 619.119H728.733V618.106H734.486V619.119ZM722.98 619.119H717.227V618.106H722.98V619.119ZM711.474 619.119H705.721V618.106H711.474V619.119ZM699.968 619.119H694.215V618.106H699.968V619.119ZM688.462 619.119H682.71V618.106H688.462V619.119ZM676.957 619.119C674.984 619.1 673.028 618.748 671.162 618.074L671.472 617.118C673.241 617.755 675.095 618.089 676.964 618.106L676.957 619.119ZM792.709 619.119L792.674 618.106C794.543 618.035 796.389 617.646 798.139 616.952L798.477 617.899C796.627 618.63 794.678 619.041 792.705 619.119H792.709ZM665.976 615.154C664.408 613.891 663.042 612.371 661.93 610.65L662.72 610.079C663.775 611.71 665.07 613.153 666.555 614.352L665.976 615.154ZM803.578 614.814L802.976 614.028C804.43 612.786 805.687 611.305 806.696 609.642L807.505 610.193C806.437 611.94 805.109 613.494 803.574 614.797L803.578 614.814ZM659.433 605.029C658.969 603.299 658.734 601.51 658.735 599.712V598.902H659.694V599.712C659.693 601.415 659.915 603.11 660.354 604.75L659.433 605.029ZM809.845 604.495L808.917 604.248C809.271 602.765 809.45 601.241 809.45 599.712V598.347H810.408V599.679C810.41 601.298 810.219 602.91 809.841 604.478L809.845 604.495ZM659.69 592.795H658.731V586.72H659.69V592.795ZM810.416 592.26H809.457V586.185H810.416V592.26ZM659.69 580.645H658.731V574.57H659.69V580.645ZM810.416 580.11H809.457V574.036H810.416V580.11ZM659.69 568.495H658.731V562.421H659.69V568.495ZM810.416 567.961H809.457V561.886H810.416V567.961ZM659.69 556.346H658.731V550.271H659.69V556.346ZM810.416 555.811H809.457V549.737H810.416V555.811ZM659.69 544.196H658.731V538.122H659.69V544.196ZM810.416 543.662H809.457V537.587H810.416V543.662ZM659.69 532.047H658.731V527.997C658.732 527.303 658.766 526.61 658.835 525.92L659.79 526.029C659.724 526.683 659.691 527.34 659.69 527.997V532.047ZM810.416 531.512H809.457V527.997C809.457 527.164 809.404 526.332 809.3 525.506L810.251 525.373C810.36 526.243 810.415 527.119 810.416 527.997V531.512ZM661.274 520.355L660.4 519.95C661.221 518.055 662.325 516.311 663.671 514.786L664.373 515.479C663.094 516.915 662.043 518.56 661.263 520.351L661.274 520.355ZM807.674 519.885C806.849 518.113 805.758 516.492 804.445 515.086L805.131 514.377C806.515 515.86 807.665 517.568 808.537 519.436L807.674 519.885ZM668.761 511.842L668.3 510.955C670.031 509.953 671.904 509.254 673.846 508.886L674.015 509.882C672.175 510.232 670.401 510.894 668.761 511.842ZM799.927 511.599C798.262 510.701 796.471 510.092 794.623 509.797L794.764 508.797C796.716 509.107 798.606 509.749 800.364 510.696L799.927 511.599ZM788.95 509.574H783.197V508.562H788.95V509.574ZM777.444 509.574H771.692V508.562H777.444V509.574ZM765.939 509.574H760.186V508.562H765.939V509.574ZM754.433 509.574H748.68V508.562H754.433V509.574ZM742.927 509.574H737.174V508.562H742.927V509.574ZM731.421 509.574H725.668V508.562H731.421V509.574ZM719.915 509.574H714.163V508.562H719.915V509.574ZM708.41 509.574H702.657V508.562H708.41V509.574ZM696.904 509.574H691.151V508.562H696.904V509.574ZM685.398 509.574H679.645V508.562H685.398V509.574Z" fill="#005EA2"/>
<path d="M781.525 489.056H659.123C651.305 489.056 644.967 495.748 644.967 504.004V586.649C644.967 594.904 651.305 601.597 659.123 601.597H781.525C789.343 601.597 795.681 594.904 795.681 586.649V504.004C795.681 495.748 789.343 489.056 781.525 489.056Z" fill="#005EA2"/>
<path d="M687.485 554.761H671.166V589.757H687.485V554.761Z" fill="white"/>
<path d="M714.824 555.902H698.505V589.775H714.824V555.902Z" fill="white"/>
<path d="M742.164 538.221H725.845V589.788H742.164V538.221Z" fill="white"/>
<path d="M769.503 523.087H753.184V589.78H769.503V523.087Z" fill="white"/>
<path d="M764.128 504.873H676.565V508.915H764.128V504.873Z" fill="white"/>
<path d="M409.926 379.183C407.15 369.026 401.276 360.121 393.215 353.852L389.979 351.333L392.728 411.384L413.976 394.03L409.926 379.183Z" fill="#FFA500"/>
<path d="M478.231 451.722L473.51 441.962C472.919 440.738 472.094 439.658 471.086 438.79C470.078 437.922 468.911 437.285 467.657 436.92L453.77 432.87L418.04 408.782L414.002 393.996L392.754 411.357L392.946 415.573C393.135 419.718 394.421 423.725 396.658 427.137C398.896 430.549 401.994 433.229 405.603 434.875L440.296 450.669L456.788 451.074C462.104 453.006 463.937 457.845 467.231 456.104C468.463 455.456 463.661 447.105 463.661 447.105L471.65 456.363L478.231 451.722Z" fill="#FFBC96"/>
<path d="M417.615 408.456L412.945 414.262L413.784 415.015L418.454 409.208L417.615 408.456Z" fill="#D28572"/>
<path d="M416.063 476.051L442.058 473.621C458.98 472.046 473.699 486.472 474.524 505.445L480.396 640.633L444.54 641.807L416.063 476.051Z" fill="#003B66"/>
<path d="M447.433 640.489L448.529 677.833H501.667L475.465 654.809L473.815 636.816L447.433 640.489Z" fill="#1B1B43"/>
<path d="M474.809 653.883L463.631 662.976L464.972 664.815L476.15 655.722L474.809 653.883Z" fill="white"/>
<path d="M435.341 640.489L436.438 677.833H489.575L463.373 654.809L461.724 636.816L435.341 640.489Z" fill="#DBF1FF"/>
<path d="M462.717 653.883L451.539 662.976L452.88 664.815L464.058 655.722L462.717 653.883Z" fill="white"/>
<path d="M474.929 644.172H430.953L399.612 542.338L395.224 528.083L332.56 527.791C328.69 527.735 324.985 525.843 321.821 523.045C315.167 517.112 312.099 507.777 313.318 498.677L318.818 457.267L411.911 470.049C420.524 471.23 428.574 475.213 434.944 481.447C441.314 487.681 445.687 495.854 447.457 504.833L474.929 644.172Z" fill="#005EA2"/>
<path d="M408.143 528.068L399.613 542.324L395.226 528.068H408.143Z" fill="#1B1B43"/>
<path d="M396.63 449.749C396.177 451.664 395.705 453.58 395.222 455.508L391.924 469.727L348.497 467.823L317.232 466.446C315.283 466.363 313.375 465.833 311.64 464.892C309.905 463.951 308.385 462.622 307.185 460.998C305.986 459.373 305.137 457.493 304.696 455.486C304.255 453.48 304.234 451.396 304.633 449.38L319.207 375.304C320.122 369.177 322.929 363.541 327.193 359.274C331.456 355.007 336.936 352.347 342.779 351.71L378.447 347.834L389.987 351.317C401.255 357.7 401.267 369.274 401.807 376.856C404.181 410.032 401.267 430.127 396.63 449.749Z" fill="#FFA500"/>
<path opacity="0.3" d="M367.178 447.387C366.729 449.303 395.697 453.588 395.213 455.515L391.915 469.734L348.488 467.831C333.32 455.746 327.636 429.451 322.105 396.505L367.178 447.387Z" fill="#1B1B43"/>
<path d="M358.539 369.242C360.415 371.405 362.606 373.239 365.029 374.673C367.422 376.111 370.055 377.05 372.784 377.439C375.469 377.808 378.311 377.569 380.673 376.224C383.09 374.956 384.624 372.279 384.892 369.384L385.322 369.412C385.309 370.958 384.934 372.476 384.229 373.83C383.491 375.198 382.42 376.331 381.126 377.111C378.545 378.686 375.476 378.974 372.627 378.589C369.763 378.166 367.013 377.127 364.546 375.536C362.091 373.976 359.935 371.945 358.19 369.546L358.539 369.242Z" fill="#1B1B43"/>
<path d="M402.759 414.532L401.938 414.471C402.729 402.791 401.938 388.434 399.561 371.805L400.374 371.675C402.752 388.369 403.553 402.787 402.759 414.532Z" fill="#1B1B43"/>
<path d="M476.584 455.708H435.722V464.221H476.584V455.708Z" fill="#1B1B43"/>
<path d="M547.314 464.218H465.228L502.975 387.988H585.061L547.314 464.218Z" fill="#005EA2"/>
<path d="M367.601 286.882C357.982 276.866 339.841 281.074 340.117 297.909C320.327 303.421 319.226 326.351 327.196 338.104L334.069 338.683L335.58 330.122L339.565 338.829L358.806 340.137L367.601 286.882Z" fill="#1B1B43"/>
<path d="M383.676 324.336V356.33C383.676 356.622 383.676 356.901 383.642 357.181C383.525 358.741 383.086 360.255 382.357 361.617C381.627 362.98 380.625 364.157 379.419 365.067C378.213 365.978 376.833 366.598 375.377 366.886C373.92 367.174 372.421 367.122 370.985 366.734C366.567 365.531 362.657 362.802 359.877 358.981C357.097 355.161 355.607 350.468 355.644 345.65L355.797 324.348L383.676 324.336Z" fill="#FFBC96"/>
<path d="M383.662 338.144V356.284C383.662 356.576 383.662 356.855 383.627 357.134C375.527 355.745 366.157 345.843 363.856 335.058L383.662 338.144Z" fill="#1B1B43"/>
<path d="M400.078 326.715C399.667 329.291 399.09 331.835 398.352 334.329C395.932 342.428 391.59 349.176 383.816 348.005C365.544 345.243 355.377 325.366 355.377 325.366L367.876 310.276L376.264 298.365L401.409 309.835C401.418 315.491 400.973 321.138 400.078 326.715Z" fill="#FFBC96"/>
<path d="M360.789 320.238C368.808 319.966 375.01 315.653 377.664 303.402C377.664 303.402 396.353 320.412 405.512 311.336C413.182 303.722 400.169 286.203 378.627 284.113C370.759 283.392 362.934 285.917 356.793 291.16C346.349 299.996 345.352 320.541 355.109 327.653L360.789 320.238Z" fill="#1B1B43"/>
<path d="M351.394 298.808C350.868 296.807 351.26 294.588 352.107 292.68C352.981 290.762 354.27 289.087 355.87 287.792C357.446 286.487 359.282 285.577 361.239 285.131C363.175 284.658 365.201 284.822 367.046 285.601C365.331 286.16 363.663 286.87 362.06 287.723C360.573 288.527 359.161 289.476 357.841 290.558C356.53 291.623 355.325 292.825 354.244 294.146C353.105 295.562 352.147 297.129 351.394 298.808Z" fill="#FFA500"/>
<path d="M361.208 329.015C364.413 327.659 365.754 323.245 364.203 319.154C362.652 315.063 358.796 312.846 355.591 314.201C352.386 315.556 351.044 319.971 352.595 324.061C354.147 328.152 358.002 330.37 361.208 329.015Z" fill="#FFBC96"/>
<path d="M358.354 326.007C358.542 324.676 358.459 323.317 358.112 322.022C357.729 320.807 356.989 319.714 356.137 318.604L356.406 318.252C357.055 318.601 357.633 319.083 358.104 319.67C358.576 320.257 358.932 320.937 359.152 321.671C359.372 322.405 359.451 323.178 359.385 323.945C359.319 324.711 359.11 325.457 358.768 326.137L358.354 326.007Z" fill="#1B1B43"/>
<path d="M388.42 321.715C388.383 322.095 388.243 322.455 388.017 322.753C387.79 323.05 387.487 323.272 387.143 323.391C386.8 323.51 386.431 323.521 386.081 323.423C385.732 323.325 385.417 323.122 385.175 322.839C384.933 322.555 384.773 322.204 384.717 321.827C384.66 321.45 384.708 321.064 384.855 320.715C385.002 320.366 385.241 320.07 385.545 319.862C385.848 319.654 386.202 319.544 386.563 319.544C387.081 319.574 387.568 319.819 387.916 320.225C388.263 320.632 388.445 321.168 388.42 321.715Z" fill="#1B1B43"/>
<path d="M398.164 323.437C398.092 323.768 397.931 324.07 397.701 324.306C397.47 324.542 397.18 324.703 396.864 324.768C396.549 324.833 396.222 324.801 395.924 324.674C395.626 324.547 395.369 324.332 395.185 324.054C395 323.777 394.896 323.448 394.885 323.109C394.873 322.77 394.956 322.435 395.121 322.144C395.286 321.853 395.528 321.619 395.817 321.471C396.106 321.322 396.43 321.265 396.748 321.307C397.203 321.393 397.607 321.665 397.872 322.064C398.137 322.463 398.242 322.957 398.164 323.437Z" fill="#1B1B43"/>
<path d="M388.302 316.265C388.375 317.277 386.841 317.375 384.574 317.448C382.307 317.52 380.739 318.258 380.739 317.614C380.739 316.97 382.396 315.325 384.628 314.929C386.921 314.515 388.21 315.058 388.302 316.265Z" fill="#1B1B43"/>
<path d="M395.547 317.257C395.378 318.258 396.51 318.513 398.182 318.825C399.854 319.136 400.936 320.04 401.02 319.396C401.104 318.752 400.042 316.966 398.427 316.318C396.813 315.67 395.743 316.067 395.547 317.257Z" fill="#1B1B43"/>
<path d="M392.841 325.248C393.276 325.787 393.742 326.297 394.237 326.775L394.978 327.504C395.273 327.772 395.531 328.083 395.745 328.427C395.884 328.66 395.964 328.926 395.979 329.201C395.991 329.483 395.929 329.764 395.798 330.011C395.577 330.395 395.273 330.719 394.912 330.959C394.282 331.361 393.582 331.628 392.853 331.744L392.696 331.339C393.264 330.982 393.811 330.587 394.333 330.157C394.541 329.976 394.715 329.755 394.843 329.505C394.932 329.314 394.905 329.249 394.805 329.023C394.56 328.618 393.938 328.034 393.528 327.447C393.062 326.86 392.698 326.191 392.45 325.471L392.841 325.248Z" fill="#1B1B43"/>
<path d="M383.537 332.397C384.66 333.753 385.838 335.005 387.234 335.799C388.669 336.593 390.305 336.892 391.909 336.653L392.024 337.091C391.191 337.488 390.28 337.67 389.366 337.621C388.436 337.57 387.529 337.293 386.716 336.811C385.145 335.854 383.903 334.393 383.172 332.64L383.537 332.397Z" fill="#1B1B43"/>
<path opacity="0.2" d="M376.948 331.142C379.454 331.142 381.486 328.997 381.486 326.351C381.486 323.705 379.454 321.56 376.948 321.56C374.443 321.56 372.411 323.705 372.411 326.351C372.411 328.997 374.443 331.142 376.948 331.142Z" fill="#FE5B52"/>
<path opacity="0.2" d="M400.062 326.693C399.651 329.269 399.074 331.813 398.336 334.307C397.855 333.731 397.513 333.042 397.337 332.297C397.162 331.552 397.158 330.774 397.328 330.027C397.497 329.281 397.834 328.588 398.309 328.008C398.785 327.428 399.386 326.977 400.062 326.693Z" fill="#FE5B52"/>
<path d="M348.309 383.349L322.105 396.507L330.321 417.077L357.797 403.7L348.309 383.349Z" fill="#FFA121"/>
<path d="M445.382 454.694C444.657 454.289 444.201 454.05 444.201 454.05L444.462 453.503C444.462 453.503 444.949 453.75 445.651 454.147L445.382 454.694Z" fill="#C5C5FF"/>
<path d="M456.25 457.555C455.402 459.32 448.917 456.198 445.894 454.631C448.234 456 452.269 458.681 450.478 460.167C449.039 461.341 445.848 458.843 435.405 454.27C436.989 455.06 446.324 459.75 443.969 461.524C441.407 463.451 430.415 459.203 430.415 459.203L420.881 464.614H409.908L370.351 464.881C367.877 464.89 365.412 464.562 363.018 463.905C358.289 462.6 353.896 460.196 350.158 456.87C347.808 454.779 345.753 452.343 344.057 449.637C342.776 447.6 341.682 445.438 340.789 443.182L330.357 417.089L357.81 403.692L372.146 434.422L419.419 445.263L432.613 441.781C435.451 441.027 439.463 442.295 441.959 443.907C448.05 447.835 457.04 455.87 456.25 457.555Z" fill="#FFBC96"/>
<path opacity="0.2" d="M363.687 459.583C363.688 461.055 363.446 462.516 362.969 463.9C358.24 462.595 353.847 460.191 350.109 456.865C347.759 454.774 345.704 452.338 344.007 449.632C345.785 448.122 347.93 447.173 350.196 446.896C352.463 446.619 354.757 447.023 356.814 448.064C358.872 449.104 360.609 450.738 361.825 452.776C363.041 454.814 363.686 457.174 363.687 459.583Z" fill="#FE5B52"/>
<path d="M419.333 445.03C422.602 443.866 425.931 442.9 429.305 442.139C431.004 441.748 432.728 441.49 434.463 441.365C435.349 441.309 436.236 441.333 437.118 441.438C437.559 441.531 438 441.653 438.441 441.762C438.882 441.871 439.269 442.098 439.683 442.264C442.901 443.803 445.701 446.006 448.413 448.27C451.124 450.534 453.679 453.001 456.164 455.56L456.279 455.678L456.302 455.827C456.405 456.367 456.312 456.928 456.041 457.399C455.885 457.63 455.68 457.82 455.443 457.954C455.234 458.091 455 458.178 454.756 458.209C453.926 458.315 453.085 458.228 452.29 457.954C450.813 457.467 449.384 456.832 448.021 456.058C446.675 455.301 445.337 454.511 444.063 453.657C442.79 452.802 441.513 451.923 440.228 451.057L440.811 450.072C443.064 451.463 445.241 452.987 447.331 454.637C448.413 455.471 449.403 456.431 450.28 457.5C450.517 457.809 450.709 458.153 450.852 458.521C450.939 458.746 450.983 458.986 450.982 459.229C450.975 459.524 450.877 459.809 450.702 460.039C450.407 460.379 450.015 460.609 449.586 460.695C449.238 460.778 448.884 460.831 448.528 460.853H448.42L448.301 460.801L436.37 455.536L436.726 454.649C438.615 455.54 440.438 456.58 442.18 457.759C443.032 458.399 443.925 458.974 444.554 460.092C444.644 460.259 444.699 460.445 444.715 460.636C444.732 460.827 444.709 461.02 444.65 461.202C444.514 461.542 444.262 461.816 443.944 461.971C443.43 462.229 442.869 462.367 442.299 462.376C440.163 462.429 438.153 461.898 436.163 461.38C434.172 460.861 432.22 460.165 430.291 459.432L430.436 459.003C432.354 459.687 434.325 460.286 436.301 460.785C438.276 461.283 440.301 461.712 442.261 461.595C443.197 461.554 444.313 461.121 443.856 460.469C443.427 459.707 442.541 459.059 441.731 458.488C440.014 457.363 438.219 456.374 436.362 455.532L436.722 454.645L448.7 459.813L448.474 459.772C448.763 459.753 449.051 459.71 449.333 459.642C449.542 459.605 449.737 459.507 449.897 459.359C450.062 459.286 449.839 458.662 449.464 458.197C448.643 457.193 447.718 456.291 446.706 455.507C444.644 453.894 442.497 452.407 440.274 451.053L440.853 450.072C442.119 450.927 443.346 451.85 444.631 452.66C445.916 453.47 447.201 454.28 448.512 455.038C449.807 455.78 451.166 456.392 452.57 456.864C453.209 457.092 453.886 457.175 454.557 457.107L454.768 457.071C454.825 457.045 454.88 457.015 454.933 456.982C455.059 456.945 455.098 456.836 455.182 456.771C455.296 456.547 455.338 456.29 455.301 456.038L455.439 456.305C453.007 453.77 450.453 451.34 447.807 449.044C445.16 446.747 442.399 444.565 439.369 443.058L438.218 442.568C437.835 442.467 437.428 442.349 437.029 442.26C436.2 442.151 435.363 442.117 434.529 442.159C432.826 442.248 431.132 442.465 429.458 442.807C426.089 443.483 422.759 444.364 419.486 445.447L419.333 445.03Z" fill="#D28572"/>
<path d="M330.512 417.456L330.167 416.667L357.275 403.456L345.984 375.556L346.743 375.212L358.349 403.897L330.512 417.456Z" fill="#1B1B43"/>
<path d="M334.381 539.666H332.942V670.459H334.381V539.666Z" fill="#1B1B43"/>
<path d="M368.287 527.498H299.03C294.323 527.498 290.508 531.526 290.508 536.495C290.508 541.463 294.323 545.491 299.03 545.491H368.287C372.994 545.491 376.809 541.463 376.809 536.495C376.809 531.526 372.994 527.498 368.287 527.498Z" fill="#DBF1FF"/>
<path d="M317.314 663.965H349.96C353.357 663.965 356.615 665.39 359.018 667.927C361.42 670.463 362.77 673.904 362.77 677.491V678.978H304.5V677.491C304.5 675.715 304.832 673.955 305.476 672.314C306.12 670.673 307.064 669.181 308.254 667.925C309.444 666.669 310.856 665.673 312.411 664.993C313.965 664.314 315.632 663.964 317.314 663.965Z" fill="#DBF1FF"/>
<path d="M417.469 472.199L416.253 473.009L539.026 678.479L540.242 677.669L417.469 472.199Z" fill="#1B1B43"/>
<path d="M539.022 472.207L416.215 677.654L417.431 678.464L540.238 473.017L539.022 472.207Z" fill="#1B1B43"/>
<path d="M585.775 464.226H370.662V481.357H585.775V464.226Z" fill="#DBF1FF"/>
<path d="M388.683 191.098C379.792 191.095 371.102 188.308 363.711 183.09C356.319 177.871 350.56 170.456 347.159 161.781C343.759 153.107 342.871 143.562 344.607 134.354C346.344 125.147 350.627 116.69 356.915 110.052C363.202 103.415 371.213 98.8949 379.933 97.0644C388.654 95.234 397.692 96.1751 405.906 99.7686C414.12 103.362 421.141 109.447 426.08 117.253C431.019 125.06 433.655 134.237 433.655 143.626C433.642 156.215 428.899 168.284 420.468 177.184C412.036 186.084 400.605 191.088 388.683 191.098ZM388.683 97.17C379.981 97.1692 371.474 99.8934 364.238 104.998C357.002 110.103 351.362 117.359 348.031 125.848C344.7 134.338 343.829 143.68 345.526 152.693C347.224 161.705 351.414 169.984 357.568 176.482C363.721 182.98 371.561 187.405 380.097 189.197C388.632 190.99 397.479 190.069 405.518 186.552C413.558 183.035 420.43 177.08 425.264 169.439C430.098 161.798 432.678 152.815 432.677 143.626C432.664 131.309 428.025 119.501 419.777 110.792C411.53 102.083 400.347 97.1839 388.683 97.17Z" fill="#005EA2"/>
<path d="M419.079 176.672C446.092 176.672 467.99 153.549 467.99 125.025C467.99 96.5005 446.092 73.3771 419.079 73.3771C392.066 73.3771 370.168 96.5005 370.168 125.025C370.168 153.549 392.066 176.672 419.079 176.672Z" fill="#DBF1FF"/>
<path d="M419.11 126.033L391.994 103.588L392.883 102.389L419.079 124.077L433.684 111.016L434.612 112.174L419.11 126.033Z" fill="#1B1B43"/>
<path d="M292.163 236.424H267.326C265.406 236.424 263.565 237.229 262.208 238.662C260.851 240.096 260.088 242.039 260.088 244.066V270.293C260.088 272.32 260.851 274.263 262.208 275.697C263.565 277.13 265.406 277.935 267.326 277.935H285.048L292.688 289.072V277.907C294.511 277.768 296.217 276.906 297.462 275.494C298.707 274.081 299.4 272.223 299.4 270.293V244.066C299.4 242.039 298.637 240.096 297.28 238.662C295.923 237.229 294.082 236.424 292.163 236.424Z" fill="white"/>
<path d="M293.191 290.647L284.826 278.453H267.349C265.303 278.451 263.341 277.592 261.894 276.064C260.448 274.537 259.634 272.465 259.632 270.305V244.078C259.634 241.918 260.448 239.846 261.894 238.319C263.341 236.791 265.303 235.932 267.349 235.93H292.186C294.231 235.933 296.192 236.793 297.639 238.32C299.085 239.847 299.899 241.918 299.902 244.078V270.305C299.895 272.279 299.211 274.184 297.978 275.668C296.744 277.151 295.044 278.113 293.191 278.376V290.647ZM267.349 236.942C265.557 236.943 263.838 237.696 262.571 239.034C261.304 240.372 260.592 242.186 260.591 244.078V270.305C260.592 272.197 261.304 274.012 262.571 275.35C263.838 276.688 265.557 277.44 267.349 277.441H285.317L292.22 287.521V277.449L292.665 277.412C294.365 277.277 295.954 276.47 297.115 275.153C298.277 273.836 298.925 272.105 298.932 270.305V244.078C298.93 242.186 298.217 240.372 296.951 239.035C295.684 237.697 293.966 236.944 292.174 236.942H267.349Z" fill="#005EA2"/>
<path d="M279.232 270.664L269.29 255.497L271.653 253.772L278.971 264.93L289.99 244.105L292.502 245.587L279.232 270.664Z" fill="#005EA2"/>
<g filter="url(#filter0_d_157_283)">
<path d="M540 42.9888C540 30.8386 549.85 20.9888 562 20.9888H806V91.9888C806 104.139 796.15 113.989 784 113.989H540V42.9888Z" fill="white"/>
<g clip-path="url(#clip0_157_283)">
<path d="M576 79.4888C582.627 79.4888 588 74.1162 588 67.4888C588 60.8614 582.627 55.4888 576 55.4888C569.373 55.4888 564 60.8614 564 67.4888C564 74.1162 569.373 79.4888 576 79.4888Z" fill="#00BA00"/>
<path fill-rule="evenodd" clip-rule="evenodd" d="M572.253 73.3412L567.864 68.6439C567.263 68.0009 567.298 66.9834 567.941 66.3826C568.584 65.7817 569.601 65.8163 570.202 66.4593L573.588 70.0825L578.946 65.0759C578.994 65.0308 579.045 64.9895 579.097 64.9515L581.617 62.5972C582.26 61.9963 583.277 62.0309 583.878 62.674C584.479 63.317 584.444 64.3345 583.801 64.9354L576.105 72.1264L576.097 72.1176L573.434 74.6051L572.253 73.3412Z" fill="white"/>
</g>
<path d="M614.344 59.856H619.195C621.336 59.856 622.945 60.1763 624.023 60.817C625.102 61.4576 625.641 62.5474 625.641 64.0865C625.641 64.7505 625.512 65.3482 625.254 65.8795C625.004 66.4029 624.637 66.8365 624.152 67.1802C623.668 67.524 623.07 67.7623 622.359 67.8951V68.0123C623.109 68.1295 623.773 68.3443 624.352 68.6568C624.93 68.9693 625.383 69.4068 625.711 69.9693C626.039 70.5318 626.203 71.2466 626.203 72.1138C626.203 73.1685 625.957 74.0591 625.465 74.7857C624.98 75.5123 624.293 76.063 623.402 76.438C622.512 76.8052 621.457 76.9888 620.238 76.9888H614.344V59.856ZM616.336 67.2037H619.617C621.109 67.2037 622.141 66.9576 622.711 66.4654C623.289 65.9732 623.578 65.2545 623.578 64.3091C623.578 63.3326 623.234 62.6295 622.547 62.1998C621.867 61.7701 620.781 61.5552 619.289 61.5552H616.336V67.2037ZM616.336 68.8795V75.2896H619.898C621.422 75.2896 622.5 74.9927 623.133 74.399C623.766 73.7974 624.082 72.9888 624.082 71.9732C624.082 71.3248 623.938 70.7701 623.648 70.3091C623.367 69.8482 622.906 69.4966 622.266 69.2545C621.633 69.0045 620.785 68.8795 619.723 68.8795H616.336ZM640.172 64.1451V76.9888H638.578L638.297 75.1841H638.191C637.926 75.6295 637.582 76.0045 637.16 76.3091C636.738 76.6138 636.262 76.8404 635.73 76.9888C635.207 77.1451 634.648 77.2232 634.055 77.2232C633.039 77.2232 632.188 77.0591 631.5 76.731C630.812 76.4029 630.293 75.8951 629.941 75.2076C629.598 74.5201 629.426 73.6373 629.426 72.5591V64.1451H631.395V72.4185C631.395 73.4888 631.637 74.2896 632.121 74.8209C632.605 75.3443 633.344 75.606 634.336 75.606C635.289 75.606 636.047 75.4263 636.609 75.067C637.18 74.7076 637.59 74.1802 637.84 73.4849C638.09 72.7818 638.215 71.9224 638.215 70.9068V64.1451H640.172ZM652.594 73.4732C652.594 74.2935 652.387 74.9849 651.973 75.5474C651.566 76.1021 650.98 76.5201 650.215 76.8013C649.457 77.0826 648.551 77.2232 647.496 77.2232C646.598 77.2232 645.82 77.1529 645.164 77.0123C644.508 76.8716 643.934 76.6724 643.441 76.4146V74.6216C643.965 74.8795 644.59 75.1138 645.316 75.3248C646.043 75.5357 646.785 75.6412 647.543 75.6412C648.652 75.6412 649.457 75.4615 649.957 75.1021C650.457 74.7427 650.707 74.2545 650.707 73.6373C650.707 73.2857 650.605 72.9771 650.402 72.7115C650.207 72.438 649.875 72.1763 649.406 71.9263C648.938 71.6685 648.289 71.3873 647.461 71.0826C646.641 70.7701 645.93 70.4615 645.328 70.1568C644.734 69.8443 644.273 69.4654 643.945 69.0201C643.625 68.5748 643.465 67.9966 643.465 67.2857C643.465 66.1998 643.902 65.3677 644.777 64.7896C645.66 64.2037 646.816 63.9107 648.246 63.9107C649.02 63.9107 649.742 63.9888 650.414 64.1451C651.094 64.2935 651.727 64.4966 652.312 64.7545L651.656 66.313C651.125 66.0865 650.559 65.8951 649.957 65.7388C649.355 65.5826 648.742 65.5045 648.117 65.5045C647.219 65.5045 646.527 65.6529 646.043 65.9498C645.566 66.2466 645.328 66.6529 645.328 67.1685C645.328 67.567 645.438 67.8951 645.656 68.1529C645.883 68.4107 646.242 68.6529 646.734 68.8795C647.227 69.106 647.875 69.3716 648.68 69.6763C649.484 69.9732 650.18 70.2818 650.766 70.6021C651.352 70.9146 651.801 71.2974 652.113 71.7505C652.434 72.1959 652.594 72.7701 652.594 73.4732ZM657.668 64.1451V76.9888H655.723V64.1451H657.668ZM656.719 59.3404C657.039 59.3404 657.312 59.4459 657.539 59.6568C657.773 59.8599 657.891 60.1802 657.891 60.6177C657.891 61.0474 657.773 61.3677 657.539 61.5787C657.312 61.7896 657.039 61.8951 656.719 61.8951C656.383 61.8951 656.102 61.7896 655.875 61.5787C655.656 61.3677 655.547 61.0474 655.547 60.6177C655.547 60.1802 655.656 59.8599 655.875 59.6568C656.102 59.4459 656.383 59.3404 656.719 59.3404ZM667.875 63.9107C669.398 63.9107 670.551 64.2857 671.332 65.0357C672.113 65.7779 672.504 66.9732 672.504 68.6216V76.9888H670.582V68.7505C670.582 67.6802 670.336 66.8795 669.844 66.3482C669.359 65.817 668.613 65.5513 667.605 65.5513C666.184 65.5513 665.184 65.9537 664.605 66.7584C664.027 67.563 663.738 68.731 663.738 70.2623V76.9888H661.793V64.1451H663.363L663.656 65.9966H663.762C664.035 65.5435 664.383 65.1646 664.805 64.8599C665.227 64.5474 665.699 64.313 666.223 64.1568C666.746 63.9927 667.297 63.9107 667.875 63.9107ZM681.457 63.9107C682.551 63.9107 683.488 64.1529 684.27 64.6373C685.051 65.1216 685.648 65.8013 686.062 66.6763C686.477 67.5435 686.684 68.5591 686.684 69.7232V70.9302H677.812C677.836 72.438 678.211 73.5865 678.938 74.3755C679.664 75.1646 680.688 75.5591 682.008 75.5591C682.82 75.5591 683.539 75.4849 684.164 75.3365C684.789 75.188 685.438 74.9693 686.109 74.6802V76.3912C685.461 76.6802 684.816 76.8912 684.176 77.024C683.543 77.1568 682.793 77.2232 681.926 77.2232C680.691 77.2232 679.613 76.9732 678.691 76.4732C677.777 75.9654 677.066 75.2232 676.559 74.2466C676.051 73.2701 675.797 72.0748 675.797 70.6607C675.797 69.2779 676.027 68.0826 676.488 67.0748C676.957 66.0591 677.613 65.2779 678.457 64.731C679.309 64.1841 680.309 63.9107 681.457 63.9107ZM681.434 65.5045C680.395 65.5045 679.566 65.8443 678.949 66.524C678.332 67.2037 677.965 68.1529 677.848 69.3716H684.645C684.637 68.606 684.516 67.9341 684.281 67.356C684.055 66.7701 683.707 66.317 683.238 65.9966C682.77 65.6685 682.168 65.5045 681.434 65.5045ZM698.297 73.4732C698.297 74.2935 698.09 74.9849 697.676 75.5474C697.27 76.1021 696.684 76.5201 695.918 76.8013C695.16 77.0826 694.254 77.2232 693.199 77.2232C692.301 77.2232 691.523 77.1529 690.867 77.0123C690.211 76.8716 689.637 76.6724 689.145 76.4146V74.6216C689.668 74.8795 690.293 75.1138 691.02 75.3248C691.746 75.5357 692.488 75.6412 693.246 75.6412C694.355 75.6412 695.16 75.4615 695.66 75.1021C696.16 74.7427 696.41 74.2545 696.41 73.6373C696.41 73.2857 696.309 72.9771 696.105 72.7115C695.91 72.438 695.578 72.1763 695.109 71.9263C694.641 71.6685 693.992 71.3873 693.164 71.0826C692.344 70.7701 691.633 70.4615 691.031 70.1568C690.438 69.8443 689.977 69.4654 689.648 69.0201C689.328 68.5748 689.168 67.9966 689.168 67.2857C689.168 66.1998 689.605 65.3677 690.48 64.7896C691.363 64.2037 692.52 63.9107 693.949 63.9107C694.723 63.9107 695.445 63.9888 696.117 64.1451C696.797 64.2935 697.43 64.4966 698.016 64.7545L697.359 66.313C696.828 66.0865 696.262 65.8951 695.66 65.7388C695.059 65.5826 694.445 65.5045 693.82 65.5045C692.922 65.5045 692.23 65.6529 691.746 65.9498C691.27 66.2466 691.031 66.6529 691.031 67.1685C691.031 67.567 691.141 67.8951 691.359 68.1529C691.586 68.4107 691.945 68.6529 692.438 68.8795C692.93 69.106 693.578 69.3716 694.383 69.6763C695.188 69.9732 695.883 70.2818 696.469 70.6021C697.055 70.9146 697.504 71.2974 697.816 71.7505C698.137 72.1959 698.297 72.7701 698.297 73.4732ZM709.734 73.4732C709.734 74.2935 709.527 74.9849 709.113 75.5474C708.707 76.1021 708.121 76.5201 707.355 76.8013C706.598 77.0826 705.691 77.2232 704.637 77.2232C703.738 77.2232 702.961 77.1529 702.305 77.0123C701.648 76.8716 701.074 76.6724 700.582 76.4146V74.6216C701.105 74.8795 701.73 75.1138 702.457 75.3248C703.184 75.5357 703.926 75.6412 704.684 75.6412C705.793 75.6412 706.598 75.4615 707.098 75.1021C707.598 74.7427 707.848 74.2545 707.848 73.6373C707.848 73.2857 707.746 72.9771 707.543 72.7115C707.348 72.438 707.016 72.1763 706.547 71.9263C706.078 71.6685 705.43 71.3873 704.602 71.0826C703.781 70.7701 703.07 70.4615 702.469 70.1568C701.875 69.8443 701.414 69.4654 701.086 69.0201C700.766 68.5748 700.605 67.9966 700.605 67.2857C700.605 66.1998 701.043 65.3677 701.918 64.7896C702.801 64.2037 703.957 63.9107 705.387 63.9107C706.16 63.9107 706.883 63.9888 707.555 64.1451C708.234 64.2935 708.867 64.4966 709.453 64.7545L708.797 66.313C708.266 66.0865 707.699 65.8951 707.098 65.7388C706.496 65.5826 705.883 65.5045 705.258 65.5045C704.359 65.5045 703.668 65.6529 703.184 65.9498C702.707 66.2466 702.469 66.6529 702.469 67.1685C702.469 67.567 702.578 67.8951 702.797 68.1529C703.023 68.4107 703.383 68.6529 703.875 68.8795C704.367 69.106 705.016 69.3716 705.82 69.6763C706.625 69.9732 707.32 70.2818 707.906 70.6021C708.492 70.9146 708.941 71.2974 709.254 71.7505C709.574 72.1959 709.734 72.7701 709.734 73.4732ZM729.059 72.4302C729.059 73.4459 728.805 74.313 728.297 75.0318C727.797 75.7427 727.094 76.2857 726.188 76.6607C725.281 77.0357 724.215 77.2232 722.988 77.2232C722.34 77.2232 721.727 77.192 721.148 77.1295C720.57 77.067 720.039 76.9771 719.555 76.8599C719.07 76.7427 718.645 76.5982 718.277 76.4263V74.5162C718.863 74.7584 719.578 74.9849 720.422 75.1959C721.266 75.399 722.148 75.5005 723.07 75.5005C723.93 75.5005 724.656 75.3873 725.25 75.1607C725.844 74.9263 726.293 74.5943 726.598 74.1646C726.91 73.7271 727.066 73.2037 727.066 72.5943C727.066 72.0084 726.938 71.5201 726.68 71.1295C726.422 70.731 725.992 70.3716 725.391 70.0513C724.797 69.7232 723.984 69.3755 722.953 69.0084C722.227 68.7505 721.586 68.4693 721.031 68.1646C720.477 67.8521 720.012 67.5005 719.637 67.1099C719.262 66.7193 718.977 66.2662 718.781 65.7505C718.594 65.2349 718.5 64.6451 718.5 63.981C718.5 63.067 718.73 62.2857 719.191 61.6373C719.66 60.981 720.305 60.481 721.125 60.1373C721.953 59.7857 722.902 59.6099 723.973 59.6099C724.887 59.6099 725.73 59.6959 726.504 59.8677C727.285 60.0396 728 60.2701 728.648 60.5591L728.027 62.2701C727.41 62.0123 726.754 61.7974 726.059 61.6255C725.371 61.4537 724.66 61.3677 723.926 61.3677C723.191 61.3677 722.57 61.4771 722.062 61.6959C721.562 61.9068 721.18 62.2076 720.914 62.5982C720.648 62.9888 720.516 63.4537 720.516 63.9927C720.516 64.5943 720.641 65.0943 720.891 65.4927C721.148 65.8912 721.555 66.2466 722.109 66.5591C722.672 66.8638 723.414 67.1841 724.336 67.5201C725.344 67.8873 726.199 68.2779 726.902 68.692C727.605 69.0982 728.141 69.5982 728.508 70.192C728.875 70.7779 729.059 71.524 729.059 72.4302ZM737.215 63.9107C738.309 63.9107 739.246 64.1529 740.027 64.6373C740.809 65.1216 741.406 65.8013 741.82 66.6763C742.234 67.5435 742.441 68.5591 742.441 69.7232V70.9302H733.57C733.594 72.438 733.969 73.5865 734.695 74.3755C735.422 75.1646 736.445 75.5591 737.766 75.5591C738.578 75.5591 739.297 75.4849 739.922 75.3365C740.547 75.188 741.195 74.9693 741.867 74.6802V76.3912C741.219 76.6802 740.574 76.8912 739.934 77.024C739.301 77.1568 738.551 77.2232 737.684 77.2232C736.449 77.2232 735.371 76.9732 734.449 76.4732C733.535 75.9654 732.824 75.2232 732.316 74.2466C731.809 73.2701 731.555 72.0748 731.555 70.6607C731.555 69.2779 731.785 68.0826 732.246 67.0748C732.715 66.0591 733.371 65.2779 734.215 64.731C735.066 64.1841 736.066 63.9107 737.215 63.9107ZM737.191 65.5045C736.152 65.5045 735.324 65.8443 734.707 66.524C734.09 67.2037 733.723 68.1529 733.605 69.3716H740.402C740.395 68.606 740.273 67.9341 740.039 67.356C739.812 66.7701 739.465 66.317 738.996 65.9966C738.527 65.6685 737.926 65.5045 737.191 65.5045ZM749.895 75.6295C750.215 75.6295 750.543 75.6021 750.879 75.5474C751.215 75.4927 751.488 75.4263 751.699 75.3482V76.8599C751.473 76.9615 751.156 77.0474 750.75 77.1177C750.352 77.188 749.961 77.2232 749.578 77.2232C748.898 77.2232 748.281 77.106 747.727 76.8716C747.172 76.6295 746.727 76.2232 746.391 75.6529C746.062 75.0826 745.898 74.2935 745.898 73.2857V65.6685H744.07V64.7193L745.91 63.9576L746.684 61.1685H747.855V64.1451H751.617V65.6685H747.855V73.2271C747.855 74.0318 748.039 74.6334 748.406 75.0318C748.781 75.4302 749.277 75.6295 749.895 75.6295ZM764.906 64.1451V76.9888H763.312L763.031 75.1841H762.926C762.66 75.6295 762.316 76.0045 761.895 76.3091C761.473 76.6138 760.996 76.8404 760.465 76.9888C759.941 77.1451 759.383 77.2232 758.789 77.2232C757.773 77.2232 756.922 77.0591 756.234 76.731C755.547 76.4029 755.027 75.8951 754.676 75.2076C754.332 74.5201 754.16 73.6373 754.16 72.5591V64.1451H756.129V72.4185C756.129 73.4888 756.371 74.2896 756.855 74.8209C757.34 75.3443 758.078 75.606 759.07 75.606C760.023 75.606 760.781 75.4263 761.344 75.067C761.914 74.7076 762.324 74.1802 762.574 73.4849C762.824 72.7818 762.949 71.9224 762.949 70.9068V64.1451H764.906ZM775.055 63.9107C776.656 63.9107 777.934 64.4615 778.887 65.563C779.84 66.6646 780.316 68.3209 780.316 70.5318C780.316 71.9927 780.098 73.2193 779.66 74.2115C779.223 75.2037 778.605 75.9537 777.809 76.4615C777.02 76.9693 776.086 77.2232 775.008 77.2232C774.328 77.2232 773.73 77.1334 773.215 76.9537C772.699 76.774 772.258 76.5318 771.891 76.2271C771.523 75.9224 771.219 75.5904 770.977 75.231H770.836C770.859 75.5357 770.887 75.9029 770.918 76.3326C770.957 76.7623 770.977 77.1373 770.977 77.4576V82.731H769.02V64.1451H770.625L770.883 66.0435H770.977C771.227 65.6529 771.531 65.2974 771.891 64.9771C772.25 64.649 772.688 64.3912 773.203 64.2037C773.727 64.0084 774.344 63.9107 775.055 63.9107ZM774.715 65.5513C773.824 65.5513 773.105 65.7232 772.559 66.067C772.02 66.4107 771.625 66.9263 771.375 67.6138C771.125 68.2935 770.992 69.149 770.977 70.1802V70.5552C770.977 71.6412 771.094 72.5591 771.328 73.3091C771.57 74.0591 771.965 74.6295 772.512 75.0201C773.066 75.4107 773.809 75.606 774.738 75.606C775.535 75.606 776.199 75.3912 776.73 74.9615C777.262 74.5318 777.656 73.9341 777.914 73.1685C778.18 72.3951 778.312 71.5084 778.312 70.5084C778.312 68.9927 778.016 67.7896 777.422 66.899C776.836 66.0005 775.934 65.5513 774.715 65.5513Z" fill="black"/>
</g>
<g filter="url(#filter1_d_157_283)">
<path d="M626 598C626 585.85 635.85 576 648 576H878V647C878 659.15 868.15 669 856 669H626V598Z" fill="white"/>
<g clip-path="url(#clip1_157_283)">
<path d="M662 634.5C668.627 634.5 674 629.127 674 622.5C674 615.873 668.627 610.5 662 610.5C655.373 610.5 650 615.873 650 622.5C650 629.127 655.373 634.5 662 634.5Z" fill="#00BA00"/>
<path fill-rule="evenodd" clip-rule="evenodd" d="M658.253 628.352L653.864 623.655C653.263 623.012 653.298 621.995 653.941 621.394C654.584 620.793 655.601 620.827 656.202 621.47L659.588 625.094L664.946 620.087C664.994 620.042 665.045 620.001 665.097 619.963L667.617 617.608C668.26 617.007 669.277 617.042 669.878 617.685C670.479 618.328 670.444 619.346 669.801 619.947L662.105 627.138L662.097 627.129L659.434 629.616L658.253 628.352Z" fill="white"/>
</g>
<path d="M700.344 632V614.867H702.336V630.219H709.941V632H700.344ZM717.535 618.922C718.629 618.922 719.566 619.164 720.348 619.648C721.129 620.133 721.727 620.812 722.141 621.688C722.555 622.555 722.762 623.57 722.762 624.734V625.941H713.891C713.914 627.449 714.289 628.598 715.016 629.387C715.742 630.176 716.766 630.57 718.086 630.57C718.898 630.57 719.617 630.496 720.242 630.348C720.867 630.199 721.516 629.98 722.188 629.691V631.402C721.539 631.691 720.895 631.902 720.254 632.035C719.621 632.168 718.871 632.234 718.004 632.234C716.77 632.234 715.691 631.984 714.77 631.484C713.855 630.977 713.145 630.234 712.637 629.258C712.129 628.281 711.875 627.086 711.875 625.672C711.875 624.289 712.105 623.094 712.566 622.086C713.035 621.07 713.691 620.289 714.535 619.742C715.387 619.195 716.387 618.922 717.535 618.922ZM717.512 620.516C716.473 620.516 715.645 620.855 715.027 621.535C714.41 622.215 714.043 623.164 713.926 624.383H720.723C720.715 623.617 720.594 622.945 720.359 622.367C720.133 621.781 719.785 621.328 719.316 621.008C718.848 620.68 718.246 620.516 717.512 620.516ZM729.652 637.766C727.965 637.766 726.664 637.449 725.75 636.816C724.836 636.191 724.379 635.312 724.379 634.18C724.379 633.375 724.633 632.688 725.141 632.117C725.656 631.547 726.367 631.168 727.273 630.98C726.938 630.824 726.648 630.59 726.406 630.277C726.172 629.965 726.055 629.605 726.055 629.199C726.055 628.73 726.184 628.32 726.441 627.969C726.707 627.609 727.109 627.266 727.648 626.938C726.977 626.664 726.43 626.203 726.008 625.555C725.594 624.898 725.387 624.137 725.387 623.27C725.387 622.348 725.578 621.562 725.961 620.914C726.344 620.258 726.898 619.758 727.625 619.414C728.352 619.07 729.23 618.898 730.262 618.898C730.488 618.898 730.715 618.91 730.941 618.934C731.176 618.949 731.398 618.977 731.609 619.016C731.82 619.047 732.004 619.086 732.16 619.133H736.566V620.387L734.199 620.68C734.434 620.984 734.629 621.352 734.785 621.781C734.941 622.211 735.02 622.688 735.02 623.211C735.02 624.492 734.586 625.512 733.719 626.27C732.852 627.02 731.66 627.395 730.145 627.395C729.785 627.395 729.418 627.363 729.043 627.301C728.66 627.512 728.367 627.746 728.164 628.004C727.969 628.262 727.871 628.559 727.871 628.895C727.871 629.145 727.945 629.344 728.094 629.492C728.25 629.641 728.473 629.75 728.762 629.82C729.051 629.883 729.398 629.914 729.805 629.914H732.066C733.465 629.914 734.535 630.207 735.277 630.793C736.027 631.379 736.402 632.234 736.402 633.359C736.402 634.781 735.824 635.871 734.668 636.629C733.512 637.387 731.84 637.766 729.652 637.766ZM729.711 636.242C730.773 636.242 731.652 636.133 732.348 635.914C733.051 635.703 733.574 635.395 733.918 634.988C734.27 634.59 734.445 634.113 734.445 633.559C734.445 633.043 734.328 632.652 734.094 632.387C733.859 632.129 733.516 631.957 733.062 631.871C732.609 631.777 732.055 631.73 731.398 631.73H729.172C728.594 631.73 728.09 631.82 727.66 632C727.23 632.18 726.898 632.445 726.664 632.797C726.438 633.148 726.324 633.586 726.324 634.109C726.324 634.805 726.617 635.332 727.203 635.691C727.789 636.059 728.625 636.242 729.711 636.242ZM730.215 625.977C731.145 625.977 731.844 625.742 732.312 625.273C732.781 624.805 733.016 624.121 733.016 623.223C733.016 622.262 732.777 621.543 732.301 621.066C731.824 620.582 731.121 620.34 730.191 620.34C729.301 620.34 728.613 620.59 728.129 621.09C727.652 621.582 727.414 622.305 727.414 623.258C727.414 624.133 727.656 624.805 728.141 625.273C728.625 625.742 729.316 625.977 730.215 625.977ZM743.902 618.945C745.434 618.945 746.57 619.289 747.312 619.977C748.055 620.664 748.426 621.762 748.426 623.27V632H747.008L746.633 630.102H746.539C746.18 630.57 745.805 630.965 745.414 631.285C745.023 631.598 744.57 631.836 744.055 632C743.547 632.156 742.922 632.234 742.18 632.234C741.398 632.234 740.703 632.098 740.094 631.824C739.492 631.551 739.016 631.137 738.664 630.582C738.32 630.027 738.148 629.324 738.148 628.473C738.148 627.191 738.656 626.207 739.672 625.52C740.688 624.832 742.234 624.457 744.312 624.395L746.527 624.301V623.516C746.527 622.406 746.289 621.629 745.812 621.184C745.336 620.738 744.664 620.516 743.797 620.516C743.125 620.516 742.484 620.613 741.875 620.809C741.266 621.004 740.688 621.234 740.141 621.5L739.543 620.023C740.121 619.727 740.785 619.473 741.535 619.262C742.285 619.051 743.074 618.945 743.902 618.945ZM746.504 625.672L744.547 625.754C742.945 625.816 741.816 626.078 741.16 626.539C740.504 627 740.176 627.652 740.176 628.496C740.176 629.23 740.398 629.773 740.844 630.125C741.289 630.477 741.879 630.652 742.613 630.652C743.754 630.652 744.688 630.336 745.414 629.703C746.141 629.07 746.504 628.121 746.504 626.855V625.672ZM754.391 632H752.434V613.766H754.391V632ZM774.699 627.441C774.699 628.457 774.445 629.324 773.938 630.043C773.438 630.754 772.734 631.297 771.828 631.672C770.922 632.047 769.855 632.234 768.629 632.234C767.98 632.234 767.367 632.203 766.789 632.141C766.211 632.078 765.68 631.988 765.195 631.871C764.711 631.754 764.285 631.609 763.918 631.438V629.527C764.504 629.77 765.219 629.996 766.062 630.207C766.906 630.41 767.789 630.512 768.711 630.512C769.57 630.512 770.297 630.398 770.891 630.172C771.484 629.938 771.934 629.605 772.238 629.176C772.551 628.738 772.707 628.215 772.707 627.605C772.707 627.02 772.578 626.531 772.32 626.141C772.062 625.742 771.633 625.383 771.031 625.062C770.438 624.734 769.625 624.387 768.594 624.02C767.867 623.762 767.227 623.48 766.672 623.176C766.117 622.863 765.652 622.512 765.277 622.121C764.902 621.73 764.617 621.277 764.422 620.762C764.234 620.246 764.141 619.656 764.141 618.992C764.141 618.078 764.371 617.297 764.832 616.648C765.301 615.992 765.945 615.492 766.766 615.148C767.594 614.797 768.543 614.621 769.613 614.621C770.527 614.621 771.371 614.707 772.145 614.879C772.926 615.051 773.641 615.281 774.289 615.57L773.668 617.281C773.051 617.023 772.395 616.809 771.699 616.637C771.012 616.465 770.301 616.379 769.566 616.379C768.832 616.379 768.211 616.488 767.703 616.707C767.203 616.918 766.82 617.219 766.555 617.609C766.289 618 766.156 618.465 766.156 619.004C766.156 619.605 766.281 620.105 766.531 620.504C766.789 620.902 767.195 621.258 767.75 621.57C768.312 621.875 769.055 622.195 769.977 622.531C770.984 622.898 771.84 623.289 772.543 623.703C773.246 624.109 773.781 624.609 774.148 625.203C774.516 625.789 774.699 626.535 774.699 627.441ZM782.855 618.922C783.949 618.922 784.887 619.164 785.668 619.648C786.449 620.133 787.047 620.812 787.461 621.688C787.875 622.555 788.082 623.57 788.082 624.734V625.941H779.211C779.234 627.449 779.609 628.598 780.336 629.387C781.062 630.176 782.086 630.57 783.406 630.57C784.219 630.57 784.938 630.496 785.562 630.348C786.188 630.199 786.836 629.98 787.508 629.691V631.402C786.859 631.691 786.215 631.902 785.574 632.035C784.941 632.168 784.191 632.234 783.324 632.234C782.09 632.234 781.012 631.984 780.09 631.484C779.176 630.977 778.465 630.234 777.957 629.258C777.449 628.281 777.195 627.086 777.195 625.672C777.195 624.289 777.426 623.094 777.887 622.086C778.355 621.07 779.012 620.289 779.855 619.742C780.707 619.195 781.707 618.922 782.855 618.922ZM782.832 620.516C781.793 620.516 780.965 620.855 780.348 621.535C779.73 622.215 779.363 623.164 779.246 624.383H786.043C786.035 623.617 785.914 622.945 785.68 622.367C785.453 621.781 785.105 621.328 784.637 621.008C784.168 620.68 783.566 620.516 782.832 620.516ZM797.223 618.922C797.48 618.922 797.75 618.938 798.031 618.969C798.312 618.992 798.562 619.027 798.781 619.074L798.535 620.879C798.324 620.824 798.09 620.781 797.832 620.75C797.574 620.719 797.332 620.703 797.105 620.703C796.59 620.703 796.102 620.809 795.641 621.02C795.188 621.223 794.789 621.52 794.445 621.91C794.102 622.293 793.832 622.758 793.637 623.305C793.441 623.844 793.344 624.445 793.344 625.109V632H791.387V619.156H793.004L793.215 621.523H793.297C793.562 621.047 793.883 620.613 794.258 620.223C794.633 619.824 795.066 619.508 795.559 619.273C796.059 619.039 796.613 618.922 797.223 618.922ZM804.031 632L799.156 619.156H801.242L804.066 626.926C804.262 627.457 804.461 628.043 804.664 628.684C804.867 629.324 805.008 629.84 805.086 630.23H805.168C805.262 629.84 805.418 629.324 805.637 628.684C805.855 628.035 806.055 627.449 806.234 626.926L809.059 619.156H811.145L806.258 632H804.031ZM815.152 619.156V632H813.207V619.156H815.152ZM814.203 614.352C814.523 614.352 814.797 614.457 815.023 614.668C815.258 614.871 815.375 615.191 815.375 615.629C815.375 616.059 815.258 616.379 815.023 616.59C814.797 616.801 814.523 616.906 814.203 616.906C813.867 616.906 813.586 616.801 813.359 616.59C813.141 616.379 813.031 616.059 813.031 615.629C813.031 615.191 813.141 614.871 813.359 614.668C813.586 614.457 813.867 614.352 814.203 614.352ZM824.422 632.234C823.266 632.234 822.246 631.996 821.363 631.52C820.48 631.043 819.793 630.316 819.301 629.34C818.809 628.363 818.562 627.133 818.562 625.648C818.562 624.094 818.82 622.824 819.336 621.84C819.859 620.848 820.578 620.113 821.492 619.637C822.406 619.16 823.445 618.922 824.609 618.922C825.25 618.922 825.867 618.988 826.461 619.121C827.062 619.246 827.555 619.406 827.938 619.602L827.352 621.23C826.961 621.074 826.508 620.934 825.992 620.809C825.484 620.684 825.008 620.621 824.562 620.621C823.672 620.621 822.93 620.812 822.336 621.195C821.75 621.578 821.309 622.141 821.012 622.883C820.723 623.625 820.578 624.539 820.578 625.625C820.578 626.664 820.719 627.551 821 628.285C821.289 629.02 821.715 629.582 822.277 629.973C822.848 630.355 823.559 630.547 824.41 630.547C825.09 630.547 825.703 630.477 826.25 630.336C826.797 630.188 827.293 630.016 827.738 629.82V631.555C827.309 631.773 826.828 631.941 826.297 632.059C825.773 632.176 825.148 632.234 824.422 632.234ZM835.73 618.922C836.824 618.922 837.762 619.164 838.543 619.648C839.324 620.133 839.922 620.812 840.336 621.688C840.75 622.555 840.957 623.57 840.957 624.734V625.941H832.086C832.109 627.449 832.484 628.598 833.211 629.387C833.938 630.176 834.961 630.57 836.281 630.57C837.094 630.57 837.812 630.496 838.438 630.348C839.062 630.199 839.711 629.98 840.383 629.691V631.402C839.734 631.691 839.09 631.902 838.449 632.035C837.816 632.168 837.066 632.234 836.199 632.234C834.965 632.234 833.887 631.984 832.965 631.484C832.051 630.977 831.34 630.234 830.832 629.258C830.324 628.281 830.07 627.086 830.07 625.672C830.07 624.289 830.301 623.094 830.762 622.086C831.23 621.07 831.887 620.289 832.73 619.742C833.582 619.195 834.582 618.922 835.73 618.922ZM835.707 620.516C834.668 620.516 833.84 620.855 833.223 621.535C832.605 622.215 832.238 623.164 832.121 624.383H838.918C838.91 623.617 838.789 622.945 838.555 622.367C838.328 621.781 837.98 621.328 837.512 621.008C837.043 620.68 836.441 620.516 835.707 620.516ZM852.57 628.484C852.57 629.305 852.363 629.996 851.949 630.559C851.543 631.113 850.957 631.531 850.191 631.812C849.434 632.094 848.527 632.234 847.473 632.234C846.574 632.234 845.797 632.164 845.141 632.023C844.484 631.883 843.91 631.684 843.418 631.426V629.633C843.941 629.891 844.566 630.125 845.293 630.336C846.02 630.547 846.762 630.652 847.52 630.652C848.629 630.652 849.434 630.473 849.934 630.113C850.434 629.754 850.684 629.266 850.684 628.648C850.684 628.297 850.582 627.988 850.379 627.723C850.184 627.449 849.852 627.188 849.383 626.938C848.914 626.68 848.266 626.398 847.438 626.094C846.617 625.781 845.906 625.473 845.305 625.168C844.711 624.855 844.25 624.477 843.922 624.031C843.602 623.586 843.441 623.008 843.441 622.297C843.441 621.211 843.879 620.379 844.754 619.801C845.637 619.215 846.793 618.922 848.223 618.922C848.996 618.922 849.719 619 850.391 619.156C851.07 619.305 851.703 619.508 852.289 619.766L851.633 621.324C851.102 621.098 850.535 620.906 849.934 620.75C849.332 620.594 848.719 620.516 848.094 620.516C847.195 620.516 846.504 620.664 846.02 620.961C845.543 621.258 845.305 621.664 845.305 622.18C845.305 622.578 845.414 622.906 845.633 623.164C845.859 623.422 846.219 623.664 846.711 623.891C847.203 624.117 847.852 624.383 848.656 624.688C849.461 624.984 850.156 625.293 850.742 625.613C851.328 625.926 851.777 626.309 852.09 626.762C852.41 627.207 852.57 627.781 852.57 628.484Z" fill="black"/>
</g>
<g filter="url(#filter2_d_157_283)">
<path d="M52 517C52 504.85 61.8497 495 74 495H374V566C374 578.15 364.15 588 352 588H52V517Z" fill="white"/>
<g clip-path="url(#clip2_157_283)">
<path d="M88 553.5C94.6274 553.5 100 548.127 100 541.5C100 534.873 94.6274 529.5 88 529.5C81.3726 529.5 76 534.873 76 541.5C76 548.127 81.3726 553.5 88 553.5Z" fill="#00BA00"/>
<path fill-rule="evenodd" clip-rule="evenodd" d="M84.2529 547.352L79.8641 542.655C79.2633 542.012 79.2977 540.995 79.9408 540.394C80.5839 539.793 81.6014 539.827 82.2022 540.47L85.5875 544.094L90.9461 539.087C90.9942 539.042 91.0446 539.001 91.0967 538.963L93.6166 536.608C94.2597 536.007 95.2772 536.042 95.878 536.685C96.4788 537.328 96.4442 538.346 95.8012 538.947L88.1048 546.138L88.0966 546.129L85.4343 548.616L84.2529 547.352Z" fill="white"/>
</g>
<path d="M141.203 542.41C141.203 543.73 141.035 544.934 140.699 546.02C140.363 547.098 139.863 548.027 139.199 548.809C138.543 549.582 137.727 550.18 136.75 550.602C135.773 551.023 134.641 551.234 133.352 551.234C132.023 551.234 130.863 551.023 129.871 550.602C128.887 550.18 128.066 549.578 127.41 548.797C126.762 548.016 126.273 547.082 125.945 545.996C125.625 544.91 125.465 543.707 125.465 542.387C125.465 540.637 125.754 539.102 126.332 537.781C126.91 536.461 127.785 535.434 128.957 534.699C130.137 533.965 131.613 533.598 133.387 533.598C135.082 533.598 136.508 533.961 137.664 534.688C138.828 535.414 139.707 536.438 140.301 537.758C140.902 539.07 141.203 540.621 141.203 542.41ZM127.562 542.41C127.562 543.863 127.77 545.121 128.184 546.184C128.598 547.246 129.23 548.066 130.082 548.645C130.941 549.223 132.031 549.512 133.352 549.512C134.68 549.512 135.766 549.223 136.609 548.645C137.461 548.066 138.09 547.246 138.496 546.184C138.902 545.121 139.105 543.863 139.105 542.41C139.105 540.199 138.641 538.473 137.711 537.23C136.789 535.98 135.348 535.355 133.387 535.355C132.059 535.355 130.965 535.641 130.105 536.211C129.246 536.781 128.605 537.594 128.184 538.648C127.77 539.695 127.562 540.949 127.562 542.41ZM150.812 537.922C152.336 537.922 153.488 538.297 154.27 539.047C155.051 539.789 155.441 540.984 155.441 542.633V551H153.52V542.762C153.52 541.691 153.273 540.891 152.781 540.359C152.297 539.828 151.551 539.562 150.543 539.562C149.121 539.562 148.121 539.965 147.543 540.77C146.965 541.574 146.676 542.742 146.676 544.273V551H144.73V538.156H146.301L146.594 540.008H146.699C146.973 539.555 147.32 539.176 147.742 538.871C148.164 538.559 148.637 538.324 149.16 538.168C149.684 538.004 150.234 537.922 150.812 537.922ZM161.406 551H159.449V532.766H161.406V551ZM167.465 538.156V551H165.52V538.156H167.465ZM166.516 533.352C166.836 533.352 167.109 533.457 167.336 533.668C167.57 533.871 167.688 534.191 167.688 534.629C167.688 535.059 167.57 535.379 167.336 535.59C167.109 535.801 166.836 535.906 166.516 535.906C166.18 535.906 165.898 535.801 165.672 535.59C165.453 535.379 165.344 535.059 165.344 534.629C165.344 534.191 165.453 533.871 165.672 533.668C165.898 533.457 166.18 533.352 166.516 533.352ZM177.672 537.922C179.195 537.922 180.348 538.297 181.129 539.047C181.91 539.789 182.301 540.984 182.301 542.633V551H180.379V542.762C180.379 541.691 180.133 540.891 179.641 540.359C179.156 539.828 178.41 539.562 177.402 539.562C175.98 539.562 174.98 539.965 174.402 540.77C173.824 541.574 173.535 542.742 173.535 544.273V551H171.59V538.156H173.16L173.453 540.008H173.559C173.832 539.555 174.18 539.176 174.602 538.871C175.023 538.559 175.496 538.324 176.02 538.168C176.543 538.004 177.094 537.922 177.672 537.922ZM191.254 537.922C192.348 537.922 193.285 538.164 194.066 538.648C194.848 539.133 195.445 539.812 195.859 540.688C196.273 541.555 196.48 542.57 196.48 543.734V544.941H187.609C187.633 546.449 188.008 547.598 188.734 548.387C189.461 549.176 190.484 549.57 191.805 549.57C192.617 549.57 193.336 549.496 193.961 549.348C194.586 549.199 195.234 548.98 195.906 548.691V550.402C195.258 550.691 194.613 550.902 193.973 551.035C193.34 551.168 192.59 551.234 191.723 551.234C190.488 551.234 189.41 550.984 188.488 550.484C187.574 549.977 186.863 549.234 186.355 548.258C185.848 547.281 185.594 546.086 185.594 544.672C185.594 543.289 185.824 542.094 186.285 541.086C186.754 540.07 187.41 539.289 188.254 538.742C189.105 538.195 190.105 537.922 191.254 537.922ZM191.23 539.516C190.191 539.516 189.363 539.855 188.746 540.535C188.129 541.215 187.762 542.164 187.645 543.383H194.441C194.434 542.617 194.312 541.945 194.078 541.367C193.852 540.781 193.504 540.328 193.035 540.008C192.566 539.68 191.965 539.516 191.23 539.516ZM206.312 533.867H211.164C213.305 533.867 214.914 534.188 215.992 534.828C217.07 535.469 217.609 536.559 217.609 538.098C217.609 538.762 217.48 539.359 217.223 539.891C216.973 540.414 216.605 540.848 216.121 541.191C215.637 541.535 215.039 541.773 214.328 541.906V542.023C215.078 542.141 215.742 542.355 216.32 542.668C216.898 542.98 217.352 543.418 217.68 543.98C218.008 544.543 218.172 545.258 218.172 546.125C218.172 547.18 217.926 548.07 217.434 548.797C216.949 549.523 216.262 550.074 215.371 550.449C214.48 550.816 213.426 551 212.207 551H206.312V533.867ZM208.305 541.215H211.586C213.078 541.215 214.109 540.969 214.68 540.477C215.258 539.984 215.547 539.266 215.547 538.32C215.547 537.344 215.203 536.641 214.516 536.211C213.836 535.781 212.75 535.566 211.258 535.566H208.305V541.215ZM208.305 542.891V549.301H211.867C213.391 549.301 214.469 549.004 215.102 548.41C215.734 547.809 216.051 547 216.051 545.984C216.051 545.336 215.906 544.781 215.617 544.32C215.336 543.859 214.875 543.508 214.234 543.266C213.602 543.016 212.754 542.891 211.691 542.891H208.305ZM232.609 544.555C232.609 545.609 232.473 546.551 232.199 547.379C231.926 548.207 231.531 548.906 231.016 549.477C230.5 550.047 229.875 550.484 229.141 550.789C228.414 551.086 227.59 551.234 226.668 551.234C225.809 551.234 225.02 551.086 224.301 550.789C223.59 550.484 222.973 550.047 222.449 549.477C221.934 548.906 221.531 548.207 221.242 547.379C220.961 546.551 220.82 545.609 220.82 544.555C220.82 543.148 221.059 541.953 221.535 540.969C222.012 539.977 222.691 539.223 223.574 538.707C224.465 538.184 225.523 537.922 226.75 537.922C227.922 537.922 228.945 538.184 229.82 538.707C230.703 539.23 231.387 539.988 231.871 540.98C232.363 541.965 232.609 543.156 232.609 544.555ZM222.836 544.555C222.836 545.586 222.973 546.48 223.246 547.238C223.52 547.996 223.941 548.582 224.512 548.996C225.082 549.41 225.816 549.617 226.715 549.617C227.605 549.617 228.336 549.41 228.906 548.996C229.484 548.582 229.91 547.996 230.184 547.238C230.457 546.48 230.594 545.586 230.594 544.555C230.594 543.531 230.457 542.648 230.184 541.906C229.91 541.156 229.488 540.578 228.918 540.172C228.348 539.766 227.609 539.562 226.703 539.562C225.367 539.562 224.387 540.004 223.762 540.887C223.145 541.77 222.836 542.992 222.836 544.555ZM247.047 544.555C247.047 545.609 246.91 546.551 246.637 547.379C246.363 548.207 245.969 548.906 245.453 549.477C244.938 550.047 244.312 550.484 243.578 550.789C242.852 551.086 242.027 551.234 241.105 551.234C240.246 551.234 239.457 551.086 238.738 550.789C238.027 550.484 237.41 550.047 236.887 549.477C236.371 548.906 235.969 548.207 235.68 547.379C235.398 546.551 235.258 545.609 235.258 544.555C235.258 543.148 235.496 541.953 235.973 540.969C236.449 539.977 237.129 539.223 238.012 538.707C238.902 538.184 239.961 537.922 241.188 537.922C242.359 537.922 243.383 538.184 244.258 538.707C245.141 539.23 245.824 539.988 246.309 540.98C246.801 541.965 247.047 543.156 247.047 544.555ZM237.273 544.555C237.273 545.586 237.41 546.48 237.684 547.238C237.957 547.996 238.379 548.582 238.949 548.996C239.52 549.41 240.254 549.617 241.152 549.617C242.043 549.617 242.773 549.41 243.344 548.996C243.922 548.582 244.348 547.996 244.621 547.238C244.895 546.48 245.031 545.586 245.031 544.555C245.031 543.531 244.895 542.648 244.621 541.906C244.348 541.156 243.926 540.578 243.355 540.172C242.785 539.766 242.047 539.562 241.141 539.562C239.805 539.562 238.824 540.004 238.199 540.887C237.582 541.77 237.273 542.992 237.273 544.555ZM252.344 532.766V542.234C252.344 542.547 252.332 542.93 252.309 543.383C252.285 543.828 252.266 544.223 252.25 544.566H252.332C252.496 544.363 252.734 544.062 253.047 543.664C253.367 543.266 253.637 542.945 253.855 542.703L258.121 538.156H260.406L255.238 543.641L260.781 551H258.438L253.902 544.918L252.344 546.348V551H250.41V532.766H252.344ZM264.953 532.766V542.234C264.953 542.547 264.941 542.93 264.918 543.383C264.895 543.828 264.875 544.223 264.859 544.566H264.941C265.105 544.363 265.344 544.062 265.656 543.664C265.977 543.266 266.246 542.945 266.465 542.703L270.73 538.156H273.016L267.848 543.641L273.391 551H271.047L266.512 544.918L264.953 546.348V551H263.02V532.766H264.953ZM280.574 537.922C281.668 537.922 282.605 538.164 283.387 538.648C284.168 539.133 284.766 539.812 285.18 540.688C285.594 541.555 285.801 542.57 285.801 543.734V544.941H276.93C276.953 546.449 277.328 547.598 278.055 548.387C278.781 549.176 279.805 549.57 281.125 549.57C281.938 549.57 282.656 549.496 283.281 549.348C283.906 549.199 284.555 548.98 285.227 548.691V550.402C284.578 550.691 283.934 550.902 283.293 551.035C282.66 551.168 281.91 551.234 281.043 551.234C279.809 551.234 278.73 550.984 277.809 550.484C276.895 549.977 276.184 549.234 275.676 548.258C275.168 547.281 274.914 546.086 274.914 544.672C274.914 543.289 275.145 542.094 275.605 541.086C276.074 540.07 276.73 539.289 277.574 538.742C278.426 538.195 279.426 537.922 280.574 537.922ZM280.551 539.516C279.512 539.516 278.684 539.855 278.066 540.535C277.449 541.215 277.082 542.164 276.965 543.383H283.762C283.754 542.617 283.633 541.945 283.398 541.367C283.172 540.781 282.824 540.328 282.355 540.008C281.887 539.68 281.285 539.516 280.551 539.516ZM294.051 537.922C295.145 537.922 296.082 538.164 296.863 538.648C297.645 539.133 298.242 539.812 298.656 540.688C299.07 541.555 299.277 542.57 299.277 543.734V544.941H290.406C290.43 546.449 290.805 547.598 291.531 548.387C292.258 549.176 293.281 549.57 294.602 549.57C295.414 549.57 296.133 549.496 296.758 549.348C297.383 549.199 298.031 548.98 298.703 548.691V550.402C298.055 550.691 297.41 550.902 296.77 551.035C296.137 551.168 295.387 551.234 294.52 551.234C293.285 551.234 292.207 550.984 291.285 550.484C290.371 549.977 289.66 549.234 289.152 548.258C288.645 547.281 288.391 546.086 288.391 544.672C288.391 543.289 288.621 542.094 289.082 541.086C289.551 540.07 290.207 539.289 291.051 538.742C291.902 538.195 292.902 537.922 294.051 537.922ZM294.027 539.516C292.988 539.516 292.16 539.855 291.543 540.535C290.926 541.215 290.559 542.164 290.441 543.383H297.238C297.23 542.617 297.109 541.945 296.875 541.367C296.648 540.781 296.301 540.328 295.832 540.008C295.363 539.68 294.762 539.516 294.027 539.516ZM308.617 537.922C310.219 537.922 311.496 538.473 312.449 539.574C313.402 540.676 313.879 542.332 313.879 544.543C313.879 546.004 313.66 547.23 313.223 548.223C312.785 549.215 312.168 549.965 311.371 550.473C310.582 550.98 309.648 551.234 308.57 551.234C307.891 551.234 307.293 551.145 306.777 550.965C306.262 550.785 305.82 550.543 305.453 550.238C305.086 549.934 304.781 549.602 304.539 549.242H304.398C304.422 549.547 304.449 549.914 304.48 550.344C304.52 550.773 304.539 551.148 304.539 551.469V556.742H302.582V538.156H304.188L304.445 540.055H304.539C304.789 539.664 305.094 539.309 305.453 538.988C305.812 538.66 306.25 538.402 306.766 538.215C307.289 538.02 307.906 537.922 308.617 537.922ZM308.277 539.562C307.387 539.562 306.668 539.734 306.121 540.078C305.582 540.422 305.188 540.938 304.938 541.625C304.688 542.305 304.555 543.16 304.539 544.191V544.566C304.539 545.652 304.656 546.57 304.891 547.32C305.133 548.07 305.527 548.641 306.074 549.031C306.629 549.422 307.371 549.617 308.301 549.617C309.098 549.617 309.762 549.402 310.293 548.973C310.824 548.543 311.219 547.945 311.477 547.18C311.742 546.406 311.875 545.52 311.875 544.52C311.875 543.004 311.578 541.801 310.984 540.91C310.398 540.012 309.496 539.562 308.277 539.562ZM319.223 538.156V551H317.277V538.156H319.223ZM318.273 533.352C318.594 533.352 318.867 533.457 319.094 533.668C319.328 533.871 319.445 534.191 319.445 534.629C319.445 535.059 319.328 535.379 319.094 535.59C318.867 535.801 318.594 535.906 318.273 535.906C317.938 535.906 317.656 535.801 317.43 535.59C317.211 535.379 317.102 535.059 317.102 534.629C317.102 534.191 317.211 533.871 317.43 533.668C317.656 533.457 317.938 533.352 318.273 533.352ZM329.43 537.922C330.953 537.922 332.105 538.297 332.887 539.047C333.668 539.789 334.059 540.984 334.059 542.633V551H332.137V542.762C332.137 541.691 331.891 540.891 331.398 540.359C330.914 539.828 330.168 539.562 329.16 539.562C327.738 539.562 326.738 539.965 326.16 540.77C325.582 541.574 325.293 542.742 325.293 544.273V551H323.348V538.156H324.918L325.211 540.008H325.316C325.59 539.555 325.938 539.176 326.359 538.871C326.781 538.559 327.254 538.324 327.777 538.168C328.301 538.004 328.852 537.922 329.43 537.922ZM341.652 556.766C339.965 556.766 338.664 556.449 337.75 555.816C336.836 555.191 336.379 554.312 336.379 553.18C336.379 552.375 336.633 551.688 337.141 551.117C337.656 550.547 338.367 550.168 339.273 549.98C338.938 549.824 338.648 549.59 338.406 549.277C338.172 548.965 338.055 548.605 338.055 548.199C338.055 547.73 338.184 547.32 338.441 546.969C338.707 546.609 339.109 546.266 339.648 545.938C338.977 545.664 338.43 545.203 338.008 544.555C337.594 543.898 337.387 543.137 337.387 542.27C337.387 541.348 337.578 540.562 337.961 539.914C338.344 539.258 338.898 538.758 339.625 538.414C340.352 538.07 341.23 537.898 342.262 537.898C342.488 537.898 342.715 537.91 342.941 537.934C343.176 537.949 343.398 537.977 343.609 538.016C343.82 538.047 344.004 538.086 344.16 538.133H348.566V539.387L346.199 539.68C346.434 539.984 346.629 540.352 346.785 540.781C346.941 541.211 347.02 541.688 347.02 542.211C347.02 543.492 346.586 544.512 345.719 545.27C344.852 546.02 343.66 546.395 342.145 546.395C341.785 546.395 341.418 546.363 341.043 546.301C340.66 546.512 340.367 546.746 340.164 547.004C339.969 547.262 339.871 547.559 339.871 547.895C339.871 548.145 339.945 548.344 340.094 548.492C340.25 548.641 340.473 548.75 340.762 548.82C341.051 548.883 341.398 548.914 341.805 548.914H344.066C345.465 548.914 346.535 549.207 347.277 549.793C348.027 550.379 348.402 551.234 348.402 552.359C348.402 553.781 347.824 554.871 346.668 555.629C345.512 556.387 343.84 556.766 341.652 556.766ZM341.711 555.242C342.773 555.242 343.652 555.133 344.348 554.914C345.051 554.703 345.574 554.395 345.918 553.988C346.27 553.59 346.445 553.113 346.445 552.559C346.445 552.043 346.328 551.652 346.094 551.387C345.859 551.129 345.516 550.957 345.062 550.871C344.609 550.777 344.055 550.73 343.398 550.73H341.172C340.594 550.73 340.09 550.82 339.66 551C339.23 551.18 338.898 551.445 338.664 551.797C338.438 552.148 338.324 552.586 338.324 553.109C338.324 553.805 338.617 554.332 339.203 554.691C339.789 555.059 340.625 555.242 341.711 555.242ZM342.215 544.977C343.145 544.977 343.844 544.742 344.312 544.273C344.781 543.805 345.016 543.121 345.016 542.223C345.016 541.262 344.777 540.543 344.301 540.066C343.824 539.582 343.121 539.34 342.191 539.34C341.301 539.34 340.613 539.59 340.129 540.09C339.652 540.582 339.414 541.305 339.414 542.258C339.414 543.133 339.656 543.805 340.141 544.273C340.625 544.742 341.316 544.977 342.215 544.977Z" fill="black"/>
</g>
<defs>
<filter id="filter0_d_157_283" x="488" y="0.988831" width="370" height="197" filterUnits="userSpaceOnUse" color-interpolation-filters="sRGB">
<feFlood flood-opacity="0" result="BackgroundImageFix"/>
<feColorMatrix in="SourceAlpha" type="matrix" values="0 0 0 0 0 0 0 0 0 0 0 0 0 0 0 0 0 0 127 0" result="hardAlpha"/>
<feMorphology radius="12" operator="erode" in="SourceAlpha" result="effect1_dropShadow_157_283"/>
<feOffset dy="32"/>
<feGaussianBlur stdDeviation="32"/>
<feComposite in2="hardAlpha" operator="out"/>
<feColorMatrix type="matrix" values="0 0 0 0 0 0 0 0 0 0.368627 0 0 0 0 0.635294 0 0 0 0.14 0"/>
<feBlend mode="normal" in2="BackgroundImageFix" result="effect1_dropShadow_157_283"/>
<feBlend mode="normal" in="SourceGraphic" in2="effect1_dropShadow_157_283" result="shape"/>
</filter>
<filter id="filter1_d_157_283" x="574" y="556" width="356" height="197" filterUnits="userSpaceOnUse" color-interpolation-filters="sRGB">
<feFlood flood-opacity="0" result="BackgroundImageFix"/>
<feColorMatrix in="SourceAlpha" type="matrix" values="0 0 0 0 0 0 0 0 0 0 0 0 0 0 0 0 0 0 127 0" result="hardAlpha"/>
<feMorphology radius="12" operator="erode" in="SourceAlpha" result="effect1_dropShadow_157_283"/>
<feOffset dy="32"/>
<feGaussianBlur stdDeviation="32"/>
<feComposite in2="hardAlpha" operator="out"/>
<feColorMatrix type="matrix" values="0 0 0 0 0 0 0 0 0 0.368627 0 0 0 0 0.635294 0 0 0 0.14 0"/>
<feBlend mode="normal" in2="BackgroundImageFix" result="effect1_dropShadow_157_283"/>
<feBlend mode="normal" in="SourceGraphic" in2="effect1_dropShadow_157_283" result="shape"/>
</filter>
<filter id="filter2_d_157_283" x="0" y="475" width="426" height="197" filterUnits="userSpaceOnUse" color-interpolation-filters="sRGB">
<feFlood flood-opacity="0" result="BackgroundImageFix"/>
<feColorMatrix in="SourceAlpha" type="matrix" values="0 0 0 0 0 0 0 0 0 0 0 0 0 0 0 0 0 0 127 0" result="hardAlpha"/>
<feMorphology radius="12" operator="erode" in="SourceAlpha" result="effect1_dropShadow_157_283"/>
<feOffset dy="32"/>
<feGaussianBlur stdDeviation="32"/>
<feComposite in2="hardAlpha" operator="out"/>
<feColorMatrix type="matrix" values="0 0 0 0 0 0 0 0 0 0.368627 0 0 0 0 0.635294 0 0 0 0.14 0"/>
<feBlend mode="normal" in2="BackgroundImageFix" result="effect1_dropShadow_157_283"/>
<feBlend mode="normal" in="SourceGraphic" in2="effect1_dropShadow_157_283" result="shape"/>
</filter>
<clipPath id="clip0_157_283">
<rect width="24" height="24" fill="white" transform="translate(564 55.4888)"/>
</clipPath>
<clipPath id="clip1_157_283">
<rect width="24" height="24" fill="white" transform="translate(650 610.5)"/>
</clipPath>
<clipPath id="clip2_157_283">
<rect width="24" height="24" fill="white" transform="translate(76 529.5)"/>
</clipPath>
</defs>
</svg>
