<svg width="76" height="76" viewBox="0 0 76 76" fill="none" xmlns="http://www.w3.org/2000/svg">
<g clip-path="url(#clip0_157_668)">
<path d="M76 38.0075C76 29.0162 72.8134 20.354 67.0236 13.502L67.0386 13.487L66.3055 12.6642C59.1095 4.63034 48.7866 0.00750732 38 0.00750732C27.2134 0.00750732 16.9055 4.61538 9.70945 12.6642L9.69449 12.6792L8.96142 13.502L8.97638 13.517C3.18661 20.354 0 29.0162 0 38.0075C0 46.9988 3.18661 55.6611 8.97638 62.4981L8.96142 62.513L9.69449 63.3359C16.8606 71.3548 27.1386 75.9626 37.8953 75.9926C37.9402 75.9926 37.9701 75.9926 38.015 75.9926C38.0748 75.9926 38.1346 75.9926 38.1945 75.9926C48.9213 75.9327 59.1543 71.3398 66.3055 63.3359L66.3205 63.3209L67.0535 62.4981L67.0386 62.4831C72.8134 55.6611 76 46.9988 76 38.0075ZM65.348 15.3272C70.3748 21.3862 73.2472 28.9114 73.5165 36.7807H64.8543C64.3158 33.5792 61.7126 31.0807 58.4512 30.7067C58.1221 27.6099 57.5984 24.6776 56.9102 21.9248C59.9921 20.1445 62.8346 17.9303 65.348 15.3272ZM62.5205 38.0075C62.5205 40.7154 60.3213 42.9146 57.6134 42.9146C54.9055 42.9146 52.7063 40.7154 52.7063 38.0075C52.7063 35.2996 54.9055 33.1004 57.6134 33.1004C60.3213 33.1004 62.5205 35.2996 62.5205 38.0075ZM62.9394 12.6941C63.089 12.8437 63.2535 13.0083 63.4181 13.1729C63.5228 13.2776 63.6276 13.3973 63.7323 13.502C61.5032 15.8359 58.9748 17.8406 56.237 19.4713C54.1276 12.5146 50.8512 6.9642 46.9165 3.61302C52.9157 5.16892 58.4661 8.2957 62.9394 12.6941ZM39.2268 2.55081C45.4354 3.38861 51.0008 10.45 54.0228 20.6831C49.4598 23.002 44.4181 24.3036 39.2268 24.4981V2.55081ZM39.2268 26.9366C44.6276 26.7571 49.8937 25.4256 54.6661 23.0918C55.2646 25.5303 55.7134 28.1185 55.9976 30.8264C53.1102 31.4847 50.8661 33.8335 50.3724 36.7807H39.2268V26.9366ZM39.2268 39.2492H50.3724C50.8661 42.1965 53.1102 44.5453 56.0126 45.1886C55.7134 47.8965 55.2646 50.4996 54.6661 52.9382C51.7189 51.487 48.5772 50.4099 45.3307 49.7815C45.1063 46.3705 42.548 43.5878 39.2268 43.0343V39.2492ZM36.7732 2.55081V24.4681C33.7362 24.3634 30.7591 23.8847 27.8567 23.017C28.0661 22.3288 28.1858 21.5957 28.1858 20.8327C28.2008 18.05 26.6299 15.6264 24.326 14.3697C27.5724 7.3831 32.0158 3.1642 36.7732 2.55081ZM19.6433 36.7807C19.6882 33.8485 19.9276 30.976 20.3614 28.1784C20.511 28.1933 20.6756 28.2083 20.8402 28.2083C23.2488 28.2083 25.3732 27.0414 26.7197 25.2461C29.9661 26.2634 33.3472 26.817 36.7732 26.9217V36.7807H19.6433ZM36.7732 39.2193V39.2343V43.0193C33.452 43.5729 30.8937 46.3555 30.6693 49.7666C27.4228 50.4099 24.2811 51.4721 21.3189 52.9233C20.3165 48.7343 19.7181 44.0965 19.6283 39.2193H36.7732ZM15.9331 20.8477C15.9331 18.1398 18.1472 15.9406 20.8402 15.9406C23.548 15.9406 25.7472 18.1398 25.7472 20.8477C25.7472 23.5555 23.548 25.7548 20.8402 25.7548C18.1323 25.7548 15.9331 23.5555 15.9331 20.8477ZM12.5969 13.1729C12.7614 13.0083 12.911 12.8437 13.0756 12.6941C17.5488 8.2957 23.0843 5.16892 29.0835 3.61302C26.3756 5.93192 23.9669 9.29806 22.0071 13.5918C21.6331 13.5319 21.2441 13.487 20.8551 13.487C18.5661 13.487 16.5315 14.5343 15.1701 16.1799C14.1677 15.3272 13.1953 14.4445 12.2827 13.502C12.3874 13.3973 12.4921 13.2776 12.5969 13.1729ZM10.6669 15.2973C11.6992 16.3744 12.7913 17.3918 13.9433 18.3343C13.6591 19.1122 13.4945 19.965 13.4945 20.8477C13.4945 23.8847 15.3346 26.4878 17.9677 27.6099C17.5039 30.587 17.2496 33.654 17.2047 36.7807H2.48346C2.75276 28.8965 5.6252 21.3563 10.6669 15.2973ZM10.6669 60.7028C5.6252 54.6437 2.75276 47.1036 2.48346 39.2343H17.1898C17.2795 44.5303 17.9677 49.5422 19.1346 54.0902C16.0228 55.8705 13.1803 58.0996 10.6669 60.7028ZM13.0606 63.3059C12.8961 63.1563 12.7465 63.0067 12.5969 62.8422C12.4921 62.7374 12.3874 62.6177 12.2827 62.513C14.5118 60.1642 17.0701 58.1744 19.8228 56.5288C21.9472 63.4555 25.2386 69.0508 29.2031 72.4319C23.1441 70.876 17.5638 67.7492 13.0606 63.3059ZM36.7732 73.4642C30.4 72.6563 24.9095 65.55 21.9622 55.3319C24.7898 53.9107 27.7969 52.8634 30.9236 52.2201C31.6717 54.9429 33.9606 57.0225 36.7732 57.5012V73.4642ZM38 55.1674C35.2921 55.1674 33.0929 52.9681 33.0929 50.2603C33.0929 47.5524 35.2921 45.3532 38 45.3532C40.7079 45.3532 42.9071 47.5524 42.9071 50.2603C42.9071 52.9681 40.7079 55.1674 38 55.1674ZM39.2268 73.4642V57.5162C42.0543 57.0374 44.3283 54.9579 45.0764 52.2351C48.1882 52.8634 51.1953 53.9107 54.0079 55.3469C51.0008 65.565 45.4504 72.6414 39.2268 73.4642ZM63.4031 62.8422C63.2535 62.9918 63.1039 63.1563 62.9394 63.3059C58.4661 67.7193 52.9307 70.8461 46.9165 72.402C50.8512 69.0359 54.1126 63.5154 56.222 56.5587C58.9598 58.2044 61.4882 60.1792 63.7173 62.513C63.6126 62.6177 63.5079 62.7374 63.4031 62.8422ZM65.3331 60.7028C62.8346 58.1146 60.0071 55.8855 56.9102 54.1051C57.6134 51.3524 58.137 48.4051 58.4512 45.3083C61.6976 44.9343 64.3158 42.4359 64.8543 39.2343H73.5165C73.2472 47.1185 70.3748 54.6437 65.3331 60.7028Z" fill="#0A98FF"/>
</g>
<defs>
<clipPath id="clip0_157_668">
<rect width="76" height="76" fill="white"/>
</clipPath>
</defs>
</svg>
